<svg width="60" height="40" viewBox="0 0 60 40" fill="none" xmlns="http://www.w3.org/2000/svg">
<path d="M20.625 16.888C20.8736 16.888 21.1121 16.7892 21.2879 16.6134C21.4637 16.4376 21.5625 16.1991 21.5625 15.9505V12.2005C21.5625 10.9573 21.0686 9.76499 20.1896 8.88591C19.3105 8.00683 18.1182 7.51297 16.875 7.51297C15.6318 7.51297 14.4395 8.00683 13.5604 8.88591C12.6814 9.76499 12.1875 10.9573 12.1875 12.2005V15.9505C12.1875 16.1991 12.2863 16.4376 12.4621 16.6134C12.6379 16.7892 12.8764 16.888 13.125 16.888H20.625ZM14.0625 12.2005C14.0625 11.4545 14.3588 10.7392 14.8863 10.2117C15.4137 9.68429 16.1291 9.38797 16.875 9.38797C17.6209 9.38797 18.3363 9.68429 18.8637 10.2117C19.3912 10.7392 19.6875 11.4545 19.6875 12.2005V15.013H14.0625V12.2005Z" fill="#ABBA16"/>
<path d="M59.885 17.3757C55.1647 8.63598 55.4692 8.94992 55.1331 8.71039C42.6914 -0.100467 43.2207 0.01297 42.6562 0.01297C15.4472 0.0787122 16.7974 -0.142069 16.3359 0.183712L12.2326 2.98953C12.0274 3.12987 11.8863 3.346 11.8404 3.59038C11.8176 3.71138 11.819 3.83567 11.8443 3.95616C11.8696 4.07664 11.9184 4.19097 11.9879 4.2926C12.0574 4.39423 12.1462 4.48118 12.2493 4.54848C12.3524 4.61578 12.4677 4.66212 12.5887 4.68485C12.8331 4.73074 13.0857 4.67769 13.2909 4.53735L16.869 2.09082L28.3132 10.0938L31.875 18.0261V37.513H26.25C26.25 19.2186 26.3466 20.4109 26.0298 20.0349C25.5142 19.4216 25.803 19.8189 8.4375 19.7005C8.42965 19.7005 8.42191 19.7014 8.41406 19.7016C8.28892 19.7043 8.1656 19.7322 8.05148 19.7837C7.95266 19.8288 7.86222 19.8903 7.78406 19.9658C7.69553 20.0515 7.62487 20.1539 7.57619 20.2671C7.52751 20.3803 7.50177 20.502 7.50047 20.6252C7.49953 20.7025 7.50047 33.6283 7.50047 37.5119H1.875V18.0222L5.43809 9.90629L7.09172 8.77555C7.19334 8.70605 7.28028 8.61722 7.34757 8.51412C7.41487 8.41102 7.46119 8.29568 7.48391 8.17468C7.50662 8.05368 7.50528 7.92939 7.47997 7.80891C7.45465 7.68842 7.40585 7.5741 7.33635 7.47248C7.26685 7.37086 7.17802 7.28392 7.07492 7.21663C6.97182 7.14934 6.85648 7.10301 6.73548 7.08029C6.61448 7.05758 6.49019 7.05892 6.3697 7.08424C6.24922 7.10955 6.1349 7.15836 6.03328 7.22785C4.23363 8.50906 4.01262 8.48903 3.8291 8.9075C-0.279492 18.266 0.0273047 17.5168 0.00515625 17.7274C0.00140625 17.7625 0.000585937 17.8136 0 17.8255V38.4505C0 38.6991 0.0987721 38.9376 0.274587 39.1134C0.450403 39.2892 0.68886 39.388 0.9375 39.388H59.0625C59.3111 39.388 59.5496 39.2892 59.7254 39.1134C59.9012 38.9376 60 38.6991 60 38.4505V17.8255C59.9988 17.6684 59.9593 17.5141 59.885 17.3757ZM23.1328 21.5755L16.875 28.1811L10.6172 21.5755H23.1328ZM9.375 22.9907L15.5836 29.5442L9.375 36.0977V22.9907ZM10.6172 37.513L16.875 30.9073L23.1328 37.513H10.6172ZM24.375 36.0977L18.1664 29.5442L24.375 22.9907V36.0977ZM31.7355 13.138H45.9375C46.1861 13.138 46.4246 13.0392 46.6004 12.8634C46.7762 12.6876 46.875 12.4491 46.875 12.2005C46.875 11.9518 46.7762 11.7134 46.6004 11.5376C46.4246 11.3617 46.1861 11.263 45.9375 11.263C42.237 11.263 30.9682 11.2618 30.8946 11.2652C29.9004 9.14703 29.9625 8.95871 29.5998 8.705L27.8952 7.51297H36.5625C36.8111 7.51297 37.0496 7.4142 37.2254 7.23838C37.4012 7.06257 37.5 6.82411 37.5 6.57547C37.5 6.32683 37.4012 6.08837 37.2254 5.91256C37.0496 5.73674 36.8111 5.63797 36.5625 5.63797C24.6047 5.63973 25.3114 5.63375 25.2206 5.64266L19.8516 1.88797H42.3559L47.6059 5.63797H44.0625C43.8139 5.63797 43.5754 5.73674 43.3996 5.91256C43.2238 6.08837 43.125 6.32683 43.125 6.57547C43.125 6.82411 43.2238 7.06257 43.3996 7.23838C43.5754 7.4142 43.8139 7.51297 44.0625 7.51297C49.9651 7.47781 49.7432 7.59031 50.0977 7.4177L53.8652 10.1088L54.4834 11.263H49.6875C49.4389 11.263 49.2004 11.3617 49.0246 11.5376C48.8488 11.7134 48.75 11.9518 48.75 12.2005C48.75 12.4491 48.8488 12.6876 49.0246 12.8634C49.2004 13.0392 49.4389 13.138 49.6875 13.138C55.6172 13.1319 55.3133 13.1522 55.4794 13.1223L57.4968 16.888H33.4193L31.7355 13.138ZM58.125 37.513H33.75V18.763H58.125V37.513Z" fill="#ABBA16"/>
<path d="M9.375 6.57547C9.89277 6.57547 10.3125 6.15574 10.3125 5.63797C10.3125 5.1202 9.89277 4.70047 9.375 4.70047C8.85723 4.70047 8.4375 5.1202 8.4375 5.63797C8.4375 6.15574 8.85723 6.57547 9.375 6.57547Z" fill="#ABBA16"/>
<path d="M40.3125 7.51297C40.8303 7.51297 41.25 7.09324 41.25 6.57547C41.25 6.0577 40.8303 5.63797 40.3125 5.63797C39.7947 5.63797 39.375 6.0577 39.375 6.57547C39.375 7.09324 39.7947 7.51297 40.3125 7.51297Z" fill="#ABBA16"/>
<path d="M36.5625 30.013H44.0625C44.3111 30.013 44.5496 29.9142 44.7254 29.7384C44.9012 29.5626 45 29.3241 45 29.0755V23.4505C45 23.2018 44.9012 22.9634 44.7254 22.7876C44.5496 22.6117 44.3111 22.513 44.0625 22.513H36.5625C36.3139 22.513 36.0754 22.6117 35.8996 22.7876C35.7238 22.9634 35.625 23.2018 35.625 23.4505V29.0755C35.625 29.3241 35.7238 29.5626 35.8996 29.7384C36.0754 29.9142 36.3139 30.013 36.5625 30.013ZM37.5 24.388H43.125V28.138H37.5V24.388Z" fill="#ABBA16"/>
<path d="M47.8125 30.013H55.3125C55.5611 30.013 55.7996 29.9142 55.9754 29.7384C56.1512 29.5626 56.25 29.3241 56.25 29.0755V23.4505C56.25 23.2018 56.1512 22.9634 55.9754 22.7876C55.7996 22.6117 55.5611 22.513 55.3125 22.513H47.8125C47.5639 22.513 47.3254 22.6117 47.1496 22.7876C46.9738 22.9634 46.875 23.2018 46.875 23.4505V29.0755C46.875 29.3241 46.9738 29.5626 47.1496 29.7384C47.3254 29.9142 47.5639 30.013 47.8125 30.013ZM48.75 24.388H54.375V28.138H48.75V24.388Z" fill="#ABBA16"/>
<path d="M36.5625 33.763H44.0625C44.3111 33.763 44.5496 33.6642 44.7254 33.4884C44.9012 33.3126 45 33.0741 45 32.8255C45 32.5768 44.9012 32.3384 44.7254 32.1626C44.5496 31.9867 44.3111 31.888 44.0625 31.888H36.5625C36.3139 31.888 36.0754 31.9867 35.8996 32.1626C35.7238 32.3384 35.625 32.5768 35.625 32.8255C35.625 33.0741 35.7238 33.3126 35.8996 33.4884C36.0754 33.6642 36.3139 33.763 36.5625 33.763Z" fill="#ABBA16"/>
<path d="M47.8125 33.763H55.3125C55.5611 33.763 55.7996 33.6642 55.9754 33.4884C56.1512 33.3126 56.25 33.0741 56.25 32.8255C56.25 32.5768 56.1512 32.3384 55.9754 32.1626C55.7996 31.9867 55.5611 31.888 55.3125 31.888H47.8125C47.5639 31.888 47.3254 31.9867 47.1496 32.1626C46.9738 32.3384 46.875 32.5768 46.875 32.8255C46.875 33.0741 46.9738 33.3126 47.1496 33.4884C47.3254 33.6642 47.5639 33.763 47.8125 33.763Z" fill="#ABBA16"/>
</svg>
