<svg width="56" height="50" viewBox="0 0 56 50" fill="none" xmlns="http://www.w3.org/2000/svg">
<path d="M32.7275 34.7591H33.3022C36.8311 34.7591 39.7022 32.1734 39.7022 28.9953C39.7022 25.8172 36.8311 23.2315 33.3022 23.2315H22.0963C21.4975 23.2315 21.012 23.6687 21.012 24.2081C21.012 30.0259 26.2675 34.7591 32.7275 34.7591ZM37.5335 28.9953C37.5335 31.0965 35.6353 32.806 33.3022 32.806H32.7275C29.9736 32.806 27.4884 31.7503 25.7443 30.0648C26.4074 30.2585 27.1138 30.3644 27.8476 30.3644H31.5912C32.1901 30.3644 32.6756 29.9271 32.6756 29.3878C32.6756 28.8484 32.1901 28.4112 31.5912 28.4112H27.8476C25.6476 28.4112 23.7994 27.0327 23.3092 25.1847H33.3022C35.6353 25.1847 37.5335 26.894 37.5335 28.9953Z" fill="rgb(204, 48, 75)"/>
<path d="M47.0099 12.3457C47.2116 12.1641 47.3276 11.9121 47.3276 11.6553C47.3276 11.3975 47.2116 11.1464 47.0099 10.9648C46.8082 10.7832 46.5284 10.6787 46.2432 10.6787C45.9569 10.6787 45.6783 10.7832 45.4766 10.9648C45.2738 11.1465 45.1588 11.3975 45.1588 11.6553C45.1588 11.9121 45.2738 12.1641 45.4766 12.3457C45.6783 12.5274 45.9569 12.6319 46.2432 12.6319C46.5284 12.632 46.8082 12.5274 47.0099 12.3457Z" fill="rgb(204, 48, 75)"/>
<path d="M55.4398 5.31728C55.2094 4.1873 54.5041 3.20576 53.4538 2.55352C52.4822 1.95 51.3242 1.69766 50.1778 1.82305C49.2787 0.695899 47.8127 0 46.2428 0C44.6727 0 43.2068 0.695899 42.3077 1.82305C41.1608 1.69756 40.003 1.9502 39.0315 2.55342C36.8636 3.9 36.3162 6.58379 37.8113 8.53633C38.3797 9.27861 39.1909 9.83115 40.1124 10.1338C39.906 10.7016 39.7929 11.307 39.7929 11.936V16.6105C39.7929 17.7841 38.7328 18.7389 37.4297 18.7389H22.7067V16.0817C22.7067 10.4437 17.6136 5.85693 11.3534 5.85693C5.09308 5.85693 0 10.4437 0 16.0817V23.1233C0 23.6627 0.485464 24.0999 1.08435 24.0999H12.8764V24.3527C12.8764 27.0838 13.6261 29.7931 15.0443 32.1877C15.3262 32.6637 15.983 32.8438 16.5113 32.5897C17.0397 32.3359 17.2395 31.7444 16.9577 31.2686C15.7065 29.1558 15.045 26.7644 15.045 24.3527V20.692H37.4297C39.9286 20.692 41.9616 18.861 41.9616 16.6105V11.936C41.9616 9.81016 43.882 8.08066 46.2425 8.08066C48.6031 8.08066 50.5234 9.81025 50.5234 11.936V13.4023C48.9135 13.8257 47.734 15.1671 47.734 16.752V24.3527C47.734 31.2045 42.35 37.2489 34.9321 38.7249C34.5537 38.8002 34.2487 39.0517 34.132 39.3845C33.6969 40.6255 32.687 41.6651 31.3894 42.2283C30.0919 41.6651 29.0819 40.6255 28.6469 39.3845C28.5302 39.0516 28.2252 38.8001 27.8468 38.7248C26.2396 38.4051 24.6993 37.8682 23.2685 37.129C22.7491 36.8606 22.0864 37.0224 21.7884 37.4902C21.4904 37.958 21.67 38.5549 22.1895 38.8232C23.6371 39.5711 25.1837 40.1362 26.795 40.5068C27.4717 41.9767 28.7308 43.2009 30.3051 43.9237V48.0469H28.2394C27.6405 48.0469 27.1551 48.4841 27.1551 49.0234C27.1551 49.5628 27.6405 50 28.2394 50H35.345C35.9439 50 36.4294 49.5628 36.4294 49.0234C36.4294 48.4841 35.9439 48.0469 35.345 48.0469H32.4738V43.9237C34.0482 43.2008 35.3072 41.9767 35.9839 40.5066C39.8037 39.6261 43.258 37.6359 45.7623 34.8617C48.4323 31.9038 49.9028 28.1717 49.9028 24.3527V16.752C49.9028 15.9052 50.6677 15.2163 51.6079 15.2163C52.2068 15.2163 52.6923 14.7791 52.6923 14.2397V11.936C52.6923 11.3069 52.5792 10.7016 52.3728 10.1338C53.2943 9.83115 54.1055 9.27861 54.674 8.53633C55.3984 7.59053 55.6702 6.44727 55.4398 5.31728ZM2.1687 16.0817C2.1687 11.5207 6.28891 7.81006 11.3534 7.81006C15.8785 7.81006 19.6471 10.7733 20.399 14.6578C19.0315 13.4622 17.1685 12.7239 15.1166 12.7239C10.9314 12.7239 7.52647 15.7903 7.52647 19.5596V22.1469H2.1687V16.0817ZM13.9608 18.7389C13.3619 18.7389 12.8764 19.1761 12.8764 19.7154V22.1468H9.69528V19.5595C9.69528 16.8673 12.1274 14.677 15.1167 14.677C17.7955 14.677 20.0252 16.4361 20.46 18.7388L13.9608 18.7389ZM52.8889 7.42744C52.519 7.91045 51.9609 8.24658 51.3363 8.3792C50.1553 7.01064 48.3119 6.12754 46.2428 6.12754C44.1736 6.12754 42.3302 7.01064 41.1491 8.3792C40.5245 8.24658 39.9664 7.91045 39.5966 7.42744C38.7804 6.36162 39.0792 4.89648 40.2627 4.16133C40.9258 3.74951 41.7488 3.6374 42.5207 3.854C43.0373 3.99902 43.5942 3.77842 43.8246 3.33711C44.2634 2.49639 45.2125 1.95322 46.2426 1.95322C47.2728 1.95322 48.2219 2.49639 48.6608 3.33711C48.8912 3.77852 49.4477 3.99893 49.9646 3.854C50.7363 3.6375 51.5594 3.74951 52.2225 4.16143C53.4062 4.89639 53.7049 6.36162 52.8889 7.42744Z" fill="rgb(204, 48, 75)"/>
<path d="M18.8775 34.3018C18.5923 34.3018 18.3125 34.4053 18.1108 34.5879C17.9091 34.7695 17.7931 35.0205 17.7931 35.2783C17.7931 35.5352 17.9091 35.7871 18.1108 35.9688C18.3125 36.1504 18.5923 36.2549 18.8775 36.2549C19.1627 36.2549 19.4424 36.1504 19.6441 35.9688C19.8458 35.7871 19.9618 35.5352 19.9618 35.2783C19.9618 35.0215 19.8458 34.7695 19.6441 34.5879C19.4424 34.4054 19.1627 34.3018 18.8775 34.3018Z" fill="rgb(204, 48, 75)"/>
</svg>
