<svg width="52" height="52" viewBox="0 0 52 52" fill="none" xmlns="http://www.w3.org/2000/svg">
<path d="M36.5116 26.612C36.4254 26.3175 36.204 26.077 35.9098 25.9693C35.8504 25.9477 35.369 25.7773 34.6214 25.668C37.8155 22.2692 36.7609 18.2984 36.5116 17.5229C36.4254 17.2283 36.204 16.9878 35.9098 16.8802C35.7727 16.83 33.3819 15.987 30.6581 16.935C30.8119 16.304 30.9019 15.6104 30.9019 14.8492C30.9019 9.97939 27.2141 7.83896 26.474 7.45898C26.2048 7.31152 25.8779 7.29805 25.5939 7.43008C25.4108 7.51514 21.1087 9.57402 21.1087 14.8492C21.1087 15.6119 21.199 16.307 21.3534 16.939C18.6248 15.9847 16.2276 16.8299 16.0903 16.8802C15.7961 16.9878 15.5747 17.2283 15.4885 17.5229C15.2392 18.2984 14.1846 22.2692 17.3787 25.668C16.6311 25.7773 16.1497 25.9477 16.0903 25.9693C15.7961 26.077 15.5746 26.3176 15.4884 26.6121C15.2339 27.4038 14.1396 31.5253 17.5831 34.9688C19.5759 36.9616 21.7876 37.437 23.4446 37.437C24.0581 37.437 24.5943 37.3717 25.0165 37.2941V43.6841C25.0165 44.2233 25.4537 44.6606 25.9931 44.6606C26.5324 44.6606 26.9696 44.2233 26.9696 43.6841V37.2917C27.3937 37.3702 27.9353 37.4369 28.5554 37.4369C30.2123 37.4369 32.4243 36.9613 34.4169 34.9688C37.8605 31.5251 36.7661 27.4037 36.5116 26.612ZM25.0165 34.2499C24.9948 34.6932 24.9326 35.0657 24.8731 35.3336C23.8293 35.5655 21.2176 35.8411 18.9643 33.5877C16.7448 31.3685 16.9774 28.8 17.2231 27.6793C17.8795 27.5366 19.1603 27.3776 20.5782 27.8378C20.6716 27.8728 20.7646 27.9058 20.8572 27.9365C21.6082 28.2213 22.3879 28.6861 23.1269 29.425C24.535 30.8331 24.9555 32.381 25.0165 33.5983V34.2499ZM25.0165 25.1609C24.9948 25.6042 24.9326 25.9768 24.8731 26.2445C24.2264 26.3884 22.9777 26.548 21.5854 26.1135C21.4443 26.0591 21.304 26.0096 21.1646 25.9647C20.4363 25.6771 19.6821 25.2165 18.9642 24.4986C16.7448 22.2793 16.9774 19.7109 17.2231 18.5903C18.266 18.3636 20.8851 18.0942 23.1269 20.336C23.1411 20.3503 23.154 20.3646 23.168 20.3788C23.2536 20.4749 23.3396 20.5668 23.4254 20.6551C24.5942 21.9745 24.9601 23.3833 25.0165 24.5094V25.1609ZM26.0068 20.2611C25.7008 20.0648 25.2598 19.7413 24.8118 19.2736C24.7661 19.2235 24.7199 19.1734 24.6725 19.1235C23.8565 18.2172 23.0617 16.8269 23.0617 14.8492C23.0617 11.6659 25.0988 10.0143 26.0003 9.43926C26.9657 10.057 28.9486 11.7087 28.9486 14.8492C28.9486 16.7154 28.2483 18.0545 27.4874 18.9596C27.3292 19.118 27.1812 19.2779 27.0416 19.4387C26.6512 19.8183 26.2772 20.0889 26.0068 20.2611ZM26.9757 24.8444C26.9743 23.698 27.2709 22.1808 28.4852 20.756C28.629 20.613 28.7736 20.4592 28.917 20.2938C31.1579 18.0896 33.7392 18.3589 34.7765 18.5884C35.0223 19.708 35.2564 22.278 33.0357 24.4986C32.3191 25.2153 31.5664 25.6755 30.8394 25.9634C30.6977 26.0089 30.555 26.0592 30.4114 26.1146C29.0193 26.5484 27.7715 26.3882 27.1272 26.2448C27.055 25.9193 26.9784 25.4413 26.9756 24.8693C26.9756 24.861 26.9757 24.8527 26.9757 24.8444ZM33.0357 33.5877C30.782 35.8415 28.1702 35.5654 27.1288 35.3344C26.9018 34.2955 26.6272 31.6709 28.8731 29.425C29.5917 28.7064 30.3465 28.2458 31.0754 27.9581C31.2145 27.9134 31.3544 27.8642 31.4951 27.8099C32.8844 27.3763 34.1302 27.5345 34.7765 27.6773C35.0223 28.7971 35.2564 31.3671 33.0357 33.5877Z" fill="rgb(204, 48, 75)"/>
<path d="M31.2105 1.54404C29.5083 1.18311 27.7552 1 26 1C19.3223 1 13.0442 3.60039 8.32236 8.32236C3.60049 13.0442 1 19.3223 1 26C1 31.5643 2.87207 36.9958 6.28281 41.3692C5.89912 41.9628 5.69258 42.6542 5.69258 43.3778C5.69258 44.369 6.07861 45.3009 6.77949 46.0019C7.48037 46.7027 8.4123 47.0888 9.40352 47.0888C10.3947 47.0888 11.3267 46.7027 12.0275 46.0019C12.7285 45.3009 13.1145 44.369 13.1145 43.3778C13.1145 42.3866 12.7284 41.4548 12.0275 40.7538C11.3267 40.0528 10.3947 39.6668 9.40352 39.6668C8.81602 39.6668 8.24971 39.8034 7.73965 40.0599C4.64863 36.0474 2.95312 31.0841 2.95312 26C2.95312 13.2919 13.2919 2.95312 26 2.95312C27.6193 2.95312 29.236 3.12188 30.8054 3.45469C31.3333 3.5665 31.8514 3.22949 31.9633 2.70195C32.0752 2.17432 31.7382 1.65596 31.2105 1.54404ZM8.16055 42.1348C8.50322 41.792 8.95332 41.6207 9.40352 41.6207C9.85371 41.6207 10.3038 41.7921 10.6465 42.1348C10.9785 42.4667 11.1613 42.9082 11.1613 43.3777C11.1613 43.8473 10.9785 44.2887 10.6465 44.6207C9.96113 45.3062 8.8459 45.3061 8.16055 44.6207C7.82852 44.2888 7.6457 43.8473 7.6457 43.3777C7.6457 42.9082 7.82852 42.4668 8.16055 42.1348Z" fill="rgb(204, 48, 75)"/>
<path d="M45.7172 10.6308C46.1009 10.0372 46.3074 9.3458 46.3074 8.62217C46.3074 7.63096 45.9214 6.69902 45.2205 5.99814C44.5196 5.29717 43.5877 4.91123 42.5965 4.91123C41.6053 4.91123 40.6733 5.29727 39.9725 5.99814C39.2716 6.69902 38.8855 7.63096 38.8855 8.62217C38.8855 9.61338 39.2716 10.5453 39.9725 11.2462C40.6733 11.9472 41.6053 12.3331 42.5965 12.3331C43.1841 12.3331 43.7503 12.1965 44.2604 11.94C47.3514 15.9526 49.0469 20.9159 49.0469 26C49.0469 38.7081 38.7081 49.0469 26 49.0469C24.6329 49.0469 23.2632 48.9264 21.9289 48.6886C21.3982 48.5941 20.8907 48.9476 20.7962 49.4787C20.7016 50.0097 21.0553 50.5168 21.5862 50.6114C23.0334 50.8692 24.5184 51 26 51C32.6777 51 38.9558 48.3995 43.6777 43.6777C48.3997 38.956 51 32.6777 51 26C51 20.4357 49.1279 15.0042 45.7172 10.6308ZM43.8396 9.86514C43.5076 10.1972 43.0661 10.38 42.5966 10.38C42.1271 10.38 41.6855 10.1973 41.3536 9.86514C40.6682 9.17978 40.6682 8.06465 41.3536 7.3792C41.6855 7.04717 42.1271 6.86436 42.5966 6.86436C43.0661 6.86436 43.5075 7.04717 43.8396 7.3792C44.1716 7.71113 44.3544 8.15264 44.3544 8.62217C44.3544 9.0917 44.1716 9.53311 43.8396 9.86514Z" fill="rgb(204, 48, 75)"/>
<path d="M17.4193 47.3967L17.0506 48.301L17.4166 47.3956C16.9163 47.1937 16.3474 47.435 16.1452 47.935C15.9431 48.435 16.1846 49.0042 16.6846 49.2064L16.7147 49.2184C16.8299 49.2624 16.9484 49.2833 17.065 49.2833C17.4584 49.2833 17.8302 49.0452 17.979 48.6568C18.172 48.153 17.923 47.5896 17.4193 47.3967Z" fill="rgb(204, 48, 75)"/>
<path d="M35.3578 2.81084L35.3404 2.80391C34.8397 2.60352 34.2714 2.84717 34.071 3.34795C33.8706 3.84873 34.1143 4.41689 34.615 4.61729L34.6262 4.62178C34.7461 4.67022 34.8698 4.69307 34.9917 4.69307C35.378 4.69307 35.7438 4.4623 35.8975 4.08213C36.0995 3.58203 35.8579 3.01289 35.3578 2.81084Z" fill="rgb(204, 48, 75)"/>
<path d="M36.5116 26.612C36.4254 26.3175 36.204 26.077 35.9098 25.9693C35.8504 25.9477 35.369 25.7773 34.6214 25.668C37.8155 22.2692 36.7609 18.2984 36.5116 17.5229C36.4254 17.2283 36.204 16.9878 35.9098 16.8802C35.7727 16.83 33.3819 15.987 30.6581 16.935C30.8119 16.304 30.9019 15.6104 30.9019 14.8492C30.9019 9.97939 27.2141 7.83896 26.474 7.45898C26.2048 7.31152 25.8779 7.29805 25.5939 7.43008C25.4108 7.51514 21.1087 9.57402 21.1087 14.8492C21.1087 15.6119 21.199 16.307 21.3534 16.939C18.6248 15.9847 16.2276 16.8299 16.0903 16.8802C15.7961 16.9878 15.5747 17.2283 15.4885 17.5229C15.2392 18.2984 14.1846 22.2692 17.3787 25.668C16.6311 25.7773 16.1497 25.9477 16.0903 25.9693C15.7961 26.077 15.5746 26.3176 15.4884 26.6121C15.2339 27.4038 14.1396 31.5253 17.5831 34.9688C19.5759 36.9616 21.7876 37.437 23.4446 37.437C24.0581 37.437 24.5943 37.3717 25.0165 37.2941V43.6841C25.0165 44.2233 25.4537 44.6606 25.9931 44.6606C26.5324 44.6606 26.9696 44.2233 26.9696 43.6841V37.2917C27.3937 37.3702 27.9353 37.4369 28.5554 37.4369C30.2123 37.4369 32.4243 36.9613 34.4169 34.9688C37.8605 31.5251 36.7661 27.4037 36.5116 26.612ZM25.0165 34.2499C24.9948 34.6932 24.9326 35.0657 24.8731 35.3336C23.8293 35.5655 21.2176 35.8411 18.9643 33.5877C16.7448 31.3685 16.9774 28.8 17.2231 27.6793C17.8795 27.5366 19.1603 27.3776 20.5782 27.8378C20.6716 27.8728 20.7646 27.9058 20.8572 27.9365C21.6082 28.2213 22.3879 28.6861 23.1269 29.425C24.535 30.8331 24.9555 32.381 25.0165 33.5983V34.2499ZM25.0165 25.1609C24.9948 25.6042 24.9326 25.9768 24.8731 26.2445C24.2264 26.3884 22.9777 26.548 21.5854 26.1135C21.4443 26.0591 21.304 26.0096 21.1646 25.9647C20.4363 25.6771 19.6821 25.2165 18.9642 24.4986C16.7448 22.2793 16.9774 19.7109 17.2231 18.5903C18.266 18.3636 20.8851 18.0942 23.1269 20.336C23.1411 20.3503 23.154 20.3646 23.168 20.3788C23.2536 20.4749 23.3396 20.5668 23.4254 20.6551C24.5942 21.9745 24.9601 23.3833 25.0165 24.5094V25.1609ZM26.0068 20.2611C25.7008 20.0648 25.2598 19.7413 24.8118 19.2736C24.7661 19.2235 24.7199 19.1734 24.6725 19.1235C23.8565 18.2172 23.0617 16.8269 23.0617 14.8492C23.0617 11.6659 25.0988 10.0143 26.0003 9.43926C26.9657 10.057 28.9486 11.7087 28.9486 14.8492C28.9486 16.7154 28.2483 18.0545 27.4874 18.9596C27.3292 19.118 27.1812 19.2779 27.0416 19.4387C26.6512 19.8183 26.2772 20.0889 26.0068 20.2611ZM26.9757 24.8444C26.9743 23.698 27.2709 22.1808 28.4852 20.756C28.629 20.613 28.7736 20.4592 28.917 20.2938C31.1579 18.0896 33.7392 18.3589 34.7765 18.5884C35.0223 19.708 35.2564 22.278 33.0357 24.4986C32.3191 25.2153 31.5664 25.6755 30.8394 25.9634C30.6977 26.0089 30.555 26.0592 30.4114 26.1146C29.0193 26.5484 27.7715 26.3882 27.1272 26.2448C27.055 25.9193 26.9784 25.4413 26.9756 24.8693C26.9756 24.861 26.9757 24.8527 26.9757 24.8444ZM33.0357 33.5877C30.782 35.8415 28.1702 35.5654 27.1288 35.3344C26.9018 34.2955 26.6272 31.6709 28.8731 29.425C29.5917 28.7064 30.3465 28.2458 31.0754 27.9581C31.2145 27.9134 31.3544 27.8642 31.4951 27.8099C32.8844 27.3763 34.1302 27.5345 34.7765 27.6773C35.0223 28.7971 35.2564 31.3671 33.0357 33.5877Z" stroke="rgb(204, 48, 75)"/>
<path d="M31.2105 1.54404C29.5083 1.18311 27.7552 1 26 1C19.3223 1 13.0442 3.60039 8.32236 8.32236C3.60049 13.0442 1 19.3223 1 26C1 31.5643 2.87207 36.9958 6.28281 41.3692C5.89912 41.9628 5.69258 42.6542 5.69258 43.3778C5.69258 44.369 6.07861 45.3009 6.77949 46.0019C7.48037 46.7027 8.4123 47.0888 9.40352 47.0888C10.3947 47.0888 11.3267 46.7027 12.0275 46.0019C12.7285 45.3009 13.1145 44.369 13.1145 43.3778C13.1145 42.3866 12.7284 41.4548 12.0275 40.7538C11.3267 40.0528 10.3947 39.6668 9.40352 39.6668C8.81602 39.6668 8.24971 39.8034 7.73965 40.0599C4.64863 36.0474 2.95312 31.0841 2.95312 26C2.95312 13.2919 13.2919 2.95312 26 2.95312C27.6193 2.95312 29.236 3.12188 30.8054 3.45469C31.3333 3.5665 31.8514 3.22949 31.9633 2.70195C32.0752 2.17432 31.7382 1.65596 31.2105 1.54404ZM8.16055 42.1348C8.50322 41.792 8.95332 41.6207 9.40352 41.6207C9.85371 41.6207 10.3038 41.7921 10.6465 42.1348C10.9785 42.4667 11.1613 42.9082 11.1613 43.3777C11.1613 43.8473 10.9785 44.2887 10.6465 44.6207C9.96113 45.3062 8.8459 45.3061 8.16055 44.6207C7.82852 44.2888 7.6457 43.8473 7.6457 43.3777C7.6457 42.9082 7.82852 42.4668 8.16055 42.1348Z" stroke="rgb(204, 48, 75)"/>
<path d="M45.7172 10.6308C46.1009 10.0372 46.3074 9.3458 46.3074 8.62217C46.3074 7.63096 45.9214 6.69902 45.2205 5.99814C44.5196 5.29717 43.5877 4.91123 42.5965 4.91123C41.6053 4.91123 40.6733 5.29727 39.9725 5.99814C39.2716 6.69902 38.8855 7.63096 38.8855 8.62217C38.8855 9.61338 39.2716 10.5453 39.9725 11.2462C40.6733 11.9472 41.6053 12.3331 42.5965 12.3331C43.1841 12.3331 43.7503 12.1965 44.2604 11.94C47.3514 15.9526 49.0469 20.9159 49.0469 26C49.0469 38.7081 38.7081 49.0469 26 49.0469C24.6329 49.0469 23.2632 48.9264 21.9289 48.6886C21.3982 48.5941 20.8907 48.9476 20.7962 49.4787C20.7016 50.0097 21.0553 50.5168 21.5862 50.6114C23.0334 50.8692 24.5184 51 26 51C32.6777 51 38.9558 48.3995 43.6777 43.6777C48.3997 38.956 51 32.6777 51 26C51 20.4357 49.1279 15.0042 45.7172 10.6308ZM43.8396 9.86514C43.5076 10.1972 43.0661 10.38 42.5966 10.38C42.1271 10.38 41.6855 10.1973 41.3536 9.86514C40.6682 9.17978 40.6682 8.06465 41.3536 7.3792C41.6855 7.04717 42.1271 6.86436 42.5966 6.86436C43.0661 6.86436 43.5075 7.04717 43.8396 7.3792C44.1716 7.71113 44.3544 8.15264 44.3544 8.62217C44.3544 9.0917 44.1716 9.53311 43.8396 9.86514Z" stroke="rgb(204, 48, 75)"/>
<path d="M17.4193 47.3967L17.0506 48.301L17.4166 47.3956C16.9163 47.1937 16.3474 47.435 16.1452 47.935C15.9431 48.435 16.1846 49.0042 16.6846 49.2064L16.7147 49.2184C16.8299 49.2624 16.9484 49.2833 17.065 49.2833C17.4584 49.2833 17.8302 49.0452 17.979 48.6568C18.172 48.153 17.923 47.5896 17.4193 47.3967Z" stroke="rgb(204, 48, 75)"/>
<path d="M35.3578 2.81084L35.3404 2.80391C34.8397 2.60352 34.2714 2.84717 34.071 3.34795C33.8706 3.84873 34.1143 4.41689 34.615 4.61729L34.6262 4.62178C34.7461 4.67022 34.8698 4.69307 34.9917 4.69307C35.378 4.69307 35.7438 4.4623 35.8975 4.08213C36.0995 3.58203 35.8579 3.01289 35.3578 2.81084Z" stroke="rgb(204, 48, 75)"/>
</svg>




 