<svg xmlns="http://www.w3.org/2000/svg" xmlns:xlink="http://www.w3.org/1999/xlink" version="1.2" baseProfile="tiny" x="0px" y="0px" viewBox="0 0 128 160" overflow="scroll" xml:space="preserve"><g><circle fill="none" stroke="#000000" stroke-width="4" stroke-linecap="round" stroke-linejoin="round" stroke-miterlimit="10" cx="64" cy="64" r="62"/><path  d="M64,7C32.5,7,7,32.5,7,64s25.5,57,57,57s57-25.5,57-57S95.5,7,64,7z M65.9,82.5c-0.1-0.4-0.3-0.8-0.6-1.1   c0.3-0.3,0.6-0.7,0.7-1.1c0.2-1.1,0.7-2.3,1.5-3.4c2.4-3.5,6.3-5,8.2-4c0.6,0.3,1,0.8,1.2,1.6c0.4,1.6-0.2,3.7-1.5,5.7   c-2.4,3.5-6.3,5-8.2,4C66.6,83.9,66.1,83.3,65.9,82.5z M66,88v5.8c0,1.1-0.9,2-2,2s-2-0.9-2-2V88c0.2-0.1,0.4-0.1,0.6-0.2   c0.5-0.3,1-0.6,1.4-1c0.4,0.4,0.9,0.7,1.4,1C65.6,87.9,65.8,88,66,88z M76.4,69c-3.2-1-7.2,0.4-10.3,3.5C66,71.8,65.9,71.3,66,71   c0.2-1.1,0.7-2.3,1.5-3.4c2.4-3.5,6.3-5,8.2-4c0.6,0.3,1,0.8,1.2,1.5C77.2,66.2,77,67.5,76.4,69z M62,28.2c0-1.1,0.9-2,2-2   s2,0.9,2,2v12.7c-0.6-0.2-1.3-0.3-2-0.3s-1.4,0.1-2,0.3V28.2z M64,44.7c2.8,0,5,3,5,6.6c0,0.1,0,0.1,0,0.2c-1.8,1-3.5,2.6-4.8,4.5   c0,0.1-0.1,0.1-0.1,0.2c0-0.1-0.1-0.1-0.1-0.2c-1.3-1.9-3-3.5-4.8-4.5c0-0.1,0-0.1,0-0.2C59,47.6,61.2,44.7,64,44.7z M51.2,55.7   c0.2-0.7,0.6-1.2,1.2-1.5c0.5-0.2,1-0.3,1.6-0.3v-4V43v-5c0-1.1,0.9-2,2-2s2,0.9,2,2v5v0.4v12.2c0.9,0.7,1.8,1.5,2.6,2.6   c0.7,1.1,1.3,2.3,1.5,3.4c0.2,0.9,1,1.6,2,1.6s1.8-0.7,2-1.6c0.2-1.1,0.7-2.3,1.5-3.4c0.7-1.1,1.6-2,2.6-2.6V43.4V42v-4   c0-1.1,0.9-2,2-2s2,0.9,2,2v4v7.9v4c0.6,0,1.2,0,1.6,0.3c0.6,0.3,1,0.8,1.2,1.5c0.3,1.1,0.1,2.5-0.5,3.9c-3.9-1.2-9.1,1.2-12.2,5.7   c0,0.1-0.1,0.1-0.1,0.2c0-0.1-0.1-0.1-0.1-0.2c-3.1-4.6-8.3-6.9-12.2-5.7C51,58.2,50.8,56.8,51.2,55.7z M51.1,65.1   c0.2-0.7,0.6-1.2,1.2-1.5c1.9-0.9,5.8,0.5,8.2,4c0.7,1.1,1.3,2.3,1.5,3.4c0.1,0.3,0,0.8-0.1,1.5c-3.1-3-7.1-4.4-10.3-3.5   C51,67.5,50.8,66.2,51.1,65.1z M51.1,74.5c0.2-0.8,0.6-1.3,1.2-1.6c0.4-0.2,0.8-0.3,1.4-0.3c2,0,4.9,1.5,6.8,4.3   c0.7,1.1,1.3,2.3,1.5,3.4c0.1,0.5,0.3,0.8,0.7,1.1c-0.3,0.3-0.5,0.6-0.6,1.1c-0.2,0.8-0.6,1.4-1.2,1.7c-1.9,0.9-5.8-0.5-8.2-4   C51.3,78.2,50.7,76.1,51.1,74.5z M112.1,76.8c0.6,0.2,1.1,0.8,1.2,1.4c0.2,0.6,0,1.3-0.4,1.8c-0.5,0.6-5.2,5.7-10.1,5.7   c-0.1,0-0.1,0-0.2,0c-1.2,0-2.4-0.4-3.4-1.1c-0.6,1-1.3,2-2,3c3.6,0.6,6.9,2.7,7.4,3.1c0.5,0.4,0.9,1,0.9,1.6   c0,0.7-0.3,1.3-0.8,1.7c-0.6,0.4-5,3.5-9.3,3.5c-0.7,0-1.3-0.1-2-0.2c-1.3-0.4-2.4-1.1-3.3-2.1c-3.8,3-8.1,5.2-12.9,6.6   c-0.6,0.2-1.2,0.3-1.9,0.5c-2.5,0.7-5.2,1.4-7.6,2.5c1.5,1.4,2.8,3.1,3.6,5.2c0.4,1-0.1,2.2-1.2,2.6c-0.2,0.1-0.5,0.1-0.7,0.1   c-0.8,0-1.6-0.5-1.9-1.3c-0.7-1.9-2-3.3-3.6-4.5c-1.6,1.2-2.9,2.6-3.6,4.5c-0.3,0.8-1.1,1.3-1.9,1.3c-0.2,0-0.5,0-0.7-0.1   c-1-0.4-1.6-1.5-1.2-2.6c0.8-2.1,2.1-3.8,3.6-5.2c-2.5-1.1-5.2-1.8-7.6-2.5c-0.6-0.2-1.3-0.3-1.9-0.5C46,100.3,41.7,98,37.9,95   c-0.9,1-2,1.8-3.3,2.1c-0.7,0.2-1.3,0.2-2,0.2c-4.3,0-8.8-3.1-9.3-3.5c-0.5-0.4-0.8-1-0.8-1.7c0-0.7,0.3-1.3,0.9-1.6   c0.5-0.3,3.8-2.5,7.4-3.1c-0.7-1-1.4-1.9-2-3c-1,0.7-2.1,1-3.4,1.1c-0.1,0-0.1,0-0.2,0c-4.9,0-9.5-5.1-10.1-5.7   c-0.4-0.5-0.6-1.2-0.4-1.8c0.2-0.6,0.6-1.2,1.2-1.4c0.6-0.2,5-1.8,8.9-1.2c-0.3-1-0.5-2-0.7-3c-0.7,0.2-1.4,0.4-2.1,0.4   c-0.6,0-1.2-0.1-1.9-0.3c-4.8-1.4-7.6-7.9-7.9-8.7c-0.3-0.6-0.2-1.3,0.2-1.9c0.4-0.6,1-0.9,1.6-0.9c0.7,0,5.8-0.1,9.4,2   c0-1.2,0.1-2.4,0.3-3.6c-1.8-0.2-3.3-1.1-4.3-2.4c-3.1-3.9-1.7-10.9-1.6-11.7c0.1-0.6,0.6-1.2,1.2-1.4c0.6-0.3,1.3-0.2,1.8,0.2   c0.5,0.3,3.5,2.3,5.5,5.2c0.5-1.3,1.1-2.5,1.7-3.7c-1.5-0.9-2.5-2.2-2.9-3.8c-1.3-4.8,2.6-10.7,3.1-11.4c0.4-0.5,1-0.9,1.6-0.9   s1.3,0.3,1.6,0.9c0.3,0.4,2.1,3.1,2.9,6.2c0.7-0.7,1.4-1.4,2.2-2.1c-0.3-1.6-0.1-3.1,0.7-4.4c2.4-4.3,9.4-5.7,10.2-5.9   c0.6-0.1,1.3,0.1,1.8,0.6c0.5,0.5,0.7,1.1,0.6,1.8c-0.1,0.8-1.5,7.8-5.9,10.2c-1,0.6-2,0.8-3.2,0.8c-0.5,0-1-0.1-1.5-0.2   c-7.4,6.5-12,16.7-12,27c0,15.3,10.1,28.9,24.7,33.1c0.6,0.2,1.2,0.3,1.8,0.5c3.2,0.9,7,1.9,10.3,3.7c3.3-1.8,7.1-2.9,10.3-3.7   c0.6-0.2,1.2-0.3,1.8-0.5c14.5-4.1,24.7-17.7,24.7-33.1c0-10.3-4.6-20.6-12-27c-0.5,0.1-1,0.2-1.5,0.2c-1.1,0-2.2-0.3-3.2-0.8   c-4.3-2.4-5.7-9.4-5.9-10.2c-0.1-0.6,0.1-1.3,0.6-1.8c0.5-0.5,1.1-0.7,1.8-0.6c0.8,0.1,7.8,1.5,10.2,5.9c0.8,1.4,1,2.9,0.7,4.4   c0.8,0.7,1.5,1.3,2.2,2.1c0.8-3.1,2.6-5.8,2.9-6.2c0.4-0.5,1-0.9,1.6-0.9s1.3,0.3,1.6,0.9c0.5,0.7,4.4,6.6,3.1,11.4   c-0.5,1.6-1.5,2.9-2.9,3.8c0.6,1.2,1.2,2.4,1.7,3.7c2-2.9,5.1-4.9,5.5-5.2c0.6-0.4,1.2-0.4,1.8-0.2c0.6,0.3,1,0.8,1.2,1.4   c0.2,0.8,1.5,7.8-1.6,11.7c-1.1,1.3-2.6,2.2-4.3,2.4c0.2,1.2,0.3,2.4,0.3,3.6c3.6-2.1,8.7-2,9.4-2c0.7,0,1.3,0.4,1.6,0.9   c0.4,0.6,0.4,1.2,0.2,1.9c-0.3,0.7-3.2,7.2-7.9,8.7c-0.6,0.2-1.2,0.3-1.9,0.3c-0.7,0-1.4-0.1-2.1-0.4c-0.2,1-0.5,2-0.7,3   C107.1,75,111.5,76.5,112.1,76.8z"/></g></svg>