<svg xmlns="http://www.w3.org/2000/svg" viewBox="0 0 128 160" x="0px" y="0px"><g><path d="M84.682,37.382a.243.243,0,0,0,.142.044.248.248,0,0,0,.136-.04,2.8,2.8,0,0,0,1.257-2.492q0-.658-.016-1.313c-.009-.566-.017-1.132-.017-1.7,0-.332.007-.664.014-1,.014-.629.028-1.28-.009-1.927a.843.843,0,0,0-.9-.711.25.25,0,0,0-.25.263,9,9,0,0,1-.217,2.146,9.248,9.248,0,0,0-.188,1.4c-.017.587.016,1.216.049,1.824a12.473,12.473,0,0,1-.1,3.246A.249.249,0,0,0,84.682,37.382Z"/><path d="M78.771,29.423c.413-.4.4-.729.309-.936-.342-.811-2.352-.93-2.73-.918-.3.007-.626.009-.956.011a15.618,15.618,0,0,0-3.768.32c-.645.179-1.756.667-1.828,1.369-.039.381.219.718.765,1a.551.551,0,0,1,.229.214.252.252,0,0,0,.213.123c1.658.013,3.312.053,5,.1a.575.575,0,0,1,.257.066.365.365,0,0,0,.179.03,2.121,2.121,0,0,0,.691-.11.24.24,0,0,0,.062-.031.646.646,0,0,1,.209-.094.245.245,0,0,0,.058-.024,5.95,5.95,0,0,0,1.159-.964Z"/><path d="M76.542,53.994c.109,2.242.222,4.561.257,6.846a.25.25,0,0,0,.25.246l.028,0,.181-.02c.184-.019.368-.039.553-.071.006,0,.1,0,.108,0a.25.25,0,0,0,.249-.274c-.075-.753-.143-2.483-.143-2.65a59.95,59.95,0,0,0-.354-6.428c-.046-.5-.091-1.006-.133-1.5-.233-2.685-.342-5.534-.342-8.966,0-.874.029-1.752.059-2.681a36.893,36.893,0,0,0-.164-6.445.25.25,0,0,0-.277-.212,4.036,4.036,0,0,1-.832.006.255.255,0,0,0-.2.075.252.252,0,0,0-.068.205A119.563,119.563,0,0,1,76.3,46.479c0,.81.013,1.614.038,2.463a10.374,10.374,0,0,1,.133,1.374,8.88,8.88,0,0,1-.041,1.284Q76.482,52.8,76.542,53.994Z"/><path d="M67.534,65.1a.259.259,0,0,0,.112-.026.145.145,0,0,1,.066-.022h6.309a.249.249,0,0,0,.186-.083.253.253,0,0,0,.063-.194c-.1-.881-.145-1.567-.156-2.224a.25.25,0,0,0-.226-.244c-.713-.071-1.427-.155-2.141-.238-1.275-.15-2.593-.3-3.9-.38a.241.241,0,0,0-.264.23,23.152,23.152,0,0,1-.373,2.766.249.249,0,0,0,.133.343l.107-.223h0l-.047.261A.256.256,0,0,0,67.534,65.1Z"/><path d="M35.655,62.323a10.081,10.081,0,0,0,.469-2.536,10.4,10.4,0,0,1,.369-2.1,10.042,10.042,0,0,0,.4-2.7.25.25,0,0,0-.133-.21.247.247,0,0,0-.249.009,12.477,12.477,0,0,0-4,4.595,14.529,14.529,0,0,0-.626,1.969c-.121.448-.245.913-.393,1.349a.248.248,0,0,0,.031.224.253.253,0,0,0,.2.107c.241.005.478.009.71.009a6.685,6.685,0,0,0,3.087-.557A.249.249,0,0,0,35.655,62.323Z"/><path d="M74.812,70.707V67.589a3.017,3.017,0,0,1,.138-1.108.247.247,0,0,0-.031-.247.244.244,0,0,0-.23-.1,5.562,5.562,0,0,1-1.439-.106,6.79,6.79,0,0,0-.982-.109H69.384a.25.25,0,0,0-.167.437,9.525,9.525,0,0,1,1.37,1.5c.395.536.812,1.082,1.237,1.639.835,1.094,1.7,2.226,2.489,3.4a.251.251,0,0,0,.208.11A.267.267,0,0,0,74.613,73a.251.251,0,0,0,.155-.274,5.64,5.64,0,0,1,0-1.245C74.793,71.211,74.812,70.95,74.812,70.707Zm-.25-3.076Z"/><path d="M77.239,79.9a.249.249,0,0,0,.248.225h1.788c.206,0,.4,0,.485-.176a.317.317,0,0,0-.075-.346.25.25,0,0,1-.078-.153l.007-1.617a.25.25,0,0,0-.082-.182.233.233,0,0,0-.19-.067c-.184.011-.448.052-.752.1a12.29,12.29,0,0,1-1.461.172.248.248,0,0,0-.192.1.252.252,0,0,0-.041.214,11.818,11.818,0,0,1,.29,1.36C77.206,79.648,77.226,79.773,77.239,79.9Z"/><path d="M80.965,72.465a.248.248,0,0,0,.064.192.254.254,0,0,0,.185.081l.2.007a1.022,1.022,0,0,1,.409.076.26.26,0,0,0,.1.02.25.25,0,0,0,.25-.252c-.008-1.1-.032-2.012-.076-2.86a.248.248,0,0,0-.224-.236,4.494,4.494,0,0,1-2.031-.611,2.223,2.223,0,0,1-.642-1.713.308.308,0,0,0-.256-.237c-.028,0-.068-.012-.079-.016a.15.15,0,0,0-.116-.028l-.239,0c-.623.006-1.328.014-1.886-.01l-.145-.006c-.263-.013-.468-.023-.623.125a.814.814,0,0,0-.17.631v3.6c0,.32,0,.681.021,1.029a.249.249,0,0,0,.214.232,1.236,1.236,0,0,1,.126.03l.064.009c.1.013.2.025.3.032a.262.262,0,0,0,.188-.068.256.256,0,0,0,.078-.184c-.008-.879.03-1.308.419-1.725a1.949,1.949,0,0,1,1.693-.323,6.016,6.016,0,0,0,.667.081,1.917,1.917,0,0,1,1.313.425c.328.333.263,1,.207,1.595Z"/><path d="M73.22,79.062a.245.245,0,0,0-.228.055c-.047.041-.1.087-.166.137-.369.3-.927.746-.728,1.326a.837.837,0,0,0,.944.7c.031,0,.064.014.1,0,.179-.007.371-.007.557,0a.265.265,0,0,0,.206-.095.255.255,0,0,0,.044-.223c-.184-.649-.364-1.219-.553-1.743A.252.252,0,0,0,73.22,79.062Z"/><path d="M75.536,65.858a.241.241,0,0,0,.15.051.274.274,0,0,0,.069-.01,6.179,6.179,0,0,1,1.533-.2.251.251,0,0,0,.244-.256c-.013-.5.025-1.02.062-1.52.021-.283.042-.566.054-.846a.251.251,0,0,0-.086-.2.248.248,0,0,0-.212-.056c-.432.085-.869.151-1.245.207-.262.039-.5.074-.677.108a.25.25,0,0,0-.2.262c.044.673.116,1.4.217,2.19,0,.013,0,.055,0,.068A.247.247,0,0,0,75.536,65.858Z"/><path d="M76.946,76.718h.013c.258-.013.517-.026.781-.034s.54-.05.808-.086.544-.074.819-.084a.159.159,0,0,1,.031,0,.249.249,0,0,0,.25-.243c.021-.743.041-1.492.041-2.234a.251.251,0,0,0-.24-.25c-.717-.027-1.427-.054-2.13-.1a.242.242,0,0,0-.188.067.251.251,0,0,0-.079.183v.8a1.7,1.7,0,0,1-.11.488,2.161,2.161,0,0,0-.136.626.522.522,0,0,1-.094.286.418.418,0,0,0-.038.214.863.863,0,0,0,.035.2A.25.25,0,0,0,76.946,76.718Z"/><path d="M74.177,52.327c.11.11.245.108.431.1l.166,0a1.894,1.894,0,0,1,.26.018l.035,0a.249.249,0,0,0,.25-.238c.008-.165.02-.339.033-.521.022-.31.045-.639.049-.987-.007-.181-.014-.356-.027-.511a1.652,1.652,0,0,0-.016-.277l-.02-.163a5.921,5.921,0,0,0-.18-.994.257.257,0,0,0-.271-.172.2.2,0,0,1-.242.055c-.11,0-.238,0-.357-.007a.266.266,0,0,0-.074.007l-.069.02a.251.251,0,0,0-.249.28,25.268,25.268,0,0,1,.176,2.768V51.9A.529.529,0,0,0,74.177,52.327Z"/><path d="M18.771,85.369a6.957,6.957,0,0,0,.026,1.987.521.521,0,0,1,.011.143.249.249,0,0,0,.216.273c.5.066,1.053.11,1.633.132h.009a.25.25,0,0,0,.25-.262,6.835,6.835,0,0,1,.015-.714c.01-.184.02-.368.02-.548,0-.361.016-.733.032-1.107a16.052,16.052,0,0,0,.008-1.912.251.251,0,0,0-.146-.209,3.4,3.4,0,0,0-1.445-.13c-.123.006-.219,0-.322.012h-.09a.305.305,0,0,0-.266.154.278.278,0,0,0,.063.289.246.246,0,0,1,.042.169v.72C18.827,84.689,18.8,85.02,18.771,85.369Z"/><path d="M35.013,65.151a7.825,7.825,0,0,1,.147-.99.252.252,0,0,0-.074-.232.246.246,0,0,0-.235-.06c-.279.073-.552.14-.8.179a12.029,12.029,0,0,1-2.286.064c-.208-.007-.416-.014-.622-.018a.228.228,0,0,0-.24.164,11.285,11.285,0,0,0-.364,1.169.249.249,0,0,0,.243.31h.005a24.674,24.674,0,0,0,4.02-.36A.251.251,0,0,0,35.013,65.151Z"/><path d="M33.823,86.541h0a.25.25,0,0,0,.25-.247c.007-.517.028-1.027.054-1.524a.247.247,0,0,0-.064-.181.249.249,0,0,0-.173-.082c-.167-.008-.392-.021-.654-.036-3.463-.2-3.813-.116-3.924.16a6.877,6.877,0,0,1-.8,1.3c-.158.218-.315.437-.459.662a.25.25,0,0,0,.211.385h.966a6.45,6.45,0,0,0,1.529-.241c.2-.047.395-.095.593-.134a8.758,8.758,0,0,1,1.838-.071C33.406,86.533,33.616,86.54,33.823,86.541Z"/><path d="M43.737,70.039a1.459,1.459,0,0,0,.186-.016.251.251,0,0,0,.141-.071,1.748,1.748,0,0,1,.745-.408c.168-.06.292-.252.688-1.064.07-.145.126-.263.152-.3.574-.835,2.342-.837,2.883-.816a.515.515,0,0,1,.263.082.251.251,0,0,0,.258,0,5.8,5.8,0,0,1,2.328-.609c.415-.045.688-.067.836-.067a.25.25,0,0,0,.21-.114.244.244,0,0,0,.04-.134c.029-.061.054-.119.079-.174a1.151,1.151,0,0,1,.4-.565,2.842,2.842,0,0,1,.24-.153l.055-.032a.251.251,0,0,0-.075-.46,13.548,13.548,0,0,0-2.862-.252A14.529,14.529,0,0,0,48.7,65a7.455,7.455,0,0,1-2.707-.021.485.485,0,0,1-.239-.169.256.256,0,0,0-.209-.085.248.248,0,0,0-.193.116,7.889,7.889,0,0,0-.89,1.856c-.113.376-.248.741-.381,1.1a11.3,11.3,0,0,0-.585,1.945.256.256,0,0,0,.055.2A.251.251,0,0,0,43.737,70.039Z"/><path d="M39.41,71.2c.552-.407.59-.487.59-1.234,0-.6-.371-.748-.7-.879-.058-.023-.119-.047-.184-.076a5.592,5.592,0,0,0-2.234-.5.738.738,0,0,0-.536.261,1.8,1.8,0,0,0-.16,1.319l.019.151c.02.232.033.479.047.732a9.441,9.441,0,0,0,.263,2.062.248.248,0,0,0,.15.164.256.256,0,0,0,.09.017.253.253,0,0,0,.133-.038,13.073,13.073,0,0,0,1.485-1.144c.314-.267.639-.543.976-.792Z"/><path d="M25.92,82.636a.25.25,0,0,0,.246-.2l.049-.218c.066-.385.122-.785.179-1.189a14.429,14.429,0,0,1,.734-3.322,11.105,11.105,0,0,0,.647-1.893.251.251,0,0,0-.227-.3c-.443-.033-.9-.067-1.336-.135a.252.252,0,0,0-.285.207c-.036.224-.06.448-.084.672a7.01,7.01,0,0,1-.171,1.077,15.3,15.3,0,0,1-.509,1.462c-.14.36-.279.721-.4,1.09-.077.239-.147.482-.219.726a13.923,13.923,0,0,1-.532,1.586.25.25,0,0,0,.22.349c.559.02,1.11.048,1.669.089Z"/><path d="M21.559,90.074a.251.251,0,0,0,.212.138c.079,0,.247.164.319.233a2.456,2.456,0,0,0,1.535.375,3.675,3.675,0,0,0,1.455-.24,3.675,3.675,0,0,0,1.587-1.592.25.25,0,0,0-.019-.248.239.239,0,0,0-.224-.109c-1.054.071-2.135.041-3.18.015-.466-.013-.932-.025-1.4-.029a.682.682,0,0,0-.114.027.892.892,0,0,1-.143-.042.9.9,0,0,0-.321-.075h-.02a.252.252,0,0,0-.243.313,3.175,3.175,0,0,0,.407.974C21.461,89.894,21.51,89.975,21.559,90.074Z"/><path d="M34.294,80.969c0-.354.012-.708.024-1.062a15.093,15.093,0,0,0-.039-2.288,4.063,4.063,0,0,0-.225-.84,3.114,3.114,0,0,1-.219-.907,1.758,1.758,0,0,1,.276-.969.247.247,0,0,0-.007-.278c-.061-.087-.125-.172-.189-.258a3.66,3.66,0,0,1-.366-.545c-.264-.528-.557-1-.84-1.465a.4.4,0,0,0-.217-.133A21.59,21.59,0,0,0,27.571,70.9a.248.248,0,0,0-.213.073.251.251,0,0,0-.068.214,4.942,4.942,0,0,0,1,1.916,6.44,6.44,0,0,1,.9,1.529.256.256,0,0,0,.05.086.64.64,0,0,1,.045.794.24.24,0,0,0-.057.1,6.754,6.754,0,0,1-.526,1.176,6.145,6.145,0,0,0-.524,1.184c-.427,1.587-.8,3.218-1.165,4.8-.277,1.2-.554,2.411-.856,3.612a.251.251,0,0,0,.029.193.255.255,0,0,0,.159.113,1.473,1.473,0,0,1,.153.048.238.238,0,0,0,.079.013A.251.251,0,0,0,26.8,86.6a6.826,6.826,0,0,1,.728-1.128c.106-.142.208-.28.3-.412a5.39,5.39,0,0,0,.276-.483,2.233,2.233,0,0,1,.626-.862,1.771,1.771,0,0,1,1.306-.213,6.565,6.565,0,0,0,.688.043h3.234a.25.25,0,0,0,.249-.234C34.259,82.453,34.294,81.726,34.294,80.969Z"/><path d="M24.03,93.02a5.848,5.848,0,0,0,2.407.614,4.989,4.989,0,0,0,2.468-.74,9.169,9.169,0,0,0,4.226-5.006.25.25,0,0,0-.023-.237.236.236,0,0,0-.211-.11c-.151,0-.3,0-.45,0a4.324,4.324,0,0,0-1.247.089,9.394,9.394,0,0,1-2.565.219h-.461a.249.249,0,0,0-.25.253l0,.334,0,.01a4.42,4.42,0,0,1-2.678,3.274,6.739,6.739,0,0,1-2.038.178.245.245,0,0,0-.245.149.25.25,0,0,0,.056.281A3.714,3.714,0,0,0,24.03,93.02Z"/><path d="M23.783,83.6c-.1,0-.24-.014-.4-.029l-.211-.018a.259.259,0,0,0-.126.022.439.439,0,0,1-.389-.016.431.431,0,0,0-.156-.028.25.25,0,0,0-.25.25v2.3a4.09,4.09,0,0,1-.054.569c-.023.162-.046.324-.055.488-.006.088-.028.238-.034.3a.24.24,0,0,0-.2.22v.007a.262.262,0,0,0,.263.25c.017,0,.03-.011.045-.014s.028.014.044.014h.007c.759-.021,1.623-.07,2.311-.131a.251.251,0,0,0,.227-.249,6.522,6.522,0,0,1,.578-2.238c.161-.423.328-.861.448-1.3a.251.251,0,0,0-.224-.315C24.983,83.642,24.373,83.6,23.783,83.6Z"/><path d="M113.33,56.459a.255.255,0,0,0,.039.134,4.863,4.863,0,0,1,.666,1.507c.01.03.019.053.021.058a.251.251,0,0,0,.154.231l.166.065c.062.023.123.045.195.076.112.04.219.088.325.135.073.032.146.064.22.094a.243.243,0,0,0,.094.019.249.249,0,0,0,.2-.1c.055-.075.116-.178.184-.293.168-.281.421-.706.663-.776a1.022,1.022,0,0,1,.373-.007.251.251,0,0,0,.25-.367c-.02-.036-.036-.071-.053-.106-.026-.056-.052-.11-.082-.162a.286.286,0,0,0-.046-.058,20.049,20.049,0,0,0-4.977-2.862,9.775,9.775,0,0,0-1.3-.429.25.25,0,0,0-.171.468,10.875,10.875,0,0,1,2.907,2.009A.5.5,0,0,1,113.33,56.459Z"/><path d="M88.149,73.8a.25.25,0,0,0-.231-.249c-.231-.018-.464-.039-.7-.06a9.315,9.315,0,0,0-3.774.168.25.25,0,0,0-.172.238c0,1-.009,2-.017,3s-.017,1.989-.017,2.982a.25.25,0,0,0,.25.25h4.7a.25.25,0,0,0,.18-.077.253.253,0,0,0,.07-.183c-.029-.759-.08-1.513-.131-2.267-.047-.688-.093-1.377-.122-2.068C88.163,74.928,88.149,74.355,88.149,73.8Z"/><path d="M41.135,71.449a.245.245,0,0,0-.3.06,3.521,3.521,0,0,1-.76.589,6.509,6.509,0,0,0-.594.416c-.214.175-.422.351-.667.557a.25.25,0,0,0,.161.441h.768a.235.235,0,0,1,.061.013l.063.016a.329.329,0,0,0,.054.005.248.248,0,0,0,.158-.056,5.119,5.119,0,0,1,1.045-.673.25.25,0,0,0,.14-.265,2.3,2.3,0,0,1,.005-.829A.25.25,0,0,0,41.135,71.449Z"/><path d="M41.5,70.031a.774.774,0,0,0,.087.026.247.247,0,0,0,.161.071,2.058,2.058,0,0,1,.336.042.251.251,0,0,0,.3-.212A14.357,14.357,0,0,1,43.23,66.9c.1-.275.2-.55.291-.825a10.26,10.26,0,0,1,1.143-2.151l.265-.417a.253.253,0,0,0,.006-.255.238.238,0,0,0-.222-.128,7.923,7.923,0,0,0-4.076,1.067,28.063,28.063,0,0,1-5.125,2.358.224.224,0,0,0-.053-.02.251.251,0,0,0-.281.13,4.019,4.019,0,0,1-.843,1.031,4.758,4.758,0,0,0-.865,1.036c-.377.67-.724,1.351-1.059,2.008a.253.253,0,0,0-.011.2.245.245,0,0,0,.147.143,4.65,4.65,0,0,1,.522.226.474.474,0,0,1,.159.125.256.256,0,0,0,.107.07.484.484,0,0,1,.25.223c.066.107.137.21.208.314a4.185,4.185,0,0,1,.325.528c.052.1.1.2.151.306a5.984,5.984,0,0,0,.289.55c.112.183.232.352.359.529a.249.249,0,0,0,.2.1.244.244,0,0,0,.1-.019c.054-.022.113-.044.171-.066l.091-.034a.249.249,0,0,0,.148-.309,8.63,8.63,0,0,1-.293-1.66c-.021-.186-.042-.374-.067-.565l-.033-.247a6.743,6.743,0,0,1-.008-2.681,1.25,1.25,0,0,1,.6-.814c.88-.492,2.439-.038,3.371.234l.116.034A2.3,2.3,0,0,1,41.134,69.8a.249.249,0,0,0,.222.208A.859.859,0,0,1,41.5,70.031Z"/><path d="M70.011,75.315a.856.856,0,0,0,.715.263c.052,0,.1,0,.151,0a.247.247,0,0,0,.133-.048,1.746,1.746,0,0,1,.435-.226.249.249,0,0,0,.146-.133.246.246,0,0,0,0-.2c-.271-.655-.521-1.217-.766-1.719a.25.25,0,0,0-.2-.139.26.26,0,0,0-.222.092.482.482,0,0,1-.057.05.246.246,0,0,0-.089.146.983.983,0,0,1-.047.152C69.842,74.381,69.772,74.974,70.011,75.315Z"/><path d="M88.73,67.049a.249.249,0,0,0-.19-.092c-2.816-.043-5.629-.024-8.007,0a.249.249,0,0,0-.244.289l.018.126c.013.095.026.19.046.279a.612.612,0,0,0,.021.071.251.251,0,0,0,.094.286.86.86,0,0,0,.291.137,6.98,6.98,0,0,0,1.759.319.493.493,0,0,1,.5.446A.226.226,0,0,0,83.05,69a.544.544,0,0,1,.1.273c.063,1.024.09,2.045.109,3a.251.251,0,0,0,.25.245.232.232,0,0,0,.059-.007,11.733,11.733,0,0,1,3.683-.086q.332.029.659.052a.262.262,0,0,0,.184-.063.25.25,0,0,0,.084-.177,32.73,32.73,0,0,1,.6-4.977A.253.253,0,0,0,88.73,67.049Z"/><path d="M56.343,65.38c5.271-.474,9.3.034,13.1,4.02a19.192,19.192,0,0,1,3.265,5.547c.235.524.469,1.045.711,1.553a27.962,27.962,0,0,1,2.24,7.211.251.251,0,0,0,.164.193.256.256,0,0,0,.082.013.243.243,0,0,0,.165-.063c1.816-1.607-2.16-9.581-2.207-9.655l-.109-.175C71.8,70.891,69.12,66.6,65.64,65.435l-.8-.267c-4.72-1.578-10.069-3.369-15.127-1.852a.25.25,0,0,0,.072.49h.432a16.852,16.852,0,0,1,2.434.1,8.122,8.122,0,0,1,3.522,1.426A.242.242,0,0,0,56.343,65.38Z"/><path d="M107.129,55.743a.583.583,0,0,1,.711.02,3.533,3.533,0,0,1,.636.754,3.988,3.988,0,0,0,.657.787c.129.115.4.239,1.275.239.155,0,.329,0,.525-.012a.25.25,0,0,0,.221-.157.254.254,0,0,0,.017-.115c.011-.117.1-.636.192-.991a.25.25,0,0,0-.116-.278,21.574,21.574,0,0,0-7.2-2.06.152.152,0,0,1-.115-.039.244.244,0,0,0-.233-.029,7.14,7.14,0,0,0-.947.442c-.476.276-.944.565-1.4.855a.25.25,0,0,0,.128.461c.218.005.437.014.651.023.331.012.652.025.943.025.362,0,.712,0,1.058-.009a15.592,15.592,0,0,1,2.821.122A.241.241,0,0,0,107.129,55.743Z"/><path d="M98.188,75.227a.253.253,0,0,0,.14-.2l.082-.932a.25.25,0,0,0-.357-.248,9.072,9.072,0,0,0-1.334.843c-.256.183-.5.362-.751.512a10.389,10.389,0,0,0-2.55,2.446A19.142,19.142,0,0,1,90,81a.25.25,0,0,0-.1.275c.2.688.463,1.358.718,2.006.126.321.252.642.37.963a.248.248,0,0,0,.184.158.222.222,0,0,0,.051.006.251.251,0,0,0,.181-.078,7.755,7.755,0,0,0,.715-.926c.127-.183.249-.359.368-.509.556-.7,1.092-1.4,1.627-2.115.129-.17.262-.358.4-.554a12.178,12.178,0,0,1,1.179-1.489.251.251,0,0,0,.072-.2,4.851,4.851,0,0,1,0-.661c.006-.129.01-.257.01-.383a1.264,1.264,0,0,1,.656-1.273,3.715,3.715,0,0,0,.417-.269,2.856,2.856,0,0,1,.376-.241Z"/><path d="M100.323,63.594c.144.049.288.084.432.119l.2.05a.253.253,0,0,0,.284-.123c.628-1.17,1.739-3.361,1.75-3.383a.253.253,0,0,0-.22-.362c-.087,0-.176-.005-.266-.005-2.819,0-7.132,1.62-8.729,3.841a.285.285,0,0,0-.031.06,14.682,14.682,0,0,0-.683,2.46.4.4,0,0,1-.18.291.257.257,0,0,0-.111.153.417.417,0,0,1-.468.358c-.72-.028-1.448-.048-2.175-.062a.359.359,0,0,0-.185.1.33.33,0,0,0-.079.209,26.071,26.071,0,0,0-.464,5.151.251.251,0,0,0,.223.25h.027a.249.249,0,0,0,.244-.2,7.509,7.509,0,0,1,2.376-4.081,15.584,15.584,0,0,1,6.767-3.443.251.251,0,0,0,.193-.246,1.354,1.354,0,0,1,.466-1.059A.662.662,0,0,1,100.323,63.594Z"/><path d="M97.705,72.309a7.1,7.1,0,0,1-.932-.464.251.251,0,0,0-.229-.02,9.914,9.914,0,0,0-3.862,2.851,14.722,14.722,0,0,0-1.8,2.476.239.239,0,0,0-.03.113,2.092,2.092,0,0,1-.2.957.251.251,0,0,0,.4.289c.138-.144.276-.283.417-.405a13.087,13.087,0,0,0,1.292-1.4,13.927,13.927,0,0,1,1.123-1.237,13.645,13.645,0,0,1,3.853-2.683.243.243,0,0,0,.137-.237A.284.284,0,0,0,97.705,72.309Z"/><path d="M99.81,66.163A.253.253,0,0,0,99.7,66a.246.246,0,0,0-.191-.033,15.62,15.62,0,0,0-5.688,2.569,7.323,7.323,0,0,0-3.075,6.041.249.249,0,0,0,.162.245.244.244,0,0,0,.088.016.248.248,0,0,0,.2-.094,13.151,13.151,0,0,1,1.056-1.177,11.721,11.721,0,0,1,3.793-2.695.253.253,0,0,0,.112-.095.815.815,0,0,1,.128-.161.259.259,0,0,0,.07-.108,1.437,1.437,0,0,1,1.626-1.163c.184,0,.412-.012,1.74-2.517l-.206-.145.22.12A.91.91,0,0,0,99.81,66.163Z"/><path d="M96.433,44.837c1.051-1.167,1.114-1.27,1.074-1.454l-.135-.614A50.65,50.65,0,0,1,95.965,34a.25.25,0,0,0-.25-.241,2.024,2.024,0,0,1-1.163-.385,3.416,3.416,0,0,1-1.142-2.834.251.251,0,0,0-.2-.229,6.719,6.719,0,0,0-1.482-.025c-.187.01-.356.02-.489.02H87.708a.249.249,0,0,0-.25.247c-.007.6-.047,1.208-.086,1.8-.043.642-.082,1.249-.079,1.8a5.338,5.338,0,0,1-1.189,3.91,3.839,3.839,0,0,1-2.826.957.258.258,0,0,0-.1.018,2.211,2.211,0,0,1-2.445-.717,5.336,5.336,0,0,1-.675-2.765c-.03-.373-.057-.713-.1-.978v0c-.226-1.32-.4-2.481-.526-3.55a.25.25,0,0,0-.153-.2.256.256,0,0,0-.251.035,4.936,4.936,0,0,1-.789.517.25.25,0,0,0-.13.263,53.822,53.822,0,0,1,.34,10.769,53.189,53.189,0,0,0,.393,11.187c.31,1.736.964,6.025.346,8.362a.642.642,0,0,1-.29.341.252.252,0,0,0-.108.215,16.112,16.112,0,0,1-.113,2.1c-.036.359-.067.67-.072.889a.251.251,0,0,0,.228.255c.3.026.483.053.522.056a.179.179,0,0,1,.1.037.245.245,0,0,0,.143.045h0c1.944-.02,3.909-.034,5.868-.034a.25.25,0,0,0,.249-.226C86.522,57.213,89.8,51.619,95.45,49a.248.248,0,0,0,.138-.286,4.472,4.472,0,0,1-.065-2.814A13.885,13.885,0,0,1,96.433,44.837Z"/><path d="M40.664,59.646a35.868,35.868,0,0,1,6.523-2.811.247.247,0,0,0,.158-.143,10.011,10.011,0,0,0,.985-3.515.25.25,0,0,0-.09-.185.245.245,0,0,0-.2-.054l-.358.055a42.972,42.972,0,0,0-4.718.909h0c-.943.261-1.284,1.3-1.584,2.209A6.516,6.516,0,0,1,41,57.1a7.9,7.9,0,0,0-.7,2.289.252.252,0,0,0,.366.262Z"/><path d="M53.54,46.249h.021c.422-.036.921-.074,1.42-.081a.249.249,0,0,0,.241-.2.38.38,0,0,1,.043-.111l.005-.01a22.935,22.935,0,0,0,1.636-5.706c.144-.729.285-1.444.446-2.123.416-1.775.781-3.591,1.1-5.193a.253.253,0,0,0-.065-.224.257.257,0,0,0-.221-.072c-.461.076-.922.165-1.377.255a.249.249,0,0,0-.2.19l-.24,1.065c-.886,3.945-1.8,8.024-3.056,11.88a.249.249,0,0,0,.042.232A.251.251,0,0,0,53.54,46.249Z"/><path d="M37.193,85.675a.4.4,0,0,1,.057-.072.25.25,0,0,0,.059-.256l-.137-.4c-.187-.542-.372-1.079-.548-1.609a4.054,4.054,0,0,1-.2-2.518c.362-.763,1.015-.876,1.919-1.03h.007c.014,0,.069-.007.081-.011a.252.252,0,0,0,.2-.1.249.249,0,0,0,.035-.224,10,10,0,0,1-.59-3.459,1.657,1.657,0,0,1,.318-.924.25.25,0,0,0-.232-.391c-.37.04-.739.089-1.109.137-.386.051-.774.1-1.163.143a.585.585,0,0,0-.333.158.251.251,0,0,0-.077.127.42.42,0,0,1-.106.179.249.249,0,0,0-.053.09,7.292,7.292,0,0,0,.01,2.577c.022.175.039.3.039.359,0,1.4-.058,2.8-.114,4.163s-.112,2.743-.109,4.079a.527.527,0,0,0-.01.081.25.25,0,0,0,.179.239.256.256,0,0,0,.071.011.25.25,0,0,0,.21-.115,1.12,1.12,0,0,1,.579-.406A1.878,1.878,0,0,0,37.193,85.675Z"/><path d="M75.478,61.2a.251.251,0,0,0,.246-.253c-.02-2.254-.083-4.578-.193-7.1-.005-.1-.133-.207-.23-.241a2.252,2.252,0,0,0-.894-.116,1.2,1.2,0,0,1-.931-.236A1.748,1.748,0,0,1,73,51.922a27.134,27.134,0,0,0-.173-3,1.086,1.086,0,0,1,.384-1.113,2.891,2.891,0,0,1,1.767-.314.254.254,0,0,0,.2-.065.247.247,0,0,0,.08-.2c-.013-.251-.027-.509-.034-.763-.056-1.505-.075-3.055-.094-4.554a85.549,85.549,0,0,0-.51-9.963.25.25,0,0,0-.243-.218,94.792,94.792,0,0,0-14.547.537.251.251,0,0,0-.212.2c-.191.931-.432,1.895-.665,2.826a43.027,43.027,0,0,0-.989,4.686,23.009,23.009,0,0,1-1.529,5.892.249.249,0,0,0,.216.349c2.273.116,4.957.234,7.637.234a1.043,1.043,0,0,1,.394.071.208.208,0,0,0,.1.017.4.4,0,0,1,.329.167c1.3,1.5,1.559,3.989,1.793,6.182.086.81.168,1.576.3,2.27a27.621,27.621,0,0,1,.448,5.2.25.25,0,0,0,.235.251c.965.06,1.94.166,2.884.268a40.559,40.559,0,0,0,4.391.317C75.264,61.2,75.371,61.2,75.478,61.2Z"/><path d="M83.719,30.517a10.268,10.268,0,0,0,.163-1.632.994.994,0,0,0-.763-1.065,2.345,2.345,0,0,0-2.185.87.5.5,0,0,1-.17.186.257.257,0,0,0-.077.077c-.065.1-.134.2-.2.3l-.092.134a.246.246,0,0,0-.043.162c.146,1.643.41,3.528.764,5.452.032.163.073.33.114.5.063.26.129.529.156.738a.933.933,0,0,0,.328.894.853.853,0,0,0,.5.139,3,3,0,0,0,1.177-.33.252.252,0,0,0,.146-.221l.021-.808c0-.441-.01-.885-.019-1.329a24.687,24.687,0,0,1,.079-3.321C83.642,31.02,83.68,30.77,83.719,30.517Z"/><path d="M18.739,92.794l.029.079a.243.243,0,0,0,.084.111.545.545,0,0,1,.184.241c.13.332.568.6.954.835a3.673,3.673,0,0,1,.37.243l.158.122c.321.247.761.584.813.946a1.039,1.039,0,0,1,.01.274.251.251,0,0,0,.1.219,3.522,3.522,0,0,0,.683.417c.124.054.257.106.393.158a2.829,2.829,0,0,1,1.055.581,1.218,1.218,0,0,1,.274.446.25.25,0,0,0,.211.164l.206.02c.42.042.816.082,1.213.082a4.385,4.385,0,0,0,1.864-.389,4.862,4.862,0,0,1,1.129-.287,7.743,7.743,0,0,0,.855-.181c2.29-.676,5.07-2.321,6.007-4.914a.544.544,0,0,1,.281-.313.249.249,0,0,0,.117-.342c-.079-.15-.151-.3-.247-.5a6.015,6.015,0,0,1-.113-3.252.26.26,0,0,0-.129-.29.227.227,0,0,0-.29.063.521.521,0,0,0-.091.078.529.529,0,0,1-.308.17.32.32,0,0,0-.2.225l-.02.064c-.115.288-.217.561-.315.824a6.713,6.713,0,0,1-1.987,3.2,15.29,15.29,0,0,1-4.5,2.9c-1.038.4-2.63-.006-4.732-1.21-1.158-.659-1.806-2.049-2.432-3.393-.206-.442-.4-.859-.612-1.262a.242.242,0,0,0-.249-.172,10.191,10.191,0,0,1-1.3-.013.244.244,0,0,0-.216.093.252.252,0,0,0-.043.232,1.273,1.273,0,0,1,.067.732.612.612,0,0,1-.393.408.25.25,0,0,0-.072.412A6.069,6.069,0,0,1,18.739,92.794Z"/><path d="M20.356,81.913a.252.252,0,0,0,.189.119,2.241,2.241,0,0,1,1.29.445.252.252,0,0,0,.167.064.2.2,0,0,0,.042,0,3.415,3.415,0,0,1,.461-.044.251.251,0,0,0,.192-.1,7.31,7.31,0,0,0,.955-2.436,11.777,11.777,0,0,1,.41-1.344,12.307,12.307,0,0,0,.661-2.53c.049-.265.1-.531.154-.8a.25.25,0,0,0-.188-.294,9.994,9.994,0,0,0-1.5-.2,6.083,6.083,0,0,1-2.1-.418.252.252,0,0,0-.256.029.248.248,0,0,0-.094.238c.051.319.115.636.18.954a9.552,9.552,0,0,1,.276,2.338,11.535,11.535,0,0,1-.86,3.761A.254.254,0,0,0,20.356,81.913Z"/><path d="M36.367,64.977a.265.265,0,0,0,.074-.011,11.884,11.884,0,0,0,2.86-1.295c2.555-1.608,5.6-2.018,9.318-1.248a.236.236,0,0,0,.115,0,.456.456,0,0,1,.185-.008.249.249,0,0,0,.118-.01,19.062,19.062,0,0,1,11.281.167c.5.15,1,.291,1.494.431a36.391,36.391,0,0,1,4.064,1.321.255.255,0,0,0,.214-.011.249.249,0,0,0,.127-.172,26.263,26.263,0,0,0-.26-9.736c-.054-.26-.093-.548-.126-.847a.254.254,0,0,0-.12-.187.246.246,0,0,0-.219-.019,56.233,56.233,0,0,1-8.777,2.339c-1.715.36-3.488.732-5.185,1.187a51.791,51.791,0,0,0-14.6,6.229.454.454,0,0,1-.315.081.252.252,0,0,0-.277.2c-.1.491-.172.922-.216,1.318a.252.252,0,0,0,.09.22A.246.246,0,0,0,36.367,64.977Z"/><path d="M25.133,66.774l.049.139a7.118,7.118,0,0,1,.32.815l.1.283c0,.008.034.072.037.08a1.686,1.686,0,0,0,.147.261c.111.167.226.326.339.484a7.9,7.9,0,0,1,.488.728.246.246,0,0,0,.2.125,4.27,4.27,0,0,1,1.072.188c.658.21,1.373.362,2.064.509.364.078.73.156,1.09.242a.238.238,0,0,0,.059.007.249.249,0,0,0,.225-.141l.161-.337a12.537,12.537,0,0,1,1.236-2.208c.2-.261.434-.514.655-.748a.25.25,0,0,0-.206-.421,29.835,29.835,0,0,1-4.279.088,14.948,14.948,0,0,1-2.8-.484c-.247-.06-.494-.119-.742-.175a.242.242,0,0,0-.237.073.249.249,0,0,0-.058.241C25.075,66.608,25.1,66.689,25.133,66.774Z"/><path d="M29.151,65.723h.016a.249.249,0,0,0,.245-.2c.063-.316.146-.647.255-1.011a.25.25,0,0,0-.222-.321c-1.38-.1-2.85-.2-4.32-.22a.606.606,0,0,1-.147-.037.24.24,0,0,0-.13,0,6.606,6.606,0,0,1-.984.138.248.248,0,0,0-.187.112.253.253,0,0,0-.029.216l.109.318a.25.25,0,0,0,.209.173c.749.091,1.494.239,2.215.384A22.288,22.288,0,0,0,29.151,65.723Z"/><path d="M79.88,72.478l.021-.208a5.773,5.773,0,0,0,.042-.6.249.249,0,0,0-.25-.25h-.115c-.066,0-.132,0-.2,0a4.872,4.872,0,0,1-.7-.091l-.119-.027a2.436,2.436,0,0,0-.476-.08c-.131-.018-.25.147-.263.277s-.03.271-.047.367a3.42,3.42,0,0,0-.031.544.251.251,0,0,0,.247.25c.552.007,1.092.021,1.631.041h.009A.25.25,0,0,0,79.88,72.478Z"/><path d="M96.832,85.583a.259.259,0,0,0-.216.1A18.426,18.426,0,0,0,94.825,88.5a22.688,22.688,0,0,0-1.208,3.355c-.139.46-.279.923-.433,1.39a.554.554,0,0,1-.524.407A5.074,5.074,0,0,1,89.8,92.632a.426.426,0,0,0-.109-.048.689.689,0,0,1-.091-.029.251.251,0,0,0-.348.262.975.975,0,0,0,.094.355,5.038,5.038,0,0,0,.261.439c.075.117.151.234.219.364.048.094.1.187.155.279a3.068,3.068,0,0,1,.242.483.246.246,0,0,0,.158.155c1.049.346,2.173.711,3.288,1.044l.072.021c.6.178,1.2.356,1.811.522l.03.006.118.019a.184.184,0,0,0,.041,0,.25.25,0,0,0,.247-.213,10.183,10.183,0,0,1,2.7-5.68.252.252,0,0,0,.068-.16,1.623,1.623,0,0,1,.178-.7l.144-.281a6.661,6.661,0,0,1,.7-1.183.252.252,0,0,0,.025-.28c-.038-.066-.079-.15-.133-.255l-.116-.229c-.23-.461-.342-.736-.406-.893-.073-.179-.117-.288-.257-.331a.324.324,0,0,0-.278.059.792.792,0,0,1-.5.116,1.282,1.282,0,0,1-1.085-.772A.25.25,0,0,0,96.832,85.583Z"/><path d="M83.068,89.014a6.559,6.559,0,0,1-1.038-.151.427.427,0,0,1-.349-.308.25.25,0,0,0-.162-.172.451.451,0,0,1-.157-.1,5.369,5.369,0,0,1-.521-.546l-.125-.142a.25.25,0,0,0-.177-.084.28.28,0,0,0-.184.069c-1.5,1.443-3.756,1.377-6.127,1.172a.264.264,0,0,0-.191.065.248.248,0,0,0-.081.184,6.321,6.321,0,0,1-.118,1.021,7.752,7.752,0,0,0-.108.792.512.512,0,0,1-.323.461.25.25,0,0,0-.1.087.494.494,0,0,1-.31.211c-.455.112-1.158.577-1.24,1.129a.755.755,0,0,0,.437.78,1.707,1.707,0,0,1,.7.661c.236.46.046.768-.283,1.232l-.134.192a.25.25,0,0,0-.012.256.254.254,0,0,0,.22.134c.2,0,.4.007.6.007s.409,0,.605-.014c.4-.009.57-.461.7-.791a1.871,1.871,0,0,1,.09-.214c.293-.566,1.2-.557,1.872-.545l.235,0,.1.027a.316.316,0,0,0,.065.007.6.6,0,0,1,.623.531,2.946,2.946,0,0,0,.106.4.251.251,0,0,0,.359.143,4.627,4.627,0,0,0,.447-.29l.095-.066c.238-.164.125-.47.058-.654-.012-.032-.024-.061-.028-.077-.075-.468.013-.736.3-.923a3.225,3.225,0,0,1,.621-.281,4,4,0,0,0,.661-.3c.142-.086.282-.174.421-.262a6.546,6.546,0,0,1,1.173-.64.735.735,0,0,1,.165-.037.33.33,0,0,0,.075-.019,1.182,1.182,0,0,1,.123-.041.249.249,0,0,0,.191-.243,1.491,1.491,0,0,1,.169-.553l.051-.117c.089-.212.184-.421.279-.63.152-.334.309-.678.439-1.032a.251.251,0,0,0-.217-.336Z"/><path d="M87.762,87.932a17.373,17.373,0,0,0,2.437-.015.25.25,0,0,0,.224-.249.476.476,0,0,1,.01-.077A5.458,5.458,0,0,0,89.45,83.8a6.256,6.256,0,0,1-.972-2.577.25.25,0,0,0-.25-.233H83.522a.25.25,0,0,0-.182.078.254.254,0,0,0-.068.186l.012.189c.118,2,.107,3.238-1.542,3.65a.25.25,0,0,0-.189.258,3.578,3.578,0,0,1-.118,1.292.331.331,0,0,0,.087.282c.2.212.4.425.626.629a.5.5,0,0,1,.13.162.252.252,0,0,0,.174.133,7.838,7.838,0,0,0,1.534.129c.445,0,.9-.022,1.341-.043C86.173,87.9,86.94,87.9,87.762,87.932Z"/><path d="M97.9,79.7a.251.251,0,0,0-.209-.216,8.432,8.432,0,0,0-.991-.1.247.247,0,0,0-.175.072,7.249,7.249,0,0,0-.742.909c-.115.158-.226.309-.331.438-.275.334-.53.683-.786,1.032-.223.3-.446.609-.681.9-.226.276-.449.591-.679.915a7.168,7.168,0,0,1-1.748,1.944.252.252,0,0,0-.112.255,5.761,5.761,0,0,1,.022,2.063.824.824,0,0,1-.032.1l-.022.06a.251.251,0,0,0,0,.158.542.542,0,0,1-.024.438.421.421,0,0,1-.306.19A15.593,15.593,0,0,1,87.71,89l-.551-.017a.312.312,0,0,0-.223.125.251.251,0,0,0,0,.255,5.474,5.474,0,0,0,1.021,1.117c.145.13.282.255.4.374a2.561,2.561,0,0,0,1.2.584c.147.042.294.083.433.133a.241.241,0,0,0,.063.015.541.541,0,0,1,.312.139,4.576,4.576,0,0,0,1.681.766.222.222,0,0,0,.057.007.251.251,0,0,0,.24-.181c.086-.3.166-.593.247-.893A12.963,12.963,0,0,1,93.9,87.944c.734-1.179,1.574-2.438,2.643-3.962a.248.248,0,0,0,.045-.135,2.35,2.35,0,0,1,.06-.49c.095-.348.561-.733,1.3-1.081C98.161,82.19,98.206,82.172,97.9,79.7Z"/><path d="M64.223,88.584c-.25,2.812-1.131,6.581-3.9,8.573a.25.25,0,0,0,.146.453.151.151,0,0,0,.03,0,8.4,8.4,0,0,0,2.408-.7.24.24,0,0,0,.068-.046c2.973-2.773,4.567-9.789,3.279-14.437-.748-2.7-2.342-4.385-4.609-4.869a.256.256,0,0,0-.273.126.25.25,0,0,0,.045.3C64.151,80.677,64.468,85.914,64.223,88.584Z"/><path d="M34.343,97.539a.253.253,0,0,0,.2-.027.246.246,0,0,0,.116-.166,3.255,3.255,0,0,0,.037-.638,1.755,1.755,0,0,1,.141-.89,1.3,1.3,0,0,1,.547-.444,3.027,3.027,0,0,0,1.047-1.02l.082-.111a.643.643,0,0,1,.189-.172.25.25,0,0,0,.089-.347,5.4,5.4,0,0,0-.416-.59.261.261,0,0,0-.219-.092.255.255,0,0,0-.2.133c-.941,1.793-2.363,2.61-4.162,3.644-.3.171-.6.347-.916.533a11.571,11.571,0,0,1-6.807,1.341.253.253,0,0,0-.261.192l-.109.427a.482.482,0,0,1-.633.352.515.515,0,0,1-.4-.645c.016-.062.041-.137.069-.219a1.582,1.582,0,0,0,.122-.97.249.249,0,0,0-.158-.152c-.073-.028-.6-.242-.731-.3-.088-.038-.178-.074-.268-.11a4.5,4.5,0,0,1-.577-.261.249.249,0,0,0-.342.095,5.033,5.033,0,0,0-.382.823.513.513,0,0,1-.4.363.637.637,0,0,1-.581-.178.425.425,0,0,1-.065-.443,4.3,4.3,0,0,1,.347-.722c.1-.176.2-.355.282-.544a.249.249,0,0,0-.025-.246.451.451,0,0,1,.023-.5.248.248,0,0,0-.054-.322l-.1-.085c-.124-.105-.248-.208-.38-.307-.105-.079-.209-.153-.309-.226a5.7,5.7,0,0,1-.7-.559.249.249,0,0,0-.348,0,1.953,1.953,0,0,0-.654.936,6.244,6.244,0,0,1-1.3,2.5.623.623,0,0,1-.877.1.391.391,0,0,1-.085-.6,6.615,6.615,0,0,0,.715-1.383,5.275,5.275,0,0,1,.694-1.312,2.441,2.441,0,0,1,.569-.451,2.819,2.819,0,0,0,.589-.459.25.25,0,0,0,.061-.208.247.247,0,0,0-.125-.177,2.716,2.716,0,0,1-.424-.9c-.187-.537-.3-.864-.6-.825a.6.6,0,0,1-.226-.019.249.249,0,0,0-.29.125c-.261.5-.585,1.009-.9,1.5a9.522,9.522,0,0,0-1.587,3.39.389.389,0,0,1-.243.333.622.622,0,0,1-.58-.129.561.561,0,0,1-.2-.545,8.224,8.224,0,0,1,1.442-3.036,13.168,13.168,0,0,0,1.166-2.047l.042-.1a2.171,2.171,0,0,1,.959-1.3,1.116,1.116,0,0,1,.376-.11.254.254,0,0,0,.183-.123.248.248,0,0,0,.016-.219,3.064,3.064,0,0,1-.19-.595.458.458,0,0,0-.017-.11.253.253,0,0,0-.117-.14,3.145,3.145,0,0,1-.7-.527.248.248,0,0,0-.157-.131.24.24,0,0,0-.2.029,3.918,3.918,0,0,0-.7.634c-.1.113-.2.219-.295.3-.121.109-.242.213-.362.316a7.325,7.325,0,0,0-1.016,1,9.24,9.24,0,0,0-.835,1.331,7.2,7.2,0,0,1-1,1.5.46.46,0,0,1-.686.015.541.541,0,0,1-.056-.794,8.009,8.009,0,0,0,1.081-1.655,5.947,5.947,0,0,1,1.351-1.881,19.162,19.162,0,0,0,1.534-1.34,2.487,2.487,0,0,1,.647-.488.248.248,0,0,0,.136-.258,15.878,15.878,0,0,1,.04-3.27l.017-.21a.25.25,0,0,0-.123-.235.247.247,0,0,0-.265.007.761.761,0,0,1-.149.082,4.918,4.918,0,0,1-.91.172,2.525,2.525,0,0,0-1.944.825,6.259,6.259,0,0,1-.673.809,8.476,8.476,0,0,0-.569.655c-.217.282-.426.571-.634.861s-.412.572-.627.851a.582.582,0,0,1-.557.228.617.617,0,0,1-.485-.327.382.382,0,0,1,.083-.391c.289-.379.569-.766.85-1.155A23.032,23.032,0,0,1,11.4,82.569a3.137,3.137,0,0,1,1.895-.688A6.685,6.685,0,0,0,14.5,81.63a.4.4,0,0,1,.428.064.25.25,0,0,0,.419-.18l.017-.8a28.931,28.931,0,0,0-.045-3.2A.25.25,0,0,0,15,77.3a5.614,5.614,0,0,0-1.484.76,7.638,7.638,0,0,1-.894.52,9.435,9.435,0,0,0-3,2.37.424.424,0,0,1-.419.16.63.63,0,0,1-.439-.417.508.508,0,0,1,.121-.52,14.175,14.175,0,0,1,3.15-2.474l.334-.216a9.084,9.084,0,0,1,2.485-1.222.249.249,0,0,0,.155-.122.255.255,0,0,0,.018-.2c-.118-.359-.26-.688-.4-1a9.922,9.922,0,0,1-.4-1.032.278.278,0,0,0-.166-.146.308.308,0,0,0-.238.017,3.82,3.82,0,0,1-.823.13.441.441,0,0,1-.337-.132.581.581,0,0,1-.185-.406.552.552,0,0,1,.557-.539,3.049,3.049,0,0,0,.806-.213.25.25,0,0,0,.164-.235,5.53,5.53,0,0,1,.459-2.222.25.25,0,0,0-.02-.237.24.24,0,0,0-.11-.092,6.825,6.825,0,0,1-.78-.757.558.558,0,0,1-.129-.225.249.249,0,0,0-.152-.161.667.667,0,0,0-.651.031.576.576,0,0,0-.219.516c.006.492.006.977.006,1.462a2.124,2.124,0,0,1-1.048,1.761.25.25,0,0,0-.124.274c.05.223.117.446.185.668a6.578,6.578,0,0,1,.223.884c.012.077.021.171.031.274a2.47,2.47,0,0,0,.237,1,.655.655,0,0,1-.022.744.372.372,0,0,1-.477.1c-.431-.167-.5-.424-.613-.851-.04-.148-.081-.3-.14-.46a2.707,2.707,0,0,1-.112-.691,3.223,3.223,0,0,0-.141-.829,5.947,5.947,0,0,1-.263-.993.254.254,0,0,0-.1-.163A.4.4,0,0,1,9.91,72.2a.244.244,0,0,0-.179-.164A.252.252,0,0,0,9.5,72.1a1.664,1.664,0,0,0-.285.245.811.811,0,0,0-.254.709,7.377,7.377,0,0,1-.031,1.267c-.014.17-.028.341-.038.512a.243.243,0,0,0,.014.1c.048.139.1.281.143.424a7.38,7.38,0,0,0,.682,1.619.474.474,0,0,1-.173.69.526.526,0,0,1-.759-.153,6.167,6.167,0,0,1-.486-1.027.25.25,0,0,0-.152-.146.246.246,0,0,0-.21.022,2.433,2.433,0,0,0-1.375,2.069,2.01,2.01,0,0,0,.315,1.121,2.473,2.473,0,0,1,.26.624c.129.537.241,1.082.353,1.627.137.669.278,1.36.45,2.028a.486.486,0,0,1-.123.494.639.639,0,0,1-.589.155.451.451,0,0,1-.323-.354c-.13-.518-.247-1.049-.362-1.587a.252.252,0,0,0-.268-.2.919.919,0,0,0-.756.589,3.094,3.094,0,0,0,.032,2.308c.426.624.893,1.227,1.346,1.81l.3.388a34.686,34.686,0,0,1,2.062,2.9.446.446,0,0,1,.035.47.637.637,0,0,1-.52.314.47.47,0,0,1-.449-.255c-.46-.728-1-1.5-1.649-2.348a.25.25,0,0,0-.435.069,3.468,3.468,0,0,0,.095,2.1,1.868,1.868,0,0,0,.966.958,3.072,3.072,0,0,1,.446.291A14.9,14.9,0,0,1,9.5,93.742c.266.309.533.621.816.926a.532.532,0,0,1-.047.781.468.468,0,0,1-.7,0c-.216-.237-.425-.493-.635-.75a.251.251,0,0,0-.443.183,3.733,3.733,0,0,0,2.1,2.954c.121.039.25.076.384.114a3.31,3.31,0,0,1,1.194.507,2.847,2.847,0,0,0,1.334.6c.183.044.372.09.57.158a.55.55,0,0,1,.279.2.259.259,0,0,0,.058.061c1.612,1.19,3.343,1.148,5.173,1.106.338-.008.68-.016,1.024-.016a4.953,4.953,0,0,1,1.086.27,6.109,6.109,0,0,0,1.636.366.8.8,0,0,0,.777-.384.7.7,0,0,1,.176-.218.623.623,0,0,1,.56-.2.572.572,0,0,1,.473.364.435.435,0,0,0,.317.275c.411.085.968-.419,1.648-1.087.123-.122.222-.22.278-.263a1.608,1.608,0,0,1,1.417-.3,1.922,1.922,0,0,1,.714.446.881.881,0,0,1,.15.173c.068.092.16.24.352.214s.291-.221.352-.354l.133-.31a4.1,4.1,0,0,1,.673-1.2.274.274,0,0,0,.05-.082.521.521,0,0,1,.337-.321c.274-.092.544-.212.8-.329a6.963,6.963,0,0,1,.89-.351,1.176,1.176,0,0,1,.593.144C34.133,97.464,34.242,97.508,34.343,97.539Z"/><path d="M43.886,100.912a.593.593,0,0,1,.525.667.421.421,0,0,1-.481.41,3.528,3.528,0,0,1-1.372-.405.251.251,0,0,0-.35.31,2.331,2.331,0,0,0,.637.983,3.381,3.381,0,0,0,2.136,1.058,1.483,1.483,0,0,0,.915-.307,5.1,5.1,0,0,0,1.315-2.308c.082-.221.159-.432.236-.616.225-.539.492-1.065.75-1.574.157-.309.314-.619.465-.936a.253.253,0,0,0,.02-.151,7.323,7.323,0,0,0-.254-.943.251.251,0,0,0-.2-.172.255.255,0,0,0-.243.109l-.085.13c-.053.08-.105.161-.154.229l-.175.233a7.183,7.183,0,0,0-.632.935.465.465,0,0,1-.668.186A.536.536,0,0,1,46.019,98a10.974,10.974,0,0,1,.823-1.229l.249-.341a2.792,2.792,0,0,1,1.32-1.071.449.449,0,0,1,.421.08.243.243,0,0,0,.228.033.249.249,0,0,0,.158-.167,3.9,3.9,0,0,0-.069-1.864.252.252,0,0,0-.278-.157.247.247,0,0,0-.156.1,5.078,5.078,0,0,1-1.409-.128.261.261,0,0,0-.144.006c-.5.177-.958.917-1.382,1.661l-.119.2c-.127.209-.249.422-.371.635-.186.322-.371.645-.575.952s-.4.661-.584.994a6.535,6.535,0,0,1-1.12,1.636.529.529,0,0,1-.778-.044.472.472,0,0,1,0-.709,4.561,4.561,0,0,0,.874-1.3,7.5,7.5,0,0,1,.409-.723c.243-.36.463-.738.676-1.1.17-.293.341-.587.525-.873.089-.136.179-.282.272-.431a4.18,4.18,0,0,1,1.795-1.908.253.253,0,0,0,.165-.219c.007-.108.014-.224.014-.318,0-.149-.006-.3-.011-.444a2.541,2.541,0,0,1,.2-1.4.389.389,0,0,1,.083-.11.234.234,0,0,0,.048-.056.428.428,0,0,1,.293-.189.951.951,0,0,0,.648-.673,2.563,2.563,0,0,0-.028-1.964.679.679,0,0,0-.274-.222.254.254,0,0,0-.267.028q-.3.236-.6.466c-.327.25-.653.5-.972.765a3.313,3.313,0,0,1-.755.426,4.2,4.2,0,0,0-.738.4,9.713,9.713,0,0,0-1.918,2c-.083.113-.2.248-.335.395a3.353,3.353,0,0,0-.824,1.223.464.464,0,0,1-.6.354.538.538,0,0,1-.431-.664,2.992,2.992,0,0,1,.785-1.266c.152-.174.3-.349.444-.537a16.98,16.98,0,0,1,1.412-1.627,11.525,11.525,0,0,1,2.207-1.626c.453-.283.921-.574,1.359-.9a.251.251,0,0,0,.091-.274,3,3,0,0,1,.186-2.118.494.494,0,0,1,.6-.234.272.272,0,0,0,.13,0,1.283,1.283,0,0,1,.2-.027c.716,0,1.57-.312,1.57-1.744v-.1a.253.253,0,0,0-.078-.182.229.229,0,0,0-.187-.067,1.226,1.226,0,0,0-.582.1,9.186,9.186,0,0,0-4.242,1.872,16.726,16.726,0,0,0-1.165,1.3,15.853,15.853,0,0,1-1.15,1.274.477.477,0,0,1-.486.136.629.629,0,0,1-.425-.432.451.451,0,0,1,.15-.455A15.551,15.551,0,0,0,42.4,83.924a7.311,7.311,0,0,1,2.3-2.087l.462-.226a12.662,12.662,0,0,1,2.948-1.158.25.25,0,0,0,.179-.339.527.527,0,0,1-.043-.233.248.248,0,0,0-.079-.2.235.235,0,0,0-.2-.066l-.12.018a6.607,6.607,0,0,0-2.58.88,10.316,10.316,0,0,1-2.56.981.6.6,0,0,1-.687-.507.409.409,0,0,1,.35-.515,5.393,5.393,0,0,0,1.734-.743A5.411,5.411,0,0,1,45.47,79.1c.251-.063.5-.133.733-.2a6.674,6.674,0,0,1,1.644-.334.931.931,0,0,1,.218.035.252.252,0,0,0,.268-.111l.087-.137c.075-.119.148-.235.224-.365a1.3,1.3,0,0,1,.123-.164.957.957,0,0,0,.254-.443.56.56,0,0,1,.539-.561.517.517,0,0,1,.256.075.283.283,0,0,0,.136.034,1.583,1.583,0,0,0,1.789-1.409.253.253,0,0,0-.078-.2.248.248,0,0,0-.206-.065,13.054,13.054,0,0,0-4.41,1.474c-.395.219-.829.433-1.272.652a13.7,13.7,0,0,0-2.927,1.747.574.574,0,0,1-.826-.079.435.435,0,0,1,.037-.659,21.451,21.451,0,0,1,4.968-2.853,15.976,15.976,0,0,1,4.121-1.309c.071-.012.12-.09.158-.151a.341.341,0,0,0,.012-.242c-.1-.308.183-.545.272-.61l.151-.11a5.1,5.1,0,0,1,1.234-.734.416.416,0,0,1,.567.253.258.258,0,0,0,.133.133.513.513,0,0,1,.232.211.46.46,0,0,0,.514.213,1.242,1.242,0,0,0,.852-.851c.079-.531-.022-.68-.271-.893-.038-.032-.082-.07-.13-.117a.284.284,0,0,0-.18-.071c-3.006.062-7.161.53-9.884,2.408a.422.422,0,0,1-.443.057.638.638,0,0,1-.33-.516.515.515,0,0,1,.242-.487c3.278-2.27,8.739-2.536,10.935-2.545a.248.248,0,0,0,.1-.02,2.392,2.392,0,0,1,.67-.187,1.8,1.8,0,0,0,.758-.4,2.615,2.615,0,0,1,.3-.2.552.552,0,0,1,.76.265.269.269,0,0,0,.062.076c.371.306,1.1.625,1.493.176a1.587,1.587,0,0,0,.287-.588,1.687,1.687,0,0,1,.118-.309c.292-.519.79-.538,1.576-.506l.085,0a.5.5,0,0,1,.247.075.247.247,0,0,0,.148.034.4.4,0,0,1,.412.257,3.839,3.839,0,0,1,.244.742c.029.113.058.225.091.336a.242.242,0,0,0,.082.123,1.6,1.6,0,0,0,1.193.509.824.824,0,0,0,.56-.443c.268-.479.57-.63,1.254-.605a.481.481,0,0,1,.437.253.641.641,0,0,1-.013.613.258.258,0,0,0-.035.112.679.679,0,0,1-.051.2,1.5,1.5,0,0,0-.006,1.208,1.25,1.25,0,0,0,.806.666c.4.122.513.119.788-.2l.057-.064a3.764,3.764,0,0,1,.431-.372,1.5,1.5,0,0,1,1.59.124.25.25,0,0,0,.331-.352,6.2,6.2,0,0,0-1.317-1.564c-.405-.318-.793-.646-1.177-.971a11.915,11.915,0,0,0-4.059-2.585.255.255,0,0,0-.264.073.252.252,0,0,0-.039.271l.069.146a6.881,6.881,0,0,1,.325.767.428.428,0,0,1-.065.445.629.629,0,0,1-.576.176.514.514,0,0,1-.4-.365,3.866,3.866,0,0,0-.468-.964c-.051-.074-.1-.146-.156-.218a3.073,3.073,0,0,1-.336-.531.25.25,0,0,0-.209-.147,18.184,18.184,0,0,0-2.751.021.25.25,0,0,0-.082.478c.117.052.233.11.347.173a.484.484,0,0,1,.174.706.515.515,0,0,1-.727.217,8.476,8.476,0,0,0-1.516-.726,3.445,3.445,0,0,1-1.24-.639.369.369,0,0,1-.047-.051.249.249,0,0,0-.248-.092,2.974,2.974,0,0,0-1.268.65.25.25,0,0,0,.121.445l.388.049a9.61,9.61,0,0,1,1.741.325.494.494,0,0,1,.356.374.637.637,0,0,1-.173.583.441.441,0,0,1-.459.08,8.267,8.267,0,0,0-1.514-.259c-.189-.02-.376-.04-.552-.065a8.687,8.687,0,0,1-2.238-.625.258.258,0,0,0-.127-.019c-.71.08-2.186.247-2.37,1.393a.424.424,0,0,1-.49.35.558.558,0,0,1-.555-.523c0-.12,0-.241-.007-.369a.247.247,0,0,0-.093-.181.234.234,0,0,0-.2-.052c-.963.159-1.55.617-1.643,1.253a.564.564,0,0,1-.161.26,1.669,1.669,0,0,1-.618.423,2.077,2.077,0,0,0-.752.522.382.382,0,0,1-.445.148.243.243,0,0,0-.11-.011l-.25.023c-.551.045-1.576.13-1.5,1.089a3.454,3.454,0,0,0,.184.792,4.3,4.3,0,0,1,.136.485,7.634,7.634,0,0,1,.1.779,4.957,4.957,0,0,0,.263,1.391.583.583,0,0,1-.071.595.621.621,0,0,1-.526.263.382.382,0,0,1-.3-.264,2.861,2.861,0,0,1-.2-.744.271.271,0,0,0-.135-.167.3.3,0,0,0-.228-.021.868.868,0,0,0-.111.043.267.267,0,0,0-.135.275,5.823,5.823,0,0,1,.084.757.441.441,0,0,1-.207.421.635.635,0,0,1-.61.009.488.488,0,0,1-.258-.442,6.458,6.458,0,0,0-.12-1,.25.25,0,0,0-.4-.152c-1.484,1.2.168,4.817.962,6.557.082.181.152.336.205.457a.627.627,0,0,1-.353.818.38.38,0,0,1-.545-.215c-.28-.643-.56-1.292-.833-1.954a.25.25,0,0,0-.152-.143.259.259,0,0,0-.207.023.431.431,0,0,1-.162.058,1.456,1.456,0,0,0-1.1.661c-.369.665,0,1.591.331,2.408l.1.242c.216.541.414,1.095.612,1.65.313.876.636,1.782,1.031,2.623a.6.6,0,0,1-.317.8.413.413,0,0,1-.592-.206c-.3-.646-.569-1.32-.817-1.953a.25.25,0,0,0-.182-.153.238.238,0,0,0-.228.069.787.787,0,0,1-.143.1.251.251,0,0,0-.117.263.4.4,0,0,1-.247.463,1.089,1.089,0,0,0-.44.395.248.248,0,0,0-.034.208,1.067,1.067,0,0,0,.128.293c.243.334.444.664.657,1.015l.118.193a.453.453,0,0,1,.039.457.645.645,0,0,1-.495.331.248.248,0,0,0-.2.134.254.254,0,0,0,.005.238A15.25,15.25,0,0,0,41.515,96.7a.562.562,0,0,1,.133.8.448.448,0,0,1-.656.138,13.457,13.457,0,0,1-2.146-1.783.248.248,0,0,0-.3-.044.252.252,0,0,0-.124.274,4.507,4.507,0,0,0,2.088,2.889c.232.15.49.345.765.551A5.933,5.933,0,0,0,43.886,100.912Z"/><path d="M58.093,90.978a.262.262,0,0,0,.159.017.479.479,0,0,1,.407.066.248.248,0,0,0,.148.049h.018a1.133,1.133,0,0,0,.925-.593c.883-1.506-.255-5.62-.646-6.445a1.394,1.394,0,0,0-.976-.714.257.257,0,0,0-.226.1.664.664,0,0,1-.55.264.253.253,0,0,0-.2.082,3.594,3.594,0,0,0-.818,2.161c.009.29-.008.58-.024.869a8.041,8.041,0,0,0-.009,1.2A4.067,4.067,0,0,0,58.093,90.978Z"/><path d="M50.767,102.646a3.927,3.927,0,0,0,.328-.736.463.463,0,0,1,.275-.329.252.252,0,0,0,.159-.238c-.021-1.2-.214-1.853-.608-2.055a.681.681,0,0,0-.732.108.792.792,0,0,1-.774.164.246.246,0,0,0-.3.125c-.264.513-.52,1.017-.749,1.552a8.175,8.175,0,0,1-.492.951,3.692,3.692,0,0,0-.671,2.112.249.249,0,0,0,.238.242c.317.016.63.039.943.061.654.047,1.329.094,2.035.077h.02a.471.471,0,0,1,.476.493.252.252,0,0,0,.11.2,5.728,5.728,0,0,0,2.748.489c.8,0,1.449-.063,1.463-.064.265-.031.556-.039.852-.047a5.832,5.832,0,0,0,1.632-.194.7.7,0,0,0,.168-.079.251.251,0,0,0,.139-.309.389.389,0,0,1-.024-.086.249.249,0,0,0-.1-.17.246.246,0,0,0-.2-.04,4.12,4.12,0,0,1-2.026-.429l-.189-.073,0,0a.555.555,0,0,1-.369-.578.868.868,0,0,0-.028-.14,2.085,2.085,0,0,1-.036-.34c-.027-.429-.065-1.016-.567-1.1-.014,0-.077,0-.091,0a.248.248,0,0,0-.176.073c-.075.074-.149.164-.216.245a.249.249,0,0,0-.03.27.509.509,0,0,1-.018.484,3.286,3.286,0,0,1-.511.707.459.459,0,0,1-.665.04.548.548,0,0,1-.138-.747.274.274,0,0,0,.017-.211.307.307,0,0,0-.142-.175l-.289-.165a.251.251,0,0,0-.351.1c-.1.2-.21.414-.321.622a.42.42,0,0,1-.363.261.633.633,0,0,1-.531-.29.514.514,0,0,1-.016-.541C50.685,102.8,50.726,102.723,50.767,102.646Z"/><path d="M63.236,87.668c0-2.687-.453-9.043-4.644-10.053a.26.26,0,0,0-.121,0,7.191,7.191,0,0,0-4.758,4.523.249.249,0,0,0,.344.319,4.183,4.183,0,0,1,3.076-.034.242.242,0,0,0,.161.013,2.6,2.6,0,0,1,2.594.894.637.637,0,0,1,.164.222.694.694,0,0,1,.088.2c.425.96,1.729,4.285.644,6.772a2.364,2.364,0,0,1-2.494,1.586.221.221,0,0,0-.1,0,7.752,7.752,0,0,1-4.366-.074.25.25,0,0,0-.34.31,7.812,7.812,0,0,0,4.023,4.875.246.246,0,0,0,.163.011C61.516,96.2,63.236,91.681,63.236,87.668Z"/><path d="M55.54,91.24c.235,0,.463,0,.692-.007a.25.25,0,0,0,.193-.4,7.472,7.472,0,0,1-.84-6.759,2.873,2.873,0,0,1,.266-.568.252.252,0,0,0-.005-.263.257.257,0,0,0-.239-.113A2.883,2.883,0,0,0,53.3,85.69a20.124,20.124,0,0,0-.014,2.24l.009.15C53.375,89.414,53.487,91.24,55.54,91.24Z"/><path d="M59.3,102.965a1.3,1.3,0,0,1,.345.784.249.249,0,0,0,.246.211.151.151,0,0,0,.03,0c.27-.032.529-.084.792-.139.187-.038.376-.077.58-.109a1.364,1.364,0,0,1,.233-.017.526.526,0,0,0,.591-.381,1.1,1.1,0,0,1,1.036-.8,1.3,1.3,0,0,1,.973.283.25.25,0,0,0,.42-.183.746.746,0,0,1,.021-.145.231.231,0,0,0,0-.083.478.478,0,0,1,.371-.544,3.258,3.258,0,0,0,1.2-.72,2.806,2.806,0,0,1,1.077-.649,3.18,3.18,0,0,1,.459-.042c.569-.03.956-.066,1.152-.293.386-.455.16-1.148-.005-1.654-.043-.132-.083-.255-.107-.36a1.5,1.5,0,0,1,.167-1.3,2.679,2.679,0,0,1,2.064-.713.251.251,0,0,0,.23-.174,2.655,2.655,0,0,1,.444-.966.254.254,0,0,0,.286-.111.251.251,0,0,0-.086-.343h0a2.5,2.5,0,0,1-1.064-1.072v0A1.409,1.409,0,0,1,70.7,92.2a3.108,3.108,0,0,1,1.835-1.61.251.251,0,0,0,.17-.2l.053-.3a4.82,4.82,0,0,0,.121-1.216.234.234,0,0,0-.258-.232.237.237,0,0,0-.089.02c-.072-.051-.181-.14-.337-.276a1.847,1.847,0,0,1-.68-1.761,2.715,2.715,0,0,1,2.167-2.306.25.25,0,0,0,.19-.262l-.025-.3c-.028-.332-.056-.675-.062-1.062l-.025-.14a.251.251,0,0,0-.247-.208l-.118,0c-.092,0-.186,0-.268,0h-.041a1.863,1.863,0,0,1-1.631-.637c-.929-1.279-.4-2.235.684-3.276a.252.252,0,0,0,.066-.254,10.643,10.643,0,0,0-.625-1.523.251.251,0,0,0-.313-.124,1.951,1.951,0,0,1-.977.062,1.779,1.779,0,0,1-1.012-.477c-.786-.673-.4-2.083-.094-2.863a.249.249,0,0,0-.143-.324.568.568,0,0,0-.7.185,1.418,1.418,0,0,1-.61.528A2.121,2.121,0,0,1,66,73.376a2.273,2.273,0,0,1-1.161-1.7.249.249,0,0,0-.345-.2,2.223,2.223,0,0,1-1.232.107,2.353,2.353,0,0,1-1.154-.608l-.235-.186a1.107,1.107,0,0,1-.365-.744c-.022-.1-.045-.208-.075-.312a.249.249,0,0,0-.209-.179l-.158-.014a.242.242,0,0,0-.076,0,.518.518,0,0,1-.07.008.248.248,0,0,0-.282.154c-.035.091-.073.171-.112.254l-.082.181a2.229,2.229,0,0,1-.8.871c-.546.4-1.563.044-2.329-.483a.248.248,0,0,0-.277,0,.969.969,0,0,1-.521.2.25.25,0,0,0-.249.273,4.008,4.008,0,0,0,.1.669,2.562,2.562,0,0,1-.663,2.033,2.1,2.1,0,0,1-1.52.537,1.5,1.5,0,0,1-1.068-.525c-.046-.055-.089-.1-.16-.107a.166.166,0,0,0-.164.062.253.253,0,0,0-.128.165.271.271,0,0,0,.039.214,2.721,2.721,0,0,1,.129.92,3.9,3.9,0,0,1-.305,1.769,2.776,2.776,0,0,1-2.519,1.279.25.25,0,0,0-.2.118c-.07.112-.141.226-.21.351-.142.249-.3.493-.453.735a.251.251,0,0,0,.018.294.3.3,0,0,1,.045.083,1.344,1.344,0,0,0,.433.462,1.149,1.149,0,0,1,.3.289,1.64,1.64,0,0,1,.242.688l.009.088a4.311,4.311,0,0,1-.061,1.73,2.224,2.224,0,0,1-2.348,1.526.249.249,0,0,0-.228.181,2.38,2.38,0,0,0,0,.973.25.25,0,0,0,.227.181c.786.042,1.626.421,1.626,1.36,0,1.157,0,2.9-1.238,3.391a.251.251,0,0,0-.154.183,2.893,2.893,0,0,0,0,.783c.011.112.02.215.02.294,0,.1,0,.17,0,.226a.423.423,0,0,0,.005.075.249.249,0,0,0,.052.231.263.263,0,0,0,.221.086c.119-.014.24-.028.362-.05a1.221,1.221,0,0,1,1.375.55A4.1,4.1,0,0,1,50.331,95a1.916,1.916,0,0,1-.828,1.647.249.249,0,0,0-.1.259,9.8,9.8,0,0,0,.337,1.132.251.251,0,0,0,.131.142.246.246,0,0,0,.192.008,1.573,1.573,0,0,1,1.748.393,3.98,3.98,0,0,1,.791,3,.251.251,0,0,0,.1.2l.163.115a.25.25,0,0,0,.316-.012c.105-.091.217-.212.328-.331a2.618,2.618,0,0,1,.348-.338,1.413,1.413,0,0,1,1.1.014,1.615,1.615,0,0,1,.869.661,2.134,2.134,0,0,1,.2.84,4.322,4.322,0,0,0,.1.631.255.255,0,0,0,.13.162,1.384,1.384,0,0,0,.485.136,1.065,1.065,0,0,1,.253.06c.053.017.107.035.161.049a.257.257,0,0,0,.208-.038.251.251,0,0,0,.1-.183.731.731,0,0,1,.033-.181,1.123,1.123,0,0,1,.482-.563A1.106,1.106,0,0,1,59.3,102.965ZM56.328,97.9a8.712,8.712,0,0,1-4.2-6.551c-.6-3.611-.513-6.505.249-8.6.5-1.385,1.837-5.061,3.994-5.773a11.806,11.806,0,0,1,3.659-.662,7.328,7.328,0,0,1,4.049,1.19c1.983,1.253,2.926,4.036,3.368,6.148.911,4.381.144,10.377-3.625,13.9a.222.222,0,0,0-.045.056.435.435,0,0,1-.223.187A8.075,8.075,0,0,1,56.328,97.9Z"/><path d="M96.732,97.95a.25.25,0,0,0-.315-.242,3.484,3.484,0,0,1-1.841-.352c-.2-.075-.385-.144-.549-.194l-.876-.266a.247.247,0,0,0-.259.071.252.252,0,0,0-.045.265l.111.282c.175.411.831.537,1.606.649.16.023.3.041.383.063.394.1.787.24,1.167.375l.3.106a.256.256,0,0,0,.082.013.247.247,0,0,0,.145-.046.25.25,0,0,0,.1-.2.385.385,0,0,0-.014-.1Z"/><path d="M73.553,85.5a1.543,1.543,0,0,0-.993,1.439.85.85,0,0,0,.25.567.255.255,0,0,0,.155.072c.211.019.438.041.676.065.779.077,1.663.165,2.529.165,1.559,0,3.065-.284,3.822-1.422a.787.787,0,0,1,.333-.258.252.252,0,0,0,.152-.207,6.888,6.888,0,0,0-.017-1.077l-.017-.268c-.014-.267-.036-.52-.071-.78a.25.25,0,0,0-.225-.216c-.048,0-.1-.006-.148-.008l-.109-.006c-.058-.013-.139.063-.19.109a.362.362,0,0,0-.086.225V84.1a1.925,1.925,0,0,1-.1.777c-.589,1.334-3.747,1.181-4.951,1.009a.787.787,0,0,1-.694-.3A.25.25,0,0,0,73.553,85.5Z"/><path d="M110.844,77.611h0c-.183-5.5-1.387-8.709-3.583-9.542a.551.551,0,0,1-.135-.075.251.251,0,0,0-.261-.023c-1.71.854-2.753,2.552-3.19,5.189a.251.251,0,0,0,.065.214.257.257,0,0,0,.21.076,1.9,1.9,0,0,1,2.024.911,6.806,6.806,0,0,1,1.033,4.026A3.431,3.431,0,0,1,105.97,80.9a2.679,2.679,0,0,1-2.046.728.236.236,0,0,0-.2.082.25.25,0,0,0-.061.209,13.6,13.6,0,0,0,2.256,5.414.25.25,0,0,0,.2.1.253.253,0,0,0,.1-.021C110.457,85.568,110.936,80.479,110.844,77.611Z"/><path d="M114.224,68.6a.247.247,0,0,0-.311.007.252.252,0,0,0-.063.305c3.36,6.65,3.026,16.557-2.826,20.706a.25.25,0,0,0,.145.454.283.283,0,0,0,.05-.005,5.883,5.883,0,0,0,2.868-1.667c3.2-3.271,3.3-7.871,3.134-12.3C117.092,72.857,116.533,70.342,114.224,68.6Z"/><path d="M121.7,72.544a6.664,6.664,0,0,1-.422-.856.251.251,0,0,0-.174-.155.6.6,0,0,1-.477-.679,2.958,2.958,0,0,1,.462-1.056,1.9,1.9,0,0,0,.248-2.119,8.051,8.051,0,0,1-.366-.755v-.015a.251.251,0,0,0-.23-.267h0a1.259,1.259,0,0,1-.592-.162,1.785,1.785,0,0,1-.914-1.42c.015-.141.079-.424.148-.723.055-.236.113-.489.158-.72a.251.251,0,0,0-.349-.276.691.691,0,0,1-.48.076,2.358,2.358,0,0,1-1.228-1.121c-.061-.094-.133-.2-.209-.307a2.969,2.969,0,0,1-.669-1.376c.007-.191.02-.388.046-.578a.25.25,0,0,0-.169-.272.838.838,0,0,1-.224-.1.251.251,0,0,0-.327.037.847.847,0,0,1-.167.151c-.4.231-.826.027-1.283-.186-.166-.078-.329-.154-.488-.21-.51-.179-.829-.313-.958-.783a8.421,8.421,0,0,0-.276-.839.253.253,0,0,0-.258-.158l-.075.01c-.13.017-.264.042-.315.16a1.51,1.51,0,0,1-.369.53c-.383.344-1.118.258-1.656.2l-.1-.011c-.1-.012-.2-.023-.3-.033a2.105,2.105,0,0,1-1.179-.343,3.238,3.238,0,0,1-.424-.457.25.25,0,0,0-.445.156.6.6,0,0,1-.02.165c-.121.479-.785.526-1.176.51-.167-.005-.338,0-.508,0l-.28,0-.145.019a.25.25,0,0,0-.258.017,3.017,3.017,0,0,1-.461.259.265.265,0,0,0-.123.2.308.308,0,0,0,.08.239,3.482,3.482,0,0,0,.489.469.582.582,0,0,1,.218.756.618.618,0,0,1-.4.266.385.385,0,0,1-.317-.061l-.144-.11a.246.246,0,0,0-.227-.033.252.252,0,0,0-.158.166.657.657,0,0,1-.128.237.251.251,0,0,0-.05.094,4.076,4.076,0,0,1-.689,1.251l-.158.227a8.451,8.451,0,0,0-.592,1.019,6.313,6.313,0,0,1-.7,1.142.831.831,0,0,1-.646.269,2.016,2.016,0,0,1-.284-.049.253.253,0,0,0-.28.143.25.25,0,0,0,.082.3.419.419,0,0,1,.106.111c.457.952-.065,1.715-.669,2.6-.158.231-.316.463-.457.7-.074.124-.146.256-.219.389a2.859,2.859,0,0,1-.913,1.168.661.661,0,0,1-.467.063.611.611,0,0,0-.71.3.25.25,0,0,0,.105.337,7.436,7.436,0,0,0,.718.316c.63.251,1.226.489,1.384,1.049a1.764,1.764,0,0,1-.094.878,3,3,0,0,0-.135.762,10.961,10.961,0,0,1-.079,1.484.429.429,0,0,1-.134.257.236.236,0,0,0-.045.06.492.492,0,0,1-.212.2c-.119.059-.24.115-.363.172a6.207,6.207,0,0,0-1.174.657,2.056,2.056,0,0,1-.361.24.264.264,0,0,0-.134.272.7.7,0,0,1,0,.1l-.006.417a.251.251,0,0,0,.13.22.678.678,0,0,1,.174.14.248.248,0,0,0,.158.081c.242.027.484.067.726.108a.263.263,0,0,0,.124-.011.447.447,0,0,1,.407.058.809.809,0,0,1,.274.686,5.506,5.506,0,0,0,.2,1.082c.2.8.466,1.9.181,2.388a5.87,5.87,0,0,1-.439.555c-.71.843-1.157,1.425-.917,1.831.19.321.671.267,1.017.2,1.119-.215,1.97,1.984,2.16,2.811.1.452-.163.819-.468,1.243a1.849,1.849,0,0,0-.2,2.483h0l0,0a.25.25,0,0,0,.445-.089,3.787,3.787,0,0,1,1.226-.123,5.67,5.67,0,0,1,1.68,2.4c.262,2.2.809,2.344.989,2.39.3.078.616-.1.921-.528a.619.619,0,0,1,.421-.272.582.582,0,0,1,.453.16,1.906,1.906,0,0,1,.427.62,1.5,1.5,0,0,0,.984.939,4.881,4.881,0,0,0,1.188.14,11.464,11.464,0,0,0,4.829-1.447c.591-.3,1.017-.351,1.3-.149a.249.249,0,0,0,.376-.111,6.135,6.135,0,0,1,1.383-2.2c.27-.271.427-.234.581-.2a.416.416,0,0,0,.391-.053c.138-.116.153-.3.135-.6-.08-1.3,1.248-3.567,1.748-4.421a.7.7,0,0,1,.508-.353.465.465,0,0,0,.365-.244.563.563,0,0,0-.1-.5c-.485-.822-.107-2.581.168-3.866.091-.427.175-.815.218-1.117a3.129,3.129,0,0,1,.355-.464c.383-.453.779-.922.707-1.311a.478.478,0,0,0-.252-.339c-.2-.114-.256-.328-.326-.668l-.1-.453c-.232-.992-.619-2.65.092-3.378C122.715,74.376,122.177,73.4,121.7,72.544Zm-6.86,16.612a5.722,5.722,0,0,1-5.927,1.6,9.577,9.577,0,0,1-6.1-7.077c-.462-2.175-1.423-6.7-.52-9.538.075-.234.152-.485.233-.749.616-1.992,1.458-4.721,3.006-5.88a7.676,7.676,0,0,1,4.584-1.452,8.744,8.744,0,0,1,3.04.55,7.111,7.111,0,0,1,4.649,5.085C118.425,74.456,120.03,83.858,114.842,89.156Z"/><path d="M114.445,82.363a19.489,19.489,0,0,0-2.778-14.994.259.259,0,0,0-.142-.1,5.545,5.545,0,0,0-2.728-.008.25.25,0,0,0-.1.439c2.65,2.105,3.391,7.319,3.221,11.144-.14,3.16-1.1,7.344-4.867,9.332a.25.25,0,0,0-.131.185.253.253,0,0,0,.073.215,6.11,6.11,0,0,0,1.615,1.156.256.256,0,0,0,.107.024.25.25,0,0,0,.192-.089.526.526,0,0,1,.187-.15A10.408,10.408,0,0,0,114.445,82.363Z"/><path d="M109.215,98.527a.232.232,0,0,0-.188-.067l-.548.041h0a2.935,2.935,0,0,1-.966-.053.249.249,0,0,0-.3.146,5.065,5.065,0,0,0-.239.83.251.251,0,0,0,.244.3h.017a13.88,13.88,0,0,0,1.9-.265.248.248,0,0,0,.161-.112.252.252,0,0,0,.031-.193,1.857,1.857,0,0,1-.041-.447A.246.246,0,0,0,109.215,98.527Z"/><path d="M98.737,94.328a6.89,6.89,0,0,1,.826-1.574.249.249,0,0,0-.01-.32,3.038,3.038,0,0,1-.272-.368.25.25,0,0,0-.406-.018,9.039,9.039,0,0,0-1.824,3.862,3.61,3.61,0,0,0-.037.41.248.248,0,0,0,.16.246.347.347,0,0,1,.123.083.21.21,0,0,0,.03.039.248.248,0,0,0,.183.08.225.225,0,0,0,.044,0,.249.249,0,0,0,.187-.15c.185-.447.381-.886.58-1.333Z"/><path d="M102.71,95.768a.247.247,0,0,0,.032-.214,6.892,6.892,0,0,1-.185-.936c-.111-.729-.216-1.417-.7-1.651a1.1,1.1,0,0,0-1.046.156h0l-.018.011a.764.764,0,0,1-.118.047c-.418.117-.751.818-1.3,2.248-.109.283-.211.551-.264.644a13.529,13.529,0,0,0-1.07,2.763.251.251,0,0,0,.2.32,7.321,7.321,0,0,0,1.105.123c.726,0,1.3-.279,1.818-1.373a6.508,6.508,0,0,1,.93-1.345C102.305,96.308,102.521,96.047,102.71,95.768Z"/><path d="M106.273,96.986a.249.249,0,0,0-.3-.081,2.591,2.591,0,0,1-2.287-.341.249.249,0,0,0-.31.042l-.18.187a4.022,4.022,0,0,0-.844,1.11l-.1.2c-.126.267-.259.547-.405.823a.25.25,0,0,0,.181.363c.36.059.716.134,1.072.208.513.107,1.044.219,1.583.28.071.009.145.024.216.039a1.852,1.852,0,0,0,.372.051.581.581,0,0,0,.357-.107.671.671,0,0,0,.243-.51,4.255,4.255,0,0,1,.077-.453,5.384,5.384,0,0,1,.445-.979.688.688,0,0,1,.1-.119.256.256,0,0,0,.036-.307A3.915,3.915,0,0,0,106.273,96.986Z"/><path d="M103.957,80.543a1.9,1.9,0,0,0,1.286-.485,2.244,2.244,0,0,0,.689-1.672c0-1.784-.309-2.918-.946-3.464a1.536,1.536,0,0,0-1.288-.331.251.251,0,0,0-.211.231,42.422,42.422,0,0,0,0,4.266c.015.43.029.832.036,1.2a.251.251,0,0,0,.226.244C103.817,80.54,103.887,80.543,103.957,80.543Z"/><path d="M98.437,28.213c.2-.181.41-.364.6-.566a.249.249,0,0,0-.16-.419,28.868,28.868,0,0,0-6.708.509l-.477.075a33.381,33.381,0,0,1-4.214.312.249.249,0,0,0-.234.321,4.767,4.767,0,0,1,.149.767.25.25,0,0,0,.248.22h4.219c.21,0,.435-.018.665-.037a3.829,3.829,0,0,1,1.271.029c.288.076.636.247.658.631.016.249.182,2.435.923,2.747A.575.575,0,0,0,96,32.667a.543.543,0,0,1,.557-.105.656.656,0,0,1,.415.493.584.584,0,0,1,.048.237,15.506,15.506,0,0,0,.436,3.2c.119.575.243,1.169.327,1.763.06.434.107.89.155,1.353a16.745,16.745,0,0,0,.608,3.487c.363,1.092-.184,1.69-.817,2.382A3.156,3.156,0,0,0,96.6,48.2a.249.249,0,0,0,.117.179.254.254,0,0,0,.13.037.239.239,0,0,0,.083-.015c.572-.2,1.105-.362,1.627-.493a8.354,8.354,0,0,1,1.018-.165.25.25,0,0,0,.221-.25,53.583,53.583,0,0,0-.916-8.646c-.215-1.318-.438-2.681-.6-4.04a15,15,0,0,0-.43-1.911,9.447,9.447,0,0,1-.51-3.114A2.693,2.693,0,0,1,98.437,28.213Z"/><path d="M62.789,27.693c-.271.067-.564.131-.871.2-1.918.416-4.543.985-4.627,3.321a.543.543,0,0,0-.015.1.25.25,0,0,0,.25.25.314.314,0,0,0,.045,0,65.743,65.743,0,0,1,11.1-.942.249.249,0,0,0,.208-.383,1.662,1.662,0,0,1-.091-1.627,3.331,3.331,0,0,1,2.517-1.726c2.172-.357,6.695-1.1,8.825.731a.251.251,0,0,0,.328,0c1.023-.9,2.905-1.382,3.895-.676a.253.253,0,0,0,.22.035.517.517,0,0,1,.252-.008c.148.031.3.058.438.084l.2.031a65.162,65.162,0,0,0,9.131-.7,19.054,19.054,0,0,1,3.6-.222.231.231,0,0,0,.2-.087.25.25,0,0,0,.058-.208.472.472,0,0,1-.006-.166.25.25,0,0,0-.186-.279,14.3,14.3,0,0,0-4.013-.189c-.5.024-.965.05-1.4.045-1.244-.011-2.5.064-3.706.133-.855.049-1.71.1-2.57.12-2.078.056-4.192.074-6.236.091-1.755.015-3.51.029-5.264.067-.686.016-1.368.026-2.047.037-1.106.017-2.2.034-3.3.072a.26.26,0,0,0-.1.023.61.61,0,0,1-.224.06,17,17,0,0,0-4.218,1.073C64.4,27.21,63.592,27.492,62.789,27.693Z"/><path d="M52.382,29.289l-.106,0c-.117,0-.3-.01-.456-.01a.3.3,0,0,0-.252.291,6.347,6.347,0,0,1-.047.713.25.25,0,0,0,.157.419l.139.015a11.825,11.825,0,0,1,1.386.2,15.287,15.287,0,0,0,1.97.328H55.2a.249.249,0,0,0,.2-.1.252.252,0,0,0,.031-.244c-.288-.7-.679-1.435-1.392-1.543a8.882,8.882,0,0,0-1.386-.065Z"/><path d="M60.176,26.749c-.475.055-.95.11-1.427.179-.26.04-.624.077-1.05.12a20.768,20.768,0,0,0-4.095.705.25.25,0,0,0,.053.486l.141.013c.081.007.164.014.245.026a2.457,2.457,0,0,1,1.987,1.534.249.249,0,0,0,.222.134h.014a.249.249,0,0,0,.219-.161c.526-1.379,1.787-1.978,3.788-2.548a.25.25,0,0,0-.1-.488Z"/><path d="M95.473,54.6c.249-.288.506-.6.772-.915,1.6-1.921,3.6-4.312,6.152-4.556a.25.25,0,0,0-.016-.5,11.222,11.222,0,0,0-4.327.511c-3.133,1.26-6.595,3-8.522,6.361A24.629,24.629,0,0,0,86.794,65.6a.252.252,0,0,0,.064.191.256.256,0,0,0,.184.082c1.306.006,2.664.03,4.152.075H91.2a.251.251,0,0,0,.24-.319.487.487,0,0,1-.007-.216V65.4C91.94,62.019,93.051,57.4,95.473,54.6Z"/><path d="M81.639,83.516a.248.248,0,0,0,.271-.135c.651-1.318.455-4.18.325-6.075-.039-.571-.073-1.064-.073-1.372V73.968a.25.25,0,0,0-.352-.228.972.972,0,0,1-.4.073h-.219a.245.245,0,0,0-.177.075.253.253,0,0,0-.073.178c.007.58.025,1.159.044,1.737.023.7.045,1.4.045,2.1,0,.216.008.434.016.654a5.794,5.794,0,0,1-.121,1.821.845.845,0,0,1-.823.585,22.073,22.073,0,0,0-2.445-.05.25.25,0,0,0-.182.086.248.248,0,0,0-.06.192,5.276,5.276,0,0,1-.389,3.263.25.25,0,0,0,.206.391l.162-.007c1.018-.046,1.11-.363,1.078-1.074-.005-.12-.012-.257-.011-.412a.729.729,0,0,1,.218-.548,1.887,1.887,0,0,1,1.275-.308c.942.04,1.429.174,1.481.8A.251.251,0,0,0,81.639,83.516Z"/><path d="M103.855,22.777a.654.654,0,0,0-.286-.487,1.623,1.623,0,0,0-1.2-.16c-.607.141-.708.626-.789,1.016l-.042.191a5.989,5.989,0,0,0-.113,1.378,8.262,8.262,0,0,1-.038.938c-.006.053-.011.105-.022.158a.252.252,0,0,0,.062.218.247.247,0,0,0,.183.081l.03,0c.12-.014.249-.034.37-.053a3.179,3.179,0,0,1,.368-.048h1.479a.246.246,0,0,0,.191-.089.252.252,0,0,0,.056-.2c-.046-.267-.087-.536-.129-.8s-.081-.523-.125-.783a2.953,2.953,0,0,1,0-.691A3.894,3.894,0,0,0,103.855,22.777Z"/><path d="M94.325,59.854a.25.25,0,0,0,.21-.115,12.974,12.974,0,0,1,2.392-2.83c3.059-2.642,5.621-4.118,7.833-4.513a12.879,12.879,0,0,1,8.364,1.162l.911.466a.25.25,0,0,0,.315-.37,8.523,8.523,0,0,1-1.264-2.242,1.179,1.179,0,0,0-.159-.3.239.239,0,0,0-.072-.073.451.451,0,0,1-.159-.194.244.244,0,0,0-.058-.077c-1.4-1.268-5.388-.92-7.772-.712-.472.041-.86.075-1.118.085-5.392.206-8.365,5.963-9.657,9.375a.251.251,0,0,0,.121.312A.254.254,0,0,0,94.325,59.854Z"/><path d="M103.329,58.281a.245.245,0,0,0,.186-.017l.372-.2a10.074,10.074,0,0,1,1.045-.507,2.255,2.255,0,0,1,.854-.089l.218,0c.038,0,.15.007.268.02a.266.266,0,0,0,.2-.1.3.3,0,0,0,.06-.239c-.01-.057-.018-.109-.023-.154a.25.25,0,0,0-.223-.221,16.155,16.155,0,0,0-1.98-.042c-.4.009-.812.018-1.231.007-.183-.005-.385-.014-.6-.022A9.121,9.121,0,0,0,98.993,57a.558.558,0,0,1-.182.042.248.248,0,0,0-.139.057,17.6,17.6,0,0,0-3.029,3.182.25.25,0,0,0,.2.4.246.246,0,0,0,.12-.03,14.869,14.869,0,0,1,6.24-1.791.252.252,0,0,0,.231-.183.693.693,0,0,1,.717-.432A1.8,1.8,0,0,1,103.329,58.281Z"/><path d="M20.874,66.813a.251.251,0,0,0-.227.175c-.1.307-.185.533-.454.646a3.488,3.488,0,0,1-.723.2.252.252,0,0,0-.2.263.472.472,0,0,1-.02.193.252.252,0,0,0,.024.219.248.248,0,0,0,.187.115c.211.021.4.035.541.042a8.993,8.993,0,0,1,1.345.18.2.2,0,0,0,.049,0,.251.251,0,0,0,.245-.3,8.227,8.227,0,0,0-.521-1.589A.221.221,0,0,0,20.874,66.813Z"/><path d="M22.776,65.151a13.222,13.222,0,0,1-.7-2.568.253.253,0,0,0-.12-.174.245.245,0,0,0-.211-.02c-.06.021-.1.034-.135.043a.262.262,0,0,0-.4.2c0,.17-.006.347-.012.526a4.11,4.11,0,0,0,.408,2.405,7.476,7.476,0,0,1,1.187,3.471.252.252,0,0,0,.185.224c.452.12.874.214,1.3.286.148.021.31.043.473.057h.022a.25.25,0,0,0,.2-.395,1.329,1.329,0,0,1-.076-.124,5.977,5.977,0,0,1-.5-1.235,1.994,1.994,0,0,0-.359-.673,2.621,2.621,0,0,1-.207-.314c-.069-.134-.142-.259-.214-.382a3.71,3.71,0,0,1-.3-.578.248.248,0,0,0-.081-.11.577.577,0,0,1-.18-.261.243.243,0,0,0-.082-.11A.6.6,0,0,1,22.776,65.151Z"/><path d="M17.331,87.429a.248.248,0,0,0,.088.016.255.255,0,0,0,.158-.055.251.251,0,0,0,.09-.232,22.408,22.408,0,0,1-.085-4.076l0-.116c.028-.673.451-.99,1.371-1.028a.274.274,0,0,0,.237-.215.839.839,0,0,1,.038-.138,9.981,9.981,0,0,0,.916-4.235,13.149,13.149,0,0,0-.3-1.878c-.081-.391-.163-.781-.219-1.17a.252.252,0,0,0-.239-.215,2.045,2.045,0,0,1-1.428-.413,3.772,3.772,0,0,1-.692-1.078,2.978,2.978,0,0,0-1.466-1.641l-.1.229h0l.028-.269a.247.247,0,0,0-.328.1,1.462,1.462,0,0,0-.144.313,3.826,3.826,0,0,0,.429,2.814,5.591,5.591,0,0,1,.5,1.533c.059.533.028,1.656-.008,2.957C16.06,83.16,16.06,86.949,17.331,87.429Z"/><path d="M17.54,68.366a.426.426,0,0,1,.1-.147.251.251,0,0,0-.021-.372.417.417,0,0,1-.1-.119.256.256,0,0,0-.087-.086.521.521,0,0,1-.239-.3.267.267,0,0,0-.234-.171l-.014.249h0l-.061-.254a1.969,1.969,0,0,0-.593.015c-.323.092-.439.441-.532.722a1.3,1.3,0,0,1-.12.288c-.019.032-.037.062-.058.091a.25.25,0,0,0,.2.4.228.228,0,0,0,.063-.009,6.253,6.253,0,0,1,1.467-.155A.252.252,0,0,0,17.54,68.366Z"/><path d="M18.162,71.819h0a1.946,1.946,0,0,0,1.922,1.161,7.283,7.283,0,0,1,.807.109c.5.1,1.011.207,1.523.313,1.619.336,3.294.684,4.962.935a.243.243,0,0,0,.038,0,.25.25,0,0,0,.235-.335,4.181,4.181,0,0,0-.48-.951c-.088-.133-.175-.258-.259-.378a2.923,2.923,0,0,1-.719-1.67.25.25,0,0,0-.221-.24,17.828,17.828,0,0,1-2.183-.437c-.386-.094-.773-.189-1.173-.272a.282.282,0,0,0-.135.009.609.609,0,0,1-.6-.1.255.255,0,0,0-.13-.062,12.319,12.319,0,0,0-4.8-.027.25.25,0,0,0-.066.449A3.7,3.7,0,0,1,18.162,71.819Z"/><path d="M37.3,53.179a.25.25,0,0,0,.139.177.667.667,0,0,1,.316.361c.445,1.22.091,2.853-.22,4.294-.1.442-.187.864-.25,1.25-.114.7-.29,1.407-.475,2.137a.248.248,0,0,0,.094.263.251.251,0,0,0,.148.048.248.248,0,0,0,.131-.037c.587-.361,1.188-.724,1.8-1.079a.25.25,0,0,0,.124-.2,8.861,8.861,0,0,1,.786-3.489,8.434,8.434,0,0,0,.5-1.314,4.814,4.814,0,0,1,1-2.03,4.015,4.015,0,0,1,2.16-.857c.274-.051.552-.1.835-.174,1.09-.272,2.24-.451,3.353-.625l.741-.117a.588.588,0,0,1,.642.25c.443.7.318,2.042-.374,4a.249.249,0,0,0,.294.326l.088-.023a1.4,1.4,0,0,1,.156-.036c3.048-.614,5.882-1.256,8.423-1.907.587-.148,1.2-.292,1.816-.438A39.9,39.9,0,0,0,65.534,52.2a.249.249,0,0,0,.153-.253,8.472,8.472,0,0,0-1.216-4.324.253.253,0,0,0-.2-.1h-1.6c-2.964,0-5.765,0-8.636.052-1.057.17-2.122.418-3.151.658a32.717,32.717,0,0,1-4.435.819c-4.279.383-6.913,1.514-9.095,3.9A.252.252,0,0,0,37.3,53.179Z"/><path d="M23.505,57.343a.248.248,0,0,0-.2.189,12.432,12.432,0,0,0-.078,5.312.255.255,0,0,0,.115.162.257.257,0,0,0,.135.038.27.27,0,0,0,.063-.007.918.918,0,0,1,.125-.027,4.424,4.424,0,0,0,.8-.122.251.251,0,0,0,.191-.243,2.909,2.909,0,0,1,.048-.391v-.2a11.058,11.058,0,0,0-.125-2.05,6.984,6.984,0,0,0-.821-2.556A.26.26,0,0,0,23.505,57.343Z"/><path d="M46.028,32.285c0-.4.014-.7.026-.94.022-.474.032-.711-.13-.885s-.383-.171-.76-.178l-.289-.007a.249.249,0,0,0-.258.25c.008,5.459-.491,15.062-.547,16.139a.249.249,0,0,0,.249.263.2.2,0,0,0,.034,0c.408-.054.809-.095,1.218-.136a.25.25,0,0,0,.222-.214,13.662,13.662,0,0,0,.033-2.206c-.011-.284-.021-.524-.016-.677.055-1.533.052-3.093.049-4.6l0-1.044c0-.957.044-1.929.085-2.869S46.028,33.253,46.028,32.285Z"/><path d="M40.825,31.453a26.151,26.151,0,0,1,.293,2.92l.032.731a28.592,28.592,0,0,0,.237,3.014c.036.236.049.446.061.63.051.782.142,1.263,1.339,1.288l.093.025a.272.272,0,0,0,.069.009.25.25,0,0,0,.25-.237l.028-.526c.152-2.838.3-5.519.308-8.322a.251.251,0,0,0-.087-.191.254.254,0,0,0-.2-.057C40.822,31.126,40.822,31.165,40.825,31.453Z"/><path d="M28.486,50.741a.252.252,0,0,0-.3-.07,6.961,6.961,0,0,0-2.689,2.166A12.75,12.75,0,0,0,23.852,55.8a.25.25,0,0,0,.077.287,2.9,2.9,0,0,1,.416.4.248.248,0,0,0,.192.09.225.225,0,0,0,.044,0,.247.247,0,0,0,.191-.162,11.275,11.275,0,0,1,3.762-5.237.251.251,0,0,0,0-.393Z"/><path d="M39.793,48.868a.239.239,0,0,0-.194-.062c-.3.034-.6.068-.9.094-.1.008-.194.019-.29.03s-.168.019-.274.028c-.476.082-1.006.15-1.634.212-6.227,1-9.851,3.885-11.082,8.816a.482.482,0,0,1-.052.13.25.25,0,0,0-.024.21,8.623,8.623,0,0,1,.439,2.592c0,.206.011.422.023.643a7.691,7.691,0,0,1,0,1.094.255.255,0,0,0,.061.189.252.252,0,0,0,.179.085c1.063.036,2.212.1,3.507.191a.537.537,0,0,1,.244.077.246.246,0,0,0,.136.04.263.263,0,0,0,.077-.012.248.248,0,0,0,.155-.147l.12-.306c.254-.647.517-1.316.71-1.989l.123-.434a7.078,7.078,0,0,1,.951-2.308,20.511,20.511,0,0,1,2.7-3.228.248.248,0,0,0,.08-.183.474.474,0,0,1,.084-.248,13.916,13.916,0,0,1,4.888-4.909.278.278,0,0,0,.114-.191.311.311,0,0,0-.058-.228A.246.246,0,0,0,39.793,48.868Z"/><path d="M45.765,27.28c-.387-.883-1.7-1.7-1.717-2.664a.575.575,0,0,0-1.15,0,2.8,2.8,0,0,0,.886,1.888,3.251,3.251,0,0,1,1.072,3.065c-.159.722.95,1.03,1.109.306A4.139,4.139,0,0,0,45.765,27.28Z"/><path d="M14.024,65.6A9.73,9.73,0,0,1,19,64.184a.575.575,0,0,0,0-1.15A10.942,10.942,0,0,0,13.443,64.6.576.576,0,0,0,14.024,65.6Z"/><path d="M55.489,33.994c-2.015.616-4.183,1.5-5.131,3.536a10.1,10.1,0,0,0-.585,3.1,45.871,45.871,0,0,1-1.215,6.113.575.575,0,0,0,1.109.3,46.582,46.582,0,0,0,1.2-5.965c.186-1.441.13-2.818,1.166-4A7.787,7.787,0,0,1,55.8,35.1C56.5,34.887,56.2,33.777,55.489,33.994Z"/><path d="M47.135,33.242q3.3.389,6.614.5c.74.025.739-1.125,0-1.15q-3.319-.114-6.614-.5C46.4,32.005,46.408,33.156,47.135,33.242Z"/><path d="M103.566,28.092a10.088,10.088,0,0,0-.153,2.16c.015.275.041.549.08.822a8.051,8.051,0,0,1,.285,1.313c-.152.62-1.6.76-2.123.9-.938.25-1.882.477-2.829.69-.722.162-.416,1.271.306,1.109,1.1-.249,2.2-.517,3.3-.817a5.122,5.122,0,0,0,2.213-.816c.416-.417.335-.845.244-1.371a10.467,10.467,0,0,1-.212-3.683C104.793,27.674,103.685,27.362,103.566,28.092Z"/><path d="M101.96,40.877l-.138,2.248-1.2-.085c-.739-.052-.736,1.1,0,1.15l2.247.159c.7.05.726-.98.092-1.125l.145-2.347C103.156,40.138,102.006,40.141,101.96,40.877Z"/></g></svg>