<svg xmlns="http://www.w3.org/2000/svg" xmlns:xlink="http://www.w3.org/1999/xlink" version="1.1" x="0px" y="0px" viewBox="0 0 100 125" enable-background="new 0 0 100 100" xml:space="preserve"><path d="M48.979,19.715l3.654-2.303l-3.093-6.138l9.946-6.27l4.204,5.438l3.676-2.317c0.982,1.558,0.515,3.618-1.043,4.6  l-0.663,0.418c1.17,1.205,1.893,2.846,1.893,4.658c0,3.695-2.995,6.69-6.69,6.69c-2.879,0-5.325-1.822-6.269-4.372l-1.015,0.64  C52.021,21.74,49.961,21.273,48.979,19.715z M73.724,25.81c-2.274-2.29-5.974-2.303-8.263-0.03c-1.113,1.105-1.684,2.547-1.72,4  c-0.023,0.158-0.039,10.78-0.039,10.78H49.76c-1.842,0-3.335,1.493-3.335,3.335c0,1.844,1.496,3.338,3.34,3.335  c4.102-0.006,17.744-0.002,17.744-0.002c1.599-0.099,2.871-1.427,2.871-3.051v-2.783h1.67v2.783c0,2.608-2.122,4.73-4.73,4.73  h-2.172l5.948,42.355c0.301,2.145,2.137,3.741,4.303,3.741l0,0c2.263,0,4.147-1.737,4.331-3.992c0,0,3.282-37.289,3.282-40.523  C83.01,43.343,78.187,30.305,73.724,25.81z M53.444,86.49c-0.844,0-1.528,0.684-1.528,1.528s0.684,1.528,1.528,1.528  s1.528-0.684,1.528-1.528C54.973,87.175,54.289,86.49,53.444,86.49z M46.425,90.023c-0.844,0-1.528,0.684-1.528,1.528  s0.684,1.528,1.528,1.528s1.528-0.684,1.528-1.528S47.269,90.023,46.425,90.023z M56.702,90.44c-0.844,0-1.528,0.684-1.528,1.528  s0.684,1.528,1.528,1.528c0.844,0,1.528-0.684,1.528-1.528C58.231,91.124,57.546,90.44,56.702,90.44z M44.472,67.603  c0.525,1.547,0.778,3.15,0.778,4.762c0,2.006-0.403,4.003-1.209,5.878c-1.378,3.197-3.806,5.831-6.89,7.462l-7.378,3.9l1.031,4.181  h2.662l1.162,1.162h-6.393l1.162-1.162l-0.994-4.069l-6.974-5.512V81.59l-1.087-1.284c-1.144-1.34-2.025-2.859-2.625-4.481  s-0.919-3.347-0.919-5.109c0-2.878,0.862-5.681,2.475-8.062l0.731-1.078l8.381,9.599l3.862-0.769  c1.378-0.272,2.494-1.275,2.915-2.615l1.903-6.037c0.431-1.387,1.565-2.4,2.925-2.719l-0.038-0.103l-0.197-0.441  c-0.15-0.337,0.103-0.722,0.469-0.722h1.725c0.947,0,1.8,0.562,2.175,1.434l0.544,1.275l0.684,0.3  c0.647,0.291,1.059,0.928,1.059,1.64h-1.744v0.019c0,0.422-0.187,0.797-0.478,1.059c-0.244,0.225-0.562,0.366-0.909,0.375h-0.028  l0.253,0.872L44.472,67.603z M42.028,61.078c0,0.337,0.281,0.617,0.617,0.617c0.337,0,0.606-0.281,0.606-0.617  c0-0.337-0.269-0.606-0.606-0.606C42.308,60.472,42.028,60.741,42.028,61.078z M38.918,70.786h-1.575v0.755  c0,1.65-0.485,3.245-1.402,4.612c-1.538,2.275-4.092,3.633-6.833,3.633h-3.032l2.55-3.778h-1.908l-3.605,5.353h5.994  c3.266,0,6.308-1.621,8.137-4.336c1.094-1.618,1.673-3.514,1.673-5.484L38.918,70.786L38.918,70.786z"/></svg>