<svg xmlns="http://www.w3.org/2000/svg" xmlns:xlink="http://www.w3.org/1999/xlink" version="1.1" x="0px" y="0px" viewBox="0 0 100 125" enable-background="new 0 0 100 100" xml:space="preserve"><path d="M28.556,62.571c0.496-0.31,2.021-1.318,2.74-1.794c0.124-0.082,0.279,0.029,0.249,0.175  c-0.383,1.918-0.445,3.902-2.109,4.923c-0.242,0.149-0.547-0.046-0.537-0.33c0.038-1.009-0.09-1.94-0.406-2.782  C28.467,62.691,28.49,62.612,28.556,62.571z"/><path d="M85.66,87.229c0,1.036-0.841,1.877-1.877,1.877H16.217c-1.037,0-1.877-0.841-1.877-1.877V34.678  c0-0.627,0.314-1.214,0.836-1.562l33.783-22.522c0.63-0.42,1.452-0.42,2.082,0l33.783,22.522c0.522,0.348,0.836,0.934,0.836,1.562  V87.229z M18.094,85.352h63.812v-49.67L50,14.412L18.094,35.682V85.352z"/><path d="M76.665,66.023c0.015,0.022,0.015,0.05,0,0.072c-0.015,0.022-0.041,0.033-0.067,0.028c-0.38-0.074-1.374-0.357-1.737-1.344  c-0.819-2.228,0.623-4.87-2.135-5.491c-0.239-1.144-0.717-2.198-1.373-3.119c2.074,0.038,3.987,1.083,4.538,3.295  C76.364,61.36,74.907,63.376,76.665,66.023z"/><path d="M72.042,60.351c-0.327-3.928-3.78-6.865-7.722-6.865H45.793c-0.494,0-0.976,0.051-1.444,0.142l-6.372-5.631l0.01-8.647  c0.001-0.498-0.681-0.642-0.881-0.185l-2.568,5.857L24.453,57.347c-1.008,1.232-0.988,3.081,0.175,4.168  c1.05,0.981,2.633,1.113,3.829,0.324l6.717-4.431l3.134,3.149c-0.008,0.145-0.022,0.289-0.022,0.437  c0,0.319,0.027,0.632,0.065,0.941l0.74,13.247c0.025,0.442,0.39,0.788,0.833,0.788h2.426c0.443,0,0.808-0.346,0.833-0.788  l0.392-7.015c0.701,0.217,1.446,0.334,2.219,0.334h16.134l0.568,6.704c0.037,0.432,0.398,0.764,0.831,0.764h2.471  c0.433,0,0.795-0.332,0.831-0.764L67.238,68C70.247,66.849,72.331,63.826,72.042,60.351z M33.507,52.62  c-0.678,0-1.227-0.549-1.227-1.227c0-0.678,0.549-1.227,1.227-1.227c0.678,0,1.227,0.549,1.227,1.227  C34.734,52.07,34.185,52.62,33.507,52.62z"/></svg>