<svg xmlns="http://www.w3.org/2000/svg" viewBox="0 0 64 80" width="100x" height="100px"  fill="#0A2443"><g><path class="st0" d="M30.8,29.2c0.2,0.1,0.4,0.2,0.6,0.3c0.1,0,0.2,0.1,0.3,0.1c0.3,0.1,0.5,0.3,0.8,0.4c0,0,0.1,0.1,0.1,0.1   c0.2,0.1,0.3,0.2,0.4,0.4c0.1,0.2,0.2,0.4,0.2,0.6c0,0.2,0,0.3-0.1,0.4c-0.1,0.1-0.2,0.3-0.3,0.4c0,0-0.1,0-0.1,0.1   c-0.1,0.1-0.3,0.1-0.5,0.2c-0.2,0-0.4,0.1-0.7,0.1c0,0-0.1,0-0.1,0c-0.5,0-1.1-0.1-1.6-0.3c-0.3-0.1-0.6-0.2-0.8-0.4   c-0.3-0.2-0.6,0-0.6,0.4v1.1c0,0.4,0.2,0.7,0.6,0.8c0.3,0.1,0.5,0.2,0.9,0.2c0.5,0.1,1.1,0.2,1.7,0.2v0.7h1.2V34   c0.2,0,0.3-0.1,0.5-0.1c0.5-0.1,1-0.3,1.4-0.6c0.4-0.3,0.7-0.6,0.9-1c0.2-0.4,0.3-0.9,0.3-1.5c0-0.4-0.1-0.8-0.2-1.2   S35.2,29,35,28.8c-0.3-0.3-0.6-0.5-0.9-0.7s-0.7-0.4-1.2-0.6c-0.1,0-0.2-0.1-0.3-0.1c-0.2-0.1-0.4-0.2-0.5-0.3   c-0.2-0.1-0.5-0.2-0.6-0.4c0,0,0,0,0,0c-0.2-0.1-0.3-0.3-0.4-0.4c-0.1-0.1-0.1-0.3-0.1-0.5c0-0.2,0-0.3,0.1-0.5   c0.1-0.1,0.2-0.3,0.4-0.3c0,0,0,0,0.1,0c0.1-0.1,0.3-0.1,0.5-0.2c0.2,0,0.4-0.1,0.7-0.1c0,0,0.1,0,0.1,0c0.2,0,0.4,0,0.6,0   c0.2,0,0.5,0.1,0.7,0.1c0.2,0.1,0.5,0.1,0.7,0.2c0.3,0.1,0.6-0.1,0.6-0.4v-1c0-0.4-0.3-0.7-0.6-0.8c-0.2,0-0.4-0.1-0.6-0.1   c-0.4-0.1-0.9-0.1-1.5-0.1V22h-1.2v0.8c-0.2,0-0.3,0.1-0.5,0.1c-0.5,0.1-1,0.3-1.4,0.6c-0.4,0.3-0.7,0.6-0.9,1   c-0.2,0.4-0.3,0.9-0.3,1.5c0,0.7,0.2,1.4,0.6,1.9S29.9,28.8,30.8,29.2z"/><path class="st0" d="M42.8,15.9c0.2,0.1,0.3,0.1,0.5,0.2c0.1,0,0.2,0.1,0.2,0.1c0.2,0.1,0.4,0.2,0.5,0.3c0,0,0.1,0,0.1,0.1   c0.1,0.1,0.2,0.2,0.3,0.3c0.1,0.1,0.1,0.3,0.1,0.4c0,0.1,0,0.2-0.1,0.3c-0.1,0.1-0.1,0.2-0.3,0.3c0,0-0.1,0-0.1,0   C44,18,43.9,18,43.7,18c-0.1,0-0.3,0.1-0.5,0.1c0,0-0.1,0-0.1,0c-0.4,0-0.8-0.1-1.1-0.2c-0.2-0.1-0.4-0.2-0.6-0.3   c-0.2-0.1-0.5,0-0.5,0.3v0.8c0,0.3,0.2,0.5,0.4,0.6c0.2,0.1,0.4,0.1,0.6,0.2c0.4,0.1,0.8,0.1,1.2,0.1V20h0.9v-0.6   c0.1,0,0.2,0,0.4-0.1c0.4-0.1,0.7-0.2,1-0.4c0.3-0.2,0.5-0.4,0.7-0.7c0.2-0.3,0.3-0.7,0.3-1.1c0-0.3,0-0.6-0.1-0.8   s-0.2-0.5-0.4-0.6c-0.2-0.2-0.4-0.4-0.7-0.5c-0.3-0.2-0.5-0.3-0.9-0.4c-0.1,0-0.2-0.1-0.2-0.1c-0.1-0.1-0.3-0.1-0.4-0.2   c-0.2-0.1-0.3-0.2-0.5-0.3c0,0,0,0,0,0c-0.1-0.1-0.2-0.2-0.3-0.3c-0.1-0.1-0.1-0.2-0.1-0.4c0-0.1,0-0.2,0.1-0.3   c0.1-0.1,0.2-0.2,0.3-0.3c0,0,0,0,0.1,0c0.1-0.1,0.2-0.1,0.4-0.1c0.1,0,0.3-0.1,0.5-0.1c0,0,0,0,0.1,0c0.1,0,0.3,0,0.5,0   c0.2,0,0.3,0.1,0.5,0.1c0.2,0,0.3,0.1,0.5,0.2c0.2,0.1,0.4-0.1,0.4-0.3V12c0-0.3-0.2-0.5-0.5-0.6c-0.1,0-0.3-0.1-0.4-0.1   c-0.3,0-0.7-0.1-1.1-0.1v-0.5h-0.9v0.6c-0.1,0-0.3,0-0.4,0.1c-0.4,0.1-0.7,0.2-1,0.4c-0.3,0.2-0.5,0.4-0.7,0.7   c-0.2,0.3-0.3,0.7-0.3,1.1c0,0.5,0.2,1,0.5,1.4C41.7,15.4,42.1,15.7,42.8,15.9z"/><path class="st0" d="M31.3,9.3c0.1,0,0.2,0.1,0.3,0.1c0.1,0,0.1,0.1,0.2,0.1c0.2,0.1,0.3,0.1,0.4,0.2c0,0,0,0,0.1,0   c0.1,0.1,0.2,0.1,0.2,0.2c0.1,0.1,0.1,0.2,0.1,0.3c0,0.1,0,0.2-0.1,0.2c0,0.1-0.1,0.1-0.2,0.2c0,0,0,0-0.1,0   c-0.1,0-0.2,0.1-0.3,0.1c-0.1,0-0.2,0-0.4,0c0,0,0,0-0.1,0c-0.3,0-0.6-0.1-0.9-0.2c-0.2-0.1-0.3-0.1-0.4-0.2   c-0.2-0.1-0.3,0-0.3,0.2v0.6c0,0.2,0.1,0.4,0.3,0.4c0.1,0,0.3,0.1,0.5,0.1c0.3,0.1,0.6,0.1,0.9,0.1v0.4h0.6v-0.4c0.1,0,0.2,0,0.3,0   c0.3-0.1,0.5-0.2,0.7-0.3c0.2-0.1,0.4-0.3,0.5-0.5c0.1-0.2,0.2-0.5,0.2-0.8c0-0.2,0-0.4-0.1-0.6s-0.2-0.3-0.3-0.5   c-0.1-0.1-0.3-0.3-0.5-0.4s-0.4-0.2-0.6-0.3c-0.1,0-0.1,0-0.2-0.1c-0.1,0-0.2-0.1-0.3-0.1C31.9,8.1,31.8,8,31.7,8c0,0,0,0,0,0   c-0.1-0.1-0.2-0.1-0.2-0.2c-0.1-0.1-0.1-0.2-0.1-0.3c0-0.1,0-0.2,0.1-0.2c0-0.1,0.1-0.1,0.2-0.2c0,0,0,0,0,0c0.1,0,0.2-0.1,0.3-0.1   c0.1,0,0.2,0,0.4,0c0,0,0,0,0,0c0.1,0,0.2,0,0.3,0c0.1,0,0.2,0,0.4,0.1c0.1,0,0.2,0.1,0.4,0.1c0.2,0.1,0.3,0,0.3-0.2V6.4   c0-0.2-0.1-0.4-0.3-0.4c-0.1,0-0.2,0-0.3-0.1c-0.2,0-0.5-0.1-0.8-0.1V5.4h-0.6v0.4c-0.1,0-0.2,0-0.3,0.1c-0.3,0.1-0.5,0.2-0.7,0.3   c-0.2,0.1-0.4,0.3-0.5,0.5C30,7,30,7.3,30,7.6c0,0.4,0.1,0.7,0.3,1C30.5,8.9,30.9,9.1,31.3,9.3z"/><path d="M32,37.3c4.9,0,8.9-4,8.9-8.9s-4-8.9-8.9-8.9s-8.9,4-8.9,8.9S27.1,37.3,32,37.3z M28.6,24.5c0.2-0.4,0.5-0.8,0.9-1   c0.4-0.3,0.9-0.5,1.4-0.6c0.2,0,0.3-0.1,0.5-0.1V22h1.2v0.7c0.6,0,1,0,1.5,0.1c0.2,0,0.4,0.1,0.6,0.1c0.4,0.1,0.6,0.4,0.6,0.8v1   c0,0.3-0.3,0.5-0.6,0.4c-0.2-0.1-0.4-0.2-0.7-0.2c-0.2-0.1-0.5-0.1-0.7-0.1c-0.2,0-0.4,0-0.6,0c0,0-0.1,0-0.1,0   c-0.2,0-0.5,0-0.7,0.1c-0.2,0-0.4,0.1-0.5,0.2c0,0-0.1,0-0.1,0c-0.2,0.1-0.3,0.2-0.4,0.3c-0.1,0.1-0.1,0.3-0.1,0.5   c0,0.2,0,0.3,0.1,0.5c0.1,0.1,0.2,0.3,0.4,0.4c0,0,0,0,0,0c0.2,0.1,0.4,0.3,0.6,0.4c0.2,0.1,0.3,0.2,0.5,0.3c0.1,0,0.2,0.1,0.3,0.1   c0.4,0.2,0.8,0.4,1.2,0.6s0.7,0.4,0.9,0.7c0.3,0.3,0.4,0.6,0.6,0.9s0.2,0.7,0.2,1.2c0,0.6-0.1,1.1-0.3,1.5c-0.2,0.4-0.5,0.8-0.9,1   c-0.4,0.3-0.9,0.4-1.4,0.6c-0.2,0-0.3,0.1-0.5,0.1v0.8h-1.2v-0.7c-0.6,0-1.2-0.1-1.7-0.2c-0.3-0.1-0.6-0.1-0.9-0.2   c-0.3-0.1-0.6-0.4-0.6-0.8v-1.1c0-0.3,0.4-0.5,0.6-0.4c0.3,0.2,0.5,0.3,0.8,0.4c0.5,0.2,1,0.3,1.6,0.3c0,0,0.1,0,0.1,0   c0.3,0,0.5,0,0.7-0.1c0.2,0,0.3-0.1,0.5-0.2c0,0,0.1,0,0.1-0.1c0.2-0.1,0.3-0.2,0.3-0.4c0.1-0.1,0.1-0.3,0.1-0.4   c0-0.2-0.1-0.4-0.2-0.6c-0.1-0.1-0.2-0.3-0.4-0.4c0,0-0.1-0.1-0.1-0.1c-0.2-0.1-0.5-0.3-0.8-0.4c-0.1,0-0.2-0.1-0.3-0.1   c-0.2-0.1-0.4-0.2-0.6-0.3c-0.9-0.4-1.5-0.8-1.9-1.3s-0.6-1.1-0.6-1.9C28.2,25.4,28.3,24.9,28.6,24.5z"/><path d="M56,43.7c-1.1-1-3.4-1.2-4.8,0.1l-0.1,0.1c-0.2-4.7-4.7-3-4.7-3c0,0-0.1,0-0.1-0.1c-1.1-3.8-5.5-1.6-5.5-1.6L34.2,43   c0.4,0,0.9,0.1,1.4,0.1c0.3,0,0.6,0.1,0.9,0.1c0.9,0.1,1.6,0.3,2.2,0.6c0.7,0.4,1.2,0.9,1.5,1.5c0.1,0.2,0.2,0.6,0.2,1   c0,0.6-0.2,1.4-1,2.3c0,0.1-0.1,0.1-0.1,0.2c-0.8,0.9-2,1.6-3.4,2.2c-1.7,0.7-3.8,1.2-6.1,1.2c-1.4,0-2.9-0.2-4.3-0.6l-0.9-0.2   c-0.1,0-0.1-0.1-0.1-0.1V50c0-0.1,0.1-0.1,0.2-0.1c10.3,3.6,19.8-5,10.9-5.6c-8.9-0.6-9.4-2.6-9.4-2.9c0,0,0,0,0-0.1   C20.8,33.2,8.5,42.2,7.4,43c0,0-0.1,0.1,0,0.1L7.8,44l5.5,10.3l0.9,1.6c0,0,0.1,0.1,0.1,0.1l0,0c0.7-0.3,1.4-0.8,2-1.3   c1.4-1.2,2.8-1.1,4.4-0.2c2.8,1.5,5.6,2.9,8.4,4.4c0.6,0.3,1.2,0.6,1.8,0.8c0,0,0,0,0,0c2.3,0.5,4.3,0.2,5.8-0.4   c1.7-0.6,2.8-1.4,2.8-1.5c0,0,0,0,0,0l14.8-9.7c0.7-0.5,1.2-1,1.5-1.4C57,45.5,56.8,44.4,56,43.7z"/><path d="M43.6,21.9c3.6,0,6.5-2.9,6.5-6.5s-2.9-6.5-6.5-6.5c-3.6,0-6.5,2.9-6.5,6.5S40.1,21.9,43.6,21.9z M41.1,12.5   c0.2-0.3,0.4-0.5,0.7-0.7c0.3-0.2,0.6-0.3,1-0.4c0.1,0,0.2-0.1,0.4-0.1v-0.6h0.9v0.5c0.4,0,0.8,0,1.1,0.1c0.1,0,0.3,0.1,0.4,0.1   c0.3,0.1,0.5,0.3,0.5,0.6v0.7c0,0.2-0.2,0.4-0.4,0.3c-0.2-0.1-0.3-0.1-0.5-0.2c-0.2,0-0.3-0.1-0.5-0.1c-0.2,0-0.3,0-0.5,0   c0,0,0,0-0.1,0c-0.2,0-0.3,0-0.5,0.1c-0.1,0-0.3,0.1-0.4,0.1c0,0,0,0-0.1,0C43,13,42.9,13,42.9,13.1c-0.1,0.1-0.1,0.2-0.1,0.3   c0,0.1,0,0.3,0.1,0.4c0.1,0.1,0.2,0.2,0.3,0.3c0,0,0,0,0,0c0.1,0.1,0.3,0.2,0.5,0.3c0.1,0.1,0.3,0.1,0.4,0.2c0.1,0,0.2,0.1,0.2,0.1   c0.3,0.1,0.6,0.3,0.9,0.4c0.3,0.2,0.5,0.3,0.7,0.5c0.2,0.2,0.3,0.4,0.4,0.6s0.1,0.5,0.1,0.8c0,0.4-0.1,0.8-0.3,1.1   c-0.2,0.3-0.4,0.5-0.7,0.7c-0.3,0.2-0.6,0.3-1,0.4c-0.1,0-0.2,0-0.4,0.1V20h-0.9v-0.5c-0.4,0-0.9,0-1.2-0.1c-0.2,0-0.4-0.1-0.6-0.2   c-0.2-0.1-0.4-0.3-0.4-0.6v-0.8c0-0.2,0.3-0.4,0.5-0.3c0.2,0.1,0.4,0.2,0.6,0.3c0.4,0.1,0.8,0.2,1.1,0.2c0,0,0.1,0,0.1,0   c0.2,0,0.4,0,0.5-0.1c0.1,0,0.2-0.1,0.3-0.1c0,0,0.1,0,0.1,0c0.1-0.1,0.2-0.2,0.3-0.3c0.1-0.1,0.1-0.2,0.1-0.3c0-0.2,0-0.3-0.1-0.4   c-0.1-0.1-0.2-0.2-0.3-0.3c0,0-0.1,0-0.1-0.1c-0.2-0.1-0.3-0.2-0.5-0.3c-0.1,0-0.2-0.1-0.2-0.1c-0.1-0.1-0.3-0.1-0.5-0.2   c-0.6-0.3-1.1-0.6-1.4-1c-0.3-0.4-0.5-0.8-0.5-1.4C40.9,13.2,41,12.8,41.1,12.5z"/><path d="M32,13.7c2.7,0,4.8-2.2,4.8-4.8c0-2.7-2.2-4.8-4.8-4.8s-4.8,2.2-4.8,4.8C27.2,11.5,29.3,13.7,32,13.7z M30.2,6.8   c0.1-0.2,0.3-0.4,0.5-0.5c0.2-0.1,0.5-0.2,0.7-0.3c0.1,0,0.2,0,0.3-0.1V5.4h0.6v0.4c0.3,0,0.6,0,0.8,0.1c0.1,0,0.2,0,0.3,0.1   c0.2,0,0.3,0.2,0.3,0.4v0.5c0,0.2-0.2,0.3-0.3,0.2C33.3,7.1,33.2,7,33.1,7c-0.1,0-0.2-0.1-0.4-0.1c-0.1,0-0.2,0-0.3,0c0,0,0,0,0,0   c-0.1,0-0.3,0-0.4,0c-0.1,0-0.2,0.1-0.3,0.1c0,0,0,0,0,0c-0.1,0.1-0.2,0.1-0.2,0.2c0,0.1-0.1,0.2-0.1,0.2c0,0.1,0,0.2,0.1,0.3   c0.1,0.1,0.1,0.2,0.2,0.2c0,0,0,0,0,0C31.8,8,31.9,8.1,32,8.2c0.1,0,0.2,0.1,0.3,0.1c0.1,0,0.1,0,0.2,0.1c0.2,0.1,0.4,0.2,0.6,0.3   s0.4,0.2,0.5,0.4c0.1,0.1,0.2,0.3,0.3,0.5S34,9.9,34,10.2c0,0.3-0.1,0.6-0.2,0.8c-0.1,0.2-0.3,0.4-0.5,0.5   c-0.2,0.1-0.5,0.2-0.7,0.3c-0.1,0-0.2,0-0.3,0v0.4h-0.6V12c-0.3,0-0.6,0-0.9-0.1c-0.2,0-0.3-0.1-0.5-0.1c-0.2-0.1-0.3-0.2-0.3-0.4   v-0.6c0-0.2,0.2-0.3,0.3-0.2c0.1,0.1,0.3,0.2,0.4,0.2c0.3,0.1,0.6,0.2,0.9,0.2c0,0,0,0,0.1,0c0.1,0,0.3,0,0.4,0   c0.1,0,0.2-0.1,0.3-0.1c0,0,0,0,0.1,0c0.1-0.1,0.1-0.1,0.2-0.2c0-0.1,0.1-0.2,0.1-0.2c0-0.1,0-0.2-0.1-0.3   c-0.1-0.1-0.1-0.1-0.2-0.2c0,0,0,0-0.1,0c-0.1-0.1-0.2-0.2-0.4-0.2c-0.1,0-0.1-0.1-0.2-0.1c-0.1,0-0.2-0.1-0.3-0.1   c-0.5-0.2-0.8-0.4-1-0.7C30.1,8.3,30,8,30,7.6C30,7.3,30,7,30.2,6.8z"/></g></svg>