<svg xmlns="http://www.w3.org/2000/svg" xmlns:xlink="http://www.w3.org/1999/xlink" version="1.1" x="0px" y="0px" fill="#0A2443" width="150px" height="150px" viewBox="0 0 100 125" ><circle cx="63" cy="40.5" r="4.4"/><path d="M66.3,46.3h-6.5c-2.5,0-4.6,2-4.6,4.6v9.3c0,2.2,1.5,4.1,3.7,4.5v10.1c0,1.8,1.5,3.4,3.3,3.4h1.5c1.9,0,3.4-1.5,3.4-3.4l0,0  v-10c2.2-0.4,3.7-2.3,3.7-4.5v-9.3C70.8,48.4,68.8,46.3,66.3,46.3z"/><circle cx="34.6" cy="56.8" r="2.5"/><path d="M36.4,60.1h-3.7c-1.5,0-2.6,1.1-2.6,2.6v5.2c0,1.3,0.9,2.3,2.1,2.5v5.7c0,1.1,0.9,1.9,1.9,1.9h0.8c1.1,0,1.9-0.9,1.9-1.9  v-5.7c1.2-0.3,2.1-1.3,2.1-2.5v-5.2C39,61.3,37.8,60.1,36.4,60.1z"/><circle cx="47.1" cy="49.8" r="3.4"/><path d="M49.5,54.1h-4.9c-1.9,0-3.4,1.5-3.4,3.4v7c0,1.7,1.2,3,2.8,3.4v7.6c0,1.4,1.2,2.5,2.5,2.5h1.1c1.4,0,2.5-1.2,2.5-2.5v-7.6  c1.6-0.3,2.8-1.8,2.8-3.4v-7C53,55.7,51.4,54.1,49.5,54.1z"/><path d="M68.1,29.5l-1-7.6l-7.6,1l-2.8,3.7l5-0.7c-0.2,0.3-0.5,0.6-0.8,1c-0.5,0.7-1.2,1.4-1.8,2.1c-0.7,0.8-1.4,1.6-2.2,2.5  c-0.8,0.8-1.7,1.8-2.6,2.7c-1,0.9-1.9,1.8-2.9,2.7c-1,0.9-2.1,1.8-3.2,2.7l-1.6,1.3c-0.6,0.4-1.1,0.8-1.7,1.2  c-1.1,0.8-2.2,1.6-3.3,2.3c-2.2,1.4-4.3,2.7-6.1,3.7c-3.7,2-6.3,3.1-6.3,3.1s2.7-0.8,6.5-2.6c1.9-0.9,4.1-2,6.5-3.2  c1.2-0.7,2.4-1.3,3.5-2.1c0.6-0.4,1.2-0.7,1.8-1.1l1.8-1.2c1.2-0.8,2.3-1.6,3.5-2.4c1.1-0.8,2.2-1.7,3.2-2.5c1.1-0.8,2-1.7,2.9-2.5  c0.9-0.8,1.8-1.6,2.5-2.4c0.8-0.8,1.5-1.4,2.1-2.1c0.4-0.5,0.8-0.9,1.1-1.2l0.7,5.3L68.1,29.5z"/></svg>