<svg xmlns="http://www.w3.org/2000/svg" xmlns:xlink="http://www.w3.org/1999/xlink" xml:space="preserve" version="1.1" fill="#0A2443" stroke="blue" style="shape-rendering:geometricPrecision;text-rendering:geometricPrecision;image-rendering:optimizeQuality;" viewBox="0 0 200 300.25" x="0px" y="0px" fill-rule="evenodd"  clip-rule="evenodd"><defs><style type="text/css">
   
    fill="blue" stroke="blue" 
   
  </style></defs><g><path class="fil0" d="M103 123l26 -26c0,0 4,-8 0,-13 -3,-4 -46,-48 -46,-48 0,0 -9,-6 -19,1 -9,7 -28,32 -28,32 -27,82 147,255 228,228 0,0 25,-19 32,-28 8,-10 2,-18 2,-18 0,0 -45,-43 -49,-47 -4,-3 -13,1 -13,1l-26 25c-5,5 -10,4 -10,4l-101 -101c0,0 -1,-5 4,-10z"/></g></svg>