<svg xmlns="http://www.w3.org/2000/svg" xmlns:xlink="http://www.w3.org/1999/xlink" version="1.1" x="0px" y="0px" viewBox="0 0 128 160" enable-background="new 0 0 128 128" xml:space="preserve" fill="#0A2443" ><g><path d="M92.034,61.454h8.192c-1.249-18.083-15.598-32.432-33.681-33.681v8.192h-5.092v-8.192   c-18.083,1.249-32.432,15.598-33.681,33.681h8.192v5.091h-8.192c1.249,18.083,15.598,32.432,33.681,33.681v-8.192h5.092v8.192   c18.083-1.25,32.432-15.598,33.681-33.681h-8.192V61.454z M90.811,64.035l-23.047,1.729L67.632,66   c-0.734,1.332-2.126,2.159-3.632,2.159c-2.293,0-4.159-1.866-4.159-4.159c0-1.557,0.862-2.97,2.249-3.689l0.238-0.123L64,44.909   l1.673,15.279l0.237,0.124c0.727,0.378,1.323,0.961,1.723,1.688l0.13,0.237l23.047,1.729V64.035z"/><path d="M64,18c-25.364,0-46,20.636-46,46s20.636,46,46,46s46-20.636,46-46S89.364,18,64,18z M101.225,66.614   c-1.275,18.456-16.154,33.335-34.609,34.61l-1.069,0.073v-8.264h-3.092v8.264l-1.069-0.073   c-18.456-1.275-33.334-16.155-34.61-34.61l-0.073-1.069h8.264v-3.091h-8.264l0.073-1.069c1.275-18.456,16.154-33.335,34.609-34.61   l1.069-0.073v8.264h3.092v-8.264l1.069,0.073c18.456,1.275,33.335,16.154,34.61,34.609l0.073,1.069h-8.264v3.091h8.264   L101.225,66.614z"/></g></svg>