<svg xmlns="http://www.w3.org/2000/svg" width="60" height="60" fill="#83888f" viewBox="0 0 359.27 296.47749999999996"><g><polygon points="7.763,218.044 41.155,187.561 41.155,184.548 0,221.044 41.155,221.044 41.155,218.044  "/><path d="M250.315,126.438l7.185,6.606h-16.699c-0.04,0-0.078,1-0.113,1H258.2l16.664,15h-45.849l-8.642-15h13.26   c-0.035,0-0.074-1-0.113-1h-13.509l-5.966-10h7.109v-1H126.27c-0.001,0-0.004,1-0.006,1h18.959l-5.966,10h-13.263   c-0.009,0-0.016,1-0.026,1h12.926l-8.641,15h-8.099v1h7.556l-7.556,12.03v4.999l9.941-17.029h46.352l-0.222,16h2.817l-0.222-16   h27.925c0.139-1,0.256-1,0.357-1H180.81l-0.205-15h37.823l8.228,15h-10.236c0.101,0,0.218,0,0.357,1h10.396l12.975,24h-49.993v1   h50.854l23.493,43h-79.962l-0.205,3H359.27l-107.361-94.736L250.315,126.438z M178.459,149.044h-45.846l8.228-15h37.823   L178.459,149.044z M178.674,133.044h-37.489l5.683-10h31.948L178.674,133.044z M180.595,133.044l-0.142-10h31.949l5.682,10H180.595   z M268.76,218.044l-24.671-43h59.842l47.576,43H268.76z M243.184,174.044l-13.626-24h46.352l26.275,24H243.184z"/><path d="M72.276,0c-12.426,0-22.5,10.073-22.5,22.5c0,12.427,10.074,22.5,22.5,22.5c12.428,0,22.5-10.073,22.5-22.5   C94.776,10.073,84.704,0,72.276,0z M72.276,38.912c-5.931,0-11.126-2.868-14.035-7.868h28.07   C83.403,36.044,78.208,38.912,72.276,38.912z"/><path d="M183.285,176.044h2.87v-6h-51v6h2.526l0.251,3.856l23.263-6.457c1.067-0.294,2.167,0.338,2.464,1.403   c0.296,1.064-0.326,2.173-1.39,2.47l-24.068,6.71l1.82,27.562c0.777,0.172,1.537,0.319,2.242,0.452   c2.819,0.529,4.858,0.913,5.411,2.805c0.334,1.145-0.118,2.306-1.344,3.454c-0.83,0.778-1.086,1.472-0.998,1.695   c0.191,0.482,2.058,1.738,8.324,1.738c0.479,0,0.982-0.008,1.505-0.021c0.323-0.01,0.637-0.065,0.949-0.065   c6.683,0,10.899,2.399,12.863,4.399h11.009L183.285,176.044z"/><path d="M138.881,181.762c-0.297-1.063-1.4-1.687-2.464-1.389l-5.722,1.596c-1.064,0.296-1.687,1.399-1.39,2.463   c0.247,0.884,1.051,1.463,1.926,1.463c0.178,0,0.358-0.024,0.538-0.074l5.722-1.596   C138.556,183.929,139.178,182.826,138.881,181.762z"/><path d="M99.155,126.819V107.88V74.792c5,9.298,8.536,28.028,6.481,63.166c-0.258,4.411,2.986,8.196,7.398,8.454   c0.082,0.005,0.122,0.005,0.122,0.007v68.263c-5,1.308-9.914,3.026-6.528,5.974c5.697,4.962-5.046,13.844,9.197,14.989   c14.244,1.145,38.214,0.658,47.329-1.633c9.116-2.289,5.718-10.686-7.955-10.303c-13.674,0.381-13.094-4.199-10.245-6.87   c2.849-2.671-2.273-2.29-7.401-3.816c-5.128-1.526-9.275-2.62-14.404-0.712c-1.143,0.425-2.992,0.83-4.992,1.255v-68.731   c2-1.363,3.066-3.489,3.209-5.942c1.396-23.862,0.791-43.037-3.209-57.392V11.044h-5v56.35c-2-4.238-4.452-7.72-7.332-10.426   c-5.617-5.278-11.023-6.009-13.835-6.073c-0.158-0.01-0.233,0.149-0.393,0.149H52.96c-0.296,0-0.587-0.152-0.875-0.12   c-2.644,0.163-7.075,0.993-11.76,4.76c-9.026,7.257-14.697,21.521-16.861,42.492c-1.282,0.481-3.607,0.715-6.319,0.732l0.029-0.193   l-0.99-5.166c-0.027-1.237-1.061-2.23-2.298-2.204c-1.237,0.027-2.228,1.06-2.201,2.297l0.959,5.073   c-1.475-0.119-2.962-0.3-4.379-0.546c-4.354-0.762-7.124,14.992-2.773,15.758c2.058,0.362,6.351,0.994,11.203,0.994   c5.877,0,12.573-0.926,17.112-4.381c3.2-2.435,5.053-5.796,5.43-9.718c1.186-12.358,3.917-20.455,5.917-25.651v32.709v18.939v98   c0,6.83,5.673,12.363,12.499,12.363c6.828,0,12.501-5.533,12.501-12.363v-89.776h4v89.776c0,6.83,5.673,12.363,12.499,12.363   c6.828,0,12.501-5.533,12.501-12.363V126.819z"/><path d="M208.49,94.044c-0.666,8-3.335,9.848-11.335,10.513v0.361c8,0.665,10.669,3.126,11.335,11.126h0.36   c0.666-8,3.305-10.461,11.305-11.126v-0.361c-8-0.665-10.639-2.513-11.305-10.513H208.49z"/><path d="M246.183,81.044c-0.567,7-3.028,8.307-9.028,8.873v0.308c6,0.566,8.461,2.819,9.028,9.819h0.307   c0.567-7,2.665-9.253,9.665-9.819v-0.308c-7-0.566-9.098-1.873-9.665-8.873H246.183z"/><path d="M203.155,154.889v0.31c7,0.571,8.879,2.845,9.451,9.845h0.31c0.572-7,2.239-9.273,9.239-9.845v-0.31   c-7-0.571-8.668-1.845-9.239-8.845h-0.31C212.034,153.044,210.155,154.318,203.155,154.889z"/><path d="M224.155,122.925v0.415c9,0.764,12.034,3.704,12.799,12.704h0.414c0.764-9,3.788-11.94,12.788-12.704v-0.415   c-9-0.763-12.023-2.882-12.788-11.882h-0.414C236.189,120.044,233.155,122.162,224.155,122.925z"/></g></svg>