<svg xmlns="http://www.w3.org/2000/svg" xmlns:xlink="http://www.w3.org/1999/xlink" xml:space="preserve" version="1.1" style="shape-rendering:geometricPrecision;text-rendering:geometricPrecision;image-rendering:optimizeQuality;"  width="100px" height="100px" viewBox="0 0 60000 75000" x="0px" y="0px" fill-rule="evenodd" clip-rule="evenodd"><defs><style type="text/css">
   
    .fil0 {fill:#0A2443}
   
  </style></defs><g><path class="fil0" d="M28063.94 23124.73c-149.28,162.23 -401.83,172.72 -564.06,23.44 -162.23,-149.28 -172.72,-401.83 -23.44,-564.06 521.64,-564.65 950.73,-1208.94 1279.15,-1900.56 1.64,-3.56 3.32,-7.1 5.07,-10.62 428.16,-905.17 683.94,-1891.07 748.6,-2885.67 109.23,-1680.33 -326.92,-3382.06 -1398.64,-4754.64 -80.9,-103.61 -165.06,-208.01 -252.05,-313.08 -378.57,-389.87 -713.78,-761.9 -1008.19,-1117.85 -2798.99,-2888.14 -7302.34,-6110.83 -10656.4,-8510.93 -652.5,-466.92 -1259.5,-901.28 -1891.29,-1361.8 -289.02,-210.67 -460.3,-292.68 -534.6,-272.08 -22.18,6.15 -25.53,153.42 -14.37,399.02 18.62,409.84 145.12,973.62 352.41,1622.37 842.35,2636.21 2953.66,6525.76 4610.54,7287.85l813.27 276.11c208.83,70.76 320.76,297.43 250,506.26 -70.76,208.83 -297.43,320.76 -506.26,250l-3478.32 -1180.91c-1050.78,-356.73 -1760.16,-458.33 -2185.45,-379.5 -150.82,27.95 -245.04,75.13 -288.93,136.87 -39.45,55.49 -47.95,144.63 -28.94,259.96 52.12,316.18 291.21,732.55 678.63,1190.38 751.24,887.76 2001.38,1895.74 3386.77,2821.62 1130.13,755.3 2346,1452.77 3453.22,1984.57 11.98,5.06 23.59,10.61 34.8,16.67 362.98,173.57 714.04,329.16 1046.23,462.88 204.51,81.98 303.85,314.24 221.87,518.75 -81.98,204.51 -314.24,303.85 -518.75,221.87 -347.36,-139.83 -714.32,-302.54 -1093.53,-484 -760.04,-315.91 -1289.67,-423.16 -1625.41,-378.27 -128.13,17.13 -210,55.43 -250.95,109.91 -43.88,58.37 -59.43,154.86 -49.79,280.56 25.79,336.25 226.92,786.12 564.84,1275.15 609.77,882.44 1628.11,1887.38 2758.12,2812.25 1233.35,1009.45 2588.48,1913.74 3685.86,2454.74 197.61,97.51 278.76,336.76 181.25,534.37 -97.51,197.61 -336.76,278.76 -534.37,181.25 -714.28,-352.14 -1527.71,-846.88 -2346.37,-1420.41l-21.61 20.96c-1415.8,1372.93 -2069.96,2007.29 -4334.12,2102.74l-352.38 14.64c-3045.29,125.67 -7927.51,327.17 -8397.86,1918.34 -147.14,497.74 -117.76,983.85 -6.35,1448.46 110.42,460.42 303.39,911.03 490.51,1333.3 562.88,-175.63 1267.18,-321.99 2109.28,-496.95 270.55,-56.21 556.7,-115.67 926.26,-195.2 215.73,-45.73 427.71,92.09 473.44,307.82 45.73,215.73 -92.09,427.71 -307.82,473.44 -282.13,60.71 -615,129.88 -929.38,195.2 -1193.19,247.91 -2096.51,435.61 -2627.75,707.74 -565.61,289.74 -643.02,764.21 -123.02,1779.29 675.25,1318.14 1510.8,1480.35 2343.77,1133.06 955.41,-398.34 1952.59,-1401.42 2754.11,-2244.74 151.87,-159.64 404.42,-165.93 564.06,-14.06 159.64,151.87 165.93,404.42 14.06,564.06 -616.1,648.23 -1343.63,1386.18 -2113.15,1919.73 2076.27,1228.49 3240.94,-513.38 3716.59,-1224.82 68.01,-101.73 124.6,-186.36 170.32,-246.22l90.92 -119.09c1608.79,-2107.54 3512.56,-4601.48 5955.06,-4229.45 1323.93,201.68 2413.84,327.73 3333.27,312.3 889.54,-14.93 1628.49,-161.55 2284.7,-501.17 1547.43,-800.87 2190.9,-2282.95 2762.92,-3600.52 123.61,-284.74 244.23,-562.54 353,-792.71 321.31,-679.88 726.27,-1271.23 1253.78,-1702.64 168.45,-137.77 348.55,-258.85 541.41,-360.98 -153.55,-97.45 -293.72,-209.59 -417.57,-334.02 -155.33,-156.19 -154.63,-408.73 1.56,-564.06 156.19,-155.33 408.73,-154.63 564.06,1.56 158.49,159.23 361.49,290.17 595.04,381.33 227.97,88.97 485.1,138.75 758.82,138.75 490.24,0 929.59,-160.24 1243.58,-419.28 193.73,-159.82 338.44,-357.83 414.04,-577.36 5.34,-35.58 15.46,-70.02 29.85,-102.47 19.16,-80.23 29.2,-162.86 29.2,-247.14 0,-357.78 -180.8,-685.84 -473.09,-926.97 -313.99,-259.04 -753.34,-419.28 -1243.58,-419.28 -224.34,0 -436.05,32.89 -631.33,95.91 -197.84,63.84 -383.22,159.49 -552.01,284 -128.99,95.14 -252.94,214.86 -378.27,335.9 -144.06,139.14 -289.77,279.86 -469.2,413.47 -838.85,624.63 -1489.67,653.97 -2123.05,682.49 -541.39,24.39 -1066.85,48.16 -1711.99,629.91 -358.14,738.39 -821.17,1426.69 -1380.6,2032.26zm-14081.42 35617.87c46.6,215.73 -90.52,428.41 -306.25,475.01 -215.73,46.6 -428.41,-90.52 -475.01,-306.25 -363.62,-1653.37 -693.53,-3273.2 -870.59,-4698.98 -102.5,-825.36 -153.48,-1589.02 -130.28,-2262.1 -124.03,66.47 -254.25,108.22 -391.05,122l-32.91 3.31c-220.05,14.66 -410.34,-151.83 -425,-371.88 -14.66,-220.05 151.83,-410.34 371.88,-425 13.85,-0.97 0,0.6 7.91,-0.19 231.06,-23.27 440.59,-235.22 629.89,-579.79 10.76,-42.3 22.06,-83.93 33.96,-124.83 21.51,-74.22 62.72,-137.37 116.29,-185.44 371.06,-858.73 655.95,-2225.79 865.87,-3598.05 354.38,-2316.7 460.72,-4614.83 453.43,-4787.31l-0.21 0.02 -0.19 -2.29c-0.52,-6.33 -0.87,-12.64 -1.1,-18.92 -35.04,-318.51 -113.94,-514.06 -212.28,-626.42 -59.06,-67.47 -128.02,-100.67 -195.99,-112.51 -83.66,-14.58 -168.78,-3.01 -240.11,18.84 -54,16.54 -51.41,-31.06 -62.62,-11.74 -196.75,339.11 -385.77,1131.06 -581.33,1950.49 -166.28,696.74 -337.11,1412.49 -541.7,1953.66 -84.74,224.15 -191.51,395.09 -314.15,521.4 -237.46,244.58 -515.27,320.07 -805.88,282.14 -241.54,-31.52 -478.41,-147.16 -694.89,-305.32 -318.61,-232.77 -606.99,-568.41 -784.51,-839.35 -292.87,-446.98 -554.19,-994.08 -769.14,-1518.9 -356.53,-870.53 -587.74,-1692.24 -620.37,-1878.76l-835.65 -3898.07c-70.97,-331.08 -159.38,-522.49 -255.52,-624.16 -54.44,-57.57 -116.61,-76.24 -178.97,-77 -51.14,-0.62 -100.71,12.44 -136.32,57.88 -83.51,106.55 -147.65,317.55 -172.59,696.37 -17.38,264.03 23.48,1028.01 123.04,1946.88 74.67,689.17 181.4,1454.62 320.01,2148.57 101.96,237.79 196.34,458.72 279.59,653.62l129.36 302.69c86.29,202.79 -8.15,437.15 -210.94,523.44 -202.79,86.29 -437.15,-8.15 -523.44,-210.94l-129.36 -302.69c-629.08,-1472.76 -1903.94,-4457.34 -2232.66,-4871.38 -236.46,-297.85 -408.97,-434.93 -537.59,-474.81 -56.19,-17.43 -104.45,-0.23 -145.84,29.16 -50.83,36.09 -91.33,86.8 -103.32,165.03 -21.35,139.2 14.76,347.36 144.68,659.81l1534.09 3689.22c89.47,194.14 178.1,392.05 265.33,591.05 90.78,207.09 168.23,388.05 235.57,548.86 84.57,203.65 -11.97,437.31 -215.62,521.88 -203.65,84.57 -437.31,-11.97 -521.88,-215.62 -77.51,-185.11 -154.46,-365.57 -229.33,-536.36 -77.07,-175.82 -164.03,-369.36 -263.18,-584.35 -2.16,-4.68 -4.19,-9.38 -6.15,-14.1l-0.1 0.04 -1134.23 -2727.62c-30.13,24.52 -64.38,45.01 -102.26,60.36 -116.06,47.2 21.76,-9.69 -70.11,26.84 -182.9,72.7 -336.17,133.7 -257.71,593.26l1703.24 4095.99c89.47,194.14 178.1,392.05 265.33,591.05 90.78,207.09 168.23,388.05 235.57,548.86 84.57,203.65 -11.97,437.31 -215.62,521.88 -203.65,84.57 -437.31,-11.97 -521.88,-215.62 -77.51,-185.11 -154.46,-365.57 -229.33,-536.36 -77.07,-175.82 -164.03,-369.36 -263.18,-584.35 -2.16,-4.68 -4.19,-9.38 -6.15,-14.1l-0.1 0.04 -1265.67 -3043.69c-42.76,77.06 -111.16,140.55 -199.2,176.21 -98.98,40.28 19.51,-8.76 -70.15,26.86 -182.88,72.69 -336.12,133.68 -257.65,593.24l1703.23 4096c89.47,194.15 178.1,392.03 265.34,591.06 90.78,207.07 168.2,387.99 235.56,548.86 183.61,438.46 337.37,828.88 475.08,1178.6 823.59,2091.45 1032.79,2622.68 4212.99,3770.69 207.1,74.21 314.83,302.28 240.62,509.38 -74.21,207.1 -302.28,314.83 -509.38,240.62 -497.99,-179.77 -930.27,-346.07 -1308.09,-505.84 215.13,468.86 399.05,1009.19 558.75,1603.5 356.65,1327.24 599.29,2932.67 804.89,4604.38 26.75,219.19 -129.25,418.57 -348.44,445.32 -219.19,26.75 -418.57,-129.25 -445.32,-348.44 -202.03,-1642.67 -438.95,-3214.64 -783.01,-4495 -313.06,-1165.04 -707.92,-2078.57 -1236.5,-2559.81 -1033.66,-698.15 -1344.22,-1485.96 -1930.27,-2974.18 -135.55,-344.23 -286.9,-728.54 -468.82,-1162.96 -77.49,-185.07 -154.45,-365.58 -229.32,-536.36 -77.06,-175.8 -164.04,-369.38 -263.19,-584.36 -2.16,-4.68 -4.19,-9.38 -6.15,-14.1l-0.1 0.04 -1721.38 -4139.63c-13.3,-32.03 -22.11,-64.82 -26.74,-97.63 -209.58,-1124.64 224.15,-1297.29 744.14,-1504 45.37,-18.02 -80.11,31.74 63.91,-26.86 85.58,-34.67 176.15,-37.53 258.61,-14.18l-215.13 -517.34c-13.3,-32.04 -22.13,-64.81 -26.75,-97.64 -209.58,-1124.68 224.19,-1297.32 744.21,-1504.01 47.61,-18.93 -97.2,38.66 63.87,-26.84 35.49,-14.38 71.84,-23.27 108.11,-27.11l-107.85 -259.37c-192.44,-462.79 -239.5,-812.96 -197.8,-1084.83 51.04,-332.82 219.86,-546.02 431.44,-696.27 224.28,-159.26 497.71,-248.66 842.72,-141.66 272.56,84.52 580.85,302.9 928.21,740.43 169.95,214.06 508.16,901.19 889.56,1734.41 -60.33,-690.96 -82.42,-1244.18 -67.04,-1477.72 36.75,-558.08 165.74,-912.94 341.35,-1136.99 223.51,-285.16 499.17,-367.49 773.82,-364.14 259.48,3.17 519.56,82.42 750.85,327 189.58,200.48 350.51,515.55 455.52,1005.42l834.86 3893.88c2.75,10.58 5.12,21.35 7.03,32.31 28.72,164.21 239.54,905.36 570.37,1713.14 196.59,479.99 434.82,979.19 700.4,1384.52 135.89,207.4 352.88,461.59 587.63,633.09 116.9,85.4 230.88,146.03 326.13,158.46 46.14,6.02 91.12,-6.82 130.88,-47.78 48.19,-49.64 95,-129.61 139.15,-246.4 182.58,-482.93 348.73,-1179.1 510.46,-1856.78 208.93,-875.43 410.86,-1721.48 668.83,-2166.11 69.21,-119.28 274.32,-274.89 521.98,-350.76 175.65,-53.81 389.02,-81.61 605.75,-43.84 232.41,40.49 465.85,151.38 661.61,375.01 197.41,225.53 350.2,565.85 405.41,1067.42 2.16,12.24 3.81,24.67 4.85,37.3l0.19 2.29 -0.39 0.03 0.39 4.65c10.18,143.61 -93.36,2573.59 -459.48,4966.99 -216.16,1413.05 -533.16,2824.51 -993.25,3814.44 -2.37,24.02 -6.95,48.16 -13.91,72.17 -230.97,793.85 -205.64,1955.81 -36.26,3319.72 173.47,1396.81 499,2994.31 858.09,4627.1zm16207.87 17.29c46.6,215.73 -90.52,428.41 -306.25,475.01 -215.73,46.6 -428.41,-90.52 -475.01,-306.25 -329.41,-1499.22 -627.65,-2967.24 -787.37,-4259.57 -89.33,-722.84 -135.09,-1393.9 -118.91,-1989.88 -100.28,46.98 -204.89,76.91 -314.04,87.91 -23.96,2.4 -25.27,2.85 -29.52,3.15 -220.05,15.53 -411.04,-150.26 -426.57,-370.31 -15.53,-220.05 150.26,-411.04 370.31,-426.57 16.66,-1.18 -3.94,1.13 7.66,-0.03 196.37,-19.78 375.68,-198.57 538.82,-490.47 10.61,-42.18 21.81,-83.65 33.65,-124.34 21.54,-74.33 62.85,-137.55 116.53,-185.65 329.96,-774.76 585.73,-2010.04 775.44,-3250.13 320.44,-2094.86 417.78,-4170.73 412.14,-4343.33l-0.29 0.02 -0.18 -2.08c-0.64,-7.4 -1.06,-14.78 -1.29,-22.12 -31.14,-278.86 -99.29,-448.91 -183.83,-545.47 -47.5,-54.26 -102.75,-80.93 -157.11,-90.4 -70.04,-12.2 -141.62,-2.42 -201.76,16 -40.3,12.34 -22.28,-50.94 -36.11,-27.1 -176.14,303.56 -347.43,1021.25 -524.65,1763.84 -151.41,634.45 -306.97,1286.21 -494.01,1780.94 -78.89,208.69 -178.71,368.25 -293.6,486.6 -224.89,231.63 -488.06,303.12 -763.42,267.18 -226.26,-29.53 -447.23,-137.18 -648.61,-284.3 -293.51,-214.43 -558.99,-523.34 -722.3,-772.6 -267.54,-408.34 -506.23,-908.02 -702.52,-1387.3 -325.37,-794.43 -536.53,-1545.29 -566.38,-1715.91l-759.6 -3543.36c-63.32,-295.4 -139.76,-463.61 -221.72,-550.28l-0.73 -0.79 -0.84 0.79c-41.49,-43.87 -89.05,-58.11 -136.82,-58.69 -36.37,-0.44 -71.19,8.3 -95.06,38.75 -71.76,91.56 -127.15,276.91 -149.29,613.26 -15.69,238.53 21.43,930.68 111.75,1764.24 67.69,624.77 164.32,1318.19 289.63,1946.56 92.24,215.11 177.62,414.98 252.98,591.42l117.56 275.08c86.29,202.79 -8.15,437.15 -210.94,523.44 -202.79,86.29 -437.15,-8.15 -523.44,-210.94l-117.56 -275.08c-571.37,-1337.66 -1729.42,-4048.79 -2025.34,-4421.52 -209.99,-264.51 -360.7,-385.47 -471.14,-419.72 -38,-11.78 -71.68,0.58 -101.03,21.42 -38.93,27.65 -69.94,66.38 -79.08,125.99 -18.49,120.55 13.85,303.41 129.16,580.71l1394.84 3354.36c80.83,175.47 161.44,355.44 241.14,537.27 83.25,189.9 153.71,354.47 214.5,499.66 84.57,203.65 -11.97,437.31 -215.62,521.88 -203.65,84.57 -437.31,-11.97 -521.88,-215.62 -70.91,-169.37 -140.86,-333.43 -208.26,-487.16 -69.55,-158.67 -148.5,-334.35 -239.03,-530.67 -2.16,-4.68 -4.19,-9.38 -6.15,-14.1l-0.1 0.04 -1013.89 -2438.24c-19.81,12.49 -41,23.41 -63.47,32.51 -112.17,45.61 27.22,-11.87 -64.03,24.41 -150.81,59.94 -277.32,110.28 -212.68,495.72l1547.12 3720.54c80.83,175.47 161.44,355.44 241.14,537.27 83.28,189.99 153.73,354.55 214.5,499.66 84.57,203.65 -11.97,437.31 -215.62,521.88 -203.65,84.57 -437.31,-11.97 -521.88,-215.62 -70.96,-169.45 -140.92,-333.53 -208.26,-487.16 -69.55,-158.67 -148.5,-334.35 -239.03,-530.67 -2.16,-4.68 -4.19,-9.38 -6.15,-14.1l-0.1 0.04 -1125.16 -2705.8c-41.11,50.59 -95.18,91.81 -159.86,118.01 -116.39,47.35 23.86,-10.54 -64.02,24.4 -150.81,59.94 -277.33,110.27 -212.69,495.72l1547.12 3720.55c80.83,175.46 161.44,355.44 241.14,537.26 83.26,189.95 153.72,354.53 214.49,499.67 167.04,398.9 306.96,754.19 432.28,1072.45 744.15,1889.7 933.17,2369.67 3809.5,3407.99 207.1,74.21 314.83,302.28 240.62,509.38 -74.21,207.1 -302.28,314.83 -509.38,240.62 -416.52,-150.36 -782.43,-290.38 -1106.22,-425 176.65,399.79 329.56,852.98 463.67,1347.41 323.45,1192.58 544.61,2637.62 731.54,4145.83 26.75,219.19 -129.25,418.57 -348.44,445.32 -219.19,26.75 -418.57,-129.25 -445.32,-348.44 -182.82,-1475.08 -398,-2884.24 -709.66,-4033.33 -280.74,-1035.03 -632.44,-1846.08 -1099.26,-2275.37 -949.61,-639.25 -1233.7,-1359.86 -1770.81,-2723.79 -123.17,-312.79 -260.68,-661.97 -426.02,-1056.81 -70.93,-169.41 -140.89,-333.49 -208.25,-487.17 -69.56,-158.68 -148.5,-334.35 -239.03,-530.66 -2.16,-4.68 -4.19,-9.38 -6.15,-14.1l-0.1 0.04 -1565.32 -3764.3c-13.3,-32.03 -22.11,-64.81 -26.74,-97.62 -195.42,-1050.47 211.48,-1212.4 699.27,-1406.27 47.65,-18.94 -99.51,39.59 57.78,-24.4 62.24,-25.21 127.12,-33.59 189.6,-27.31l-169.9 -408.57c-13.3,-32.03 -22.11,-64.81 -26.74,-97.62 -195.41,-1050.44 211.47,-1212.4 699.26,-1406.27 51.01,-20.28 -95.32,37.85 57.79,-24.41 20.12,-8.15 40.52,-14.52 61.02,-19.23l-80.6 -193.82c-177.83,-427.65 -221.12,-752.5 -182.28,-1005.73 48.19,-314.21 207.52,-515.42 407.2,-657.23 212.24,-150.71 471.09,-235.27 797.91,-133.92 254.37,78.88 540.88,281.16 861.76,685.34 143.09,180.23 414.96,723.11 727.55,1398.28 -42.06,-534.05 -56.57,-954.61 -44.07,-1144.6 33.95,-515.6 154.19,-844.81 318.05,-1053.88 211.78,-270.17 472.67,-348.18 732.56,-345.01 244.89,2.97 490.37,77.8 708.7,308.69l-0.83 0.79c177.54,188.11 327.55,480.26 424.12,930.75l758.81 3539.17c2.75,10.58 5.12,21.35 7.03,32.31 25.94,148.31 216.71,818.61 516.38,1550.29 177.94,434.47 393.53,886.23 633.78,1252.92 121.68,185.72 315.77,413.17 525.42,566.34 101.79,74.37 199.87,127 279.85,137.44 30.88,4.03 61.23,-4.81 88.42,-32.82 40.44,-41.66 80.29,-110.26 118.6,-211.6 165.02,-436.5 315.91,-1068.68 462.77,-1684.06 190.59,-798.58 374.79,-1570.38 612.15,-1979.46 66.55,-114.74 261.46,-263.71 495.47,-335.4 164.44,-50.38 364.3,-76.39 567.4,-41 218.79,38.12 438.53,142.48 622.73,352.9 183.38,209.48 325.32,524.05 376.88,985.85 2.27,12.45 4.01,25.11 5.12,37.98l0.18 2.08 -0.52 0.04 0.52 6.21c9.28,131.07 -84.81,2345.71 -418.11,4524.58 -196.1,1281.94 -484.19,2562.43 -903.11,3467.28 -2.39,23.84 -6.95,47.79 -13.86,71.62 -207.75,714.03 -185.34,1761.25 -33.26,2991.78 156.18,1263.69 450.03,2709.25 774.87,4187.69zm6752.7 113.81c0.86,220.05 -176.83,399.14 -396.88,400 -220.05,0.86 -399.14,-176.83 -400,-396.88 -6.63,-1149.41 55.64,-2527.85 120.22,-3957.85 150.12,-3323.8 313.03,-6930.57 -336.88,-8247.12 -10.83,-21.96 -19.44,-44.42 -25.95,-67.16 -479.51,-692.78 -902.81,-1701.99 -1250.21,-2725.53 -595.1,-1753.35 -998.08,-3576.33 -1009.67,-3686.69l-1.08 -12.73 -0.64 0.05c-31.39,-417.61 44.03,-718.96 173.82,-933.72 129.28,-213.9 307.4,-340.37 495.47,-408.58 176.53,-64.03 355.71,-72.98 505.76,-54.59 218.3,26.73 417.53,132.02 498.02,227.36 258.69,306.41 526.39,922.85 803.37,1560.7 209.67,482.82 425.06,978.82 624.43,1313.79 41.11,69.08 78.24,113.41 111.66,137.51 7.19,5.18 14.57,5.89 21.68,3.65 53.22,-16.76 117.35,-68.29 183.33,-137.1 144.59,-150.79 266.56,-358.54 337.02,-523.09 140.89,-328.97 251.43,-730.24 334.7,-1114.66 140.68,-649.49 200.27,-1220.25 200.01,-1341.82l0.27 -14.05 -0.27 -0.01 109.07 -3045.8c14.31,-399.87 99.24,-673.53 223.98,-863.07 158.14,-240.27 364.43,-345.6 581.23,-386.75 230.94,-43.84 475.96,-15.2 708.44,193.08 175.13,156.92 329.83,421.37 436.47,854.97 28.28,115.01 62.61,333.23 96.12,616.85 124.48,-450.1 234.93,-799.48 310.56,-939.39 213.02,-394.02 429.21,-611.29 637.7,-718.8 277.3,-142.99 522.11,-108.77 735.21,-7.89 199.88,94.61 373.25,248.44 465.61,520.27 72.57,213.55 85.51,499.39 -1.55,891.12l-23.15 104.2c81.76,17.57 20.21,4.85 39.54,8.83 460.19,94.69 843.93,173.78 833.84,1129.32 0.29,29.69 -2.76,59.86 -9.44,90.08l-60.26 271.17c29.93,-0.58 60.39,2.21 90.93,8.68 98.3,21.08 30.55,7.08 50.7,11.23 460.19,94.69 843.93,173.78 833.84,1129.32 0.29,29.69 -2.76,59.86 -9.44,90.08l-737.97 3320.85c-1.68,8.99 -3.66,17.98 -5.99,26.96 -43.45,165.56 -83.08,323.12 -119.47,473.3 -35.48,146.44 -68.96,290.65 -100.66,431.64 -82.34,366.23 -142.71,664.4 -196.77,931.49 -247.14,1220.86 -377.62,1864.67 -1078.21,2539.55 -795.11,1088.21 -482.94,4665.99 -192.56,7992.14 133.59,1530.25 262.63,3008.36 274.41,4224.43 1.72,220.05 -175.26,399.85 -395.31,401.57 -220.05,1.72 -399.85,-175.26 -401.57,-395.31 -11.09,-1145.77 -140.47,-2627.71 -274.41,-4161.93 -230.68,-2642.4 -474.45,-5436.37 -140.33,-7215.19 -233.14,147.43 -494.92,304.06 -790.54,474.04 -190.7,109.59 -434.16,43.83 -543.75,-146.87 -109.59,-190.7 -43.83,-434.16 146.87,-543.75 2196.75,-1263.14 2281.31,-1680.76 2614.14,-3324.94 58.64,-289.71 124.13,-613.18 199.91,-950.23 30.97,-137.73 65.25,-285.12 103.78,-444.14 37.62,-155.26 78.31,-317.09 122.59,-485.8l728.31 -3277.34c-4.06,-269.03 -91.84,-287.13 -196.25,-308.61 -55.69,-11.47 5.18,2.09 -56.94,-11.23 -33.2,-7.04 -64.54,-18.02 -93.67,-32.34l-509.35 2292.08c-1.68,8.99 -3.66,17.98 -5.99,26.96 -43.45,165.56 -83.08,323.12 -119.47,473.3 -35.48,146.44 -68.96,290.65 -100.66,431.64 -48.32,214.87 -261.69,349.88 -476.56,301.56 -214.87,-48.32 -349.88,-261.69 -301.56,-476.56 30.97,-137.73 65.25,-285.12 103.78,-444.14 37.62,-155.26 78.31,-317.09 122.59,-485.8l728.31 -3277.34c-4.06,-269.03 -91.84,-287.13 -196.25,-308.61 -54.59,-11.24 2.8,1.55 -53.41,-10.48l-461.88 2078.46c-1.68,8.99 -3.66,17.98 -5.99,26.96 -43.45,165.56 -83.08,323.12 -119.47,473.3 -35.48,146.44 -68.96,290.65 -100.66,431.64 -48.32,214.87 -261.69,349.88 -476.56,301.56 -214.87,-48.32 -349.88,-261.69 -301.56,-476.56 30.97,-137.73 65.25,-285.12 103.78,-444.14 37.62,-155.26 78.31,-317.09 122.59,-485.8l658.03 -2961.11c51.69,-232.6 52.76,-376.6 23.41,-462.98 -9.54,-28.09 -28.25,-44.37 -49.97,-54.65 -11.21,-5.3 -21.89,-8.26 -28.97,-4.61 -75.9,39.14 -173.07,152.38 -300.2,387.54 -185.81,343.7 -743.28,2743.17 -1018.34,3927.1 -79.56,342.49 59.74,-254.27 -56.76,245.69 -50.05,214.87 -264.82,348.48 -479.69,298.43 -214.87,-50.05 -348.48,-264.82 -298.43,-479.69 102.95,-441.83 73.95,-316.65 57.34,-245.05 35.87,-154.4 76.4,-328.85 120.29,-516.56 11.11,-531.42 -10.55,-1113.46 -45.88,-1636.4 -47.15,-697.84 -116.61,-1268.49 -163.33,-1458.48 -64.17,-260.92 -129.56,-395.23 -192.73,-451.83 -5.82,-5.21 -17.41,-4.9 -30.3,-2.46 -24.06,4.56 -46.48,15.54 -62.49,39.87 -49.4,75.07 -84.16,214.42 -92.72,453.69l-109.07 3045.8 -0.14 0c-3.26,173.25 -68.04,815.77 -215.49,1496.52 -91.84,423.96 -216.9,873.88 -381.58,1258.4 -101.01,235.9 -279.71,537.74 -496.4,763.71 -151.68,158.19 -327.31,285.52 -520.83,346.48 -239.65,75.49 -486.1,52.85 -724.8,-119.27 -118.11,-85.17 -229.52,-208.6 -330.42,-378.13 -227.18,-381.7 -452.23,-899.95 -671.31,-1404.43 -243.67,-561.15 -479.44,-1104.06 -663.51,-1338.58l-1.77 14.51c3.4,8.59 4.11,14.86 -1.73,14.15 -45.25,-5.54 -95.18,-4.33 -137,10.83 -30.27,10.98 -59.83,32.79 -82.97,71.08 -51.08,84.52 -78.82,228.92 -61.32,461.84l-0.1 0.01c26.31,166.63 406.73,1840.33 970.87,3502.48 333.28,981.95 716.73,1950.63 1087.56,2533 61.58,37.99 113.58,93.16 147.96,162.83 18.05,36.56 35.39,74.82 52.37,113.98 155.16,183.14 305.96,283.81 447.54,273.17 15.18,-1.14 -6.76,1.34 4.62,0.16 219.19,-22.43 415.08,137.06 437.51,356.25 22.43,219.19 -137.06,415.08 -356.25,437.51 -21.76,2.26 -21.7,2.6 -26.5,2.96 -71.26,5.35 -141.86,1.17 -211.79,-11.27 325.01,1829.68 193.67,4738.03 70.64,7461.86 -64.49,1427.83 -126.66,2804.2 -120.22,3920.35zm-2237.4 -19347.82c-16.86,-19.98 7.84,15.42 16.21,36.63l1.77 -14.51c-6.05,-7.71 -12.04,-15.09 -17.98,-22.12zm13511.74 18821.8c-50.91,214.01 -265.68,346.22 -479.69,295.31 -214.01,-50.91 -346.22,-265.68 -295.31,-479.69 372.54,-1550.82 733.2,-3099.04 944.29,-4469.99 203.3,-1320.46 262.74,-2444.36 45.84,-3180.04 -7.75,-26.38 -12.65,-52.92 -14.88,-79.29 -379.43,-853.75 -631.85,-2050.7 -798.39,-3247.76 -284.52,-2044.98 -344.91,-4115.69 -334.6,-4237.76 0.81,-9.89 2,-19.66 3.51,-29.31 53.27,-445.46 193.66,-747.19 373.24,-946.78 178.18,-198.05 390.34,-294.83 601.43,-328.66 196.82,-31.55 387.63,-4.44 543.27,45.55 223.5,71.81 409.5,218.99 472.91,331.76 215.96,384.1 379.09,1111.13 547.88,1863.4 128.61,573.16 260.73,1161.99 410.92,1576.13 33.15,91.43 68.04,153.44 103.75,191.23 17.6,18.63 38.32,24.61 60.04,22.08 70.68,-8.25 158.58,-54.04 250.39,-119.22 194.57,-138.15 376.4,-345.71 491.27,-515.94 227.24,-336.77 433.51,-754.62 604.94,-1157.53 289.84,-681.2 475.77,-1300.05 501.45,-1435.97 0.98,-5.24 2.09,-10.43 3.27,-15.59l-0.14 -0.03 757.57 -3313.61c97.41,-426.14 243.56,-701.19 414.51,-877.11 212.2,-218.39 448.44,-286.87 683.2,-286.55 250.99,0.32 501.57,78.63 701.33,340.74 153.29,201.13 263.48,515.05 288.98,1003.53 9.17,175.56 -8.19,553.38 -51.23,1032.21 280.6,-582.35 511.92,-1049.22 608.92,-1219.37 264.31,-463.64 534.65,-773.73 791.57,-955.41 375.19,-265.32 736.79,-285.88 1045.71,-120.65 385.19,206 493.95,502.21 412.99,949.85 -55.1,304.73 -209.05,668.45 -421.05,1159.38l-66.52 154.05c10.31,3.39 20.56,7.2 30.74,11.49 10.17,4.3 23.21,9.5 53.47,22.01 461.98,190.92 847.71,350.54 653.77,1339.16 -4.53,36.68 -14.24,73.35 -29.57,109.02l-148.09 342.93c48.88,1.03 98.39,11.13 146.19,31.26l53.48 22.02c461.98,190.91 847.7,350.52 653.76,1339.15 -4.53,36.68 -14.24,73.35 -29.57,109.02l-1509.96 3496.69 -1.21 -0.52c-2.1,4.89 -4.29,9.75 -6.6,14.59 -66.8,139.83 -144.04,306.65 -228.37,492.14 -80.12,176.26 -146.32,325.2 -202.14,453.58 -161.7,371.9 -293.34,693.35 -411.26,981.28 -522.31,1275.38 -797.86,1947.76 -1701.38,2536.07 -508.22,459.22 -878.43,1396.13 -1171.63,2582.56 -324.92,1314.81 -544.9,2912.41 -748.53,4519.63 -27.61,218.32 -226.99,372.92 -445.31,345.31 -218.32,-27.61 -372.92,-226.99 -345.31,-445.31 207.38,-1636.77 431.58,-3264.5 764.15,-4610.25 158.15,-639.95 342.63,-1220.67 563.57,-1716.08 -290.04,114.59 -614.88,233.39 -981.29,360.07 -207.96,71.62 -434.63,-38.91 -506.25,-246.87 -71.62,-207.96 38.91,-434.63 246.87,-506.25 2689.9,-930 2871.75,-1373.99 3587.61,-3122 122.21,-298.41 258.65,-631.56 417.5,-996.92 71.22,-163.8 140.35,-320.1 205.28,-462.94 59.32,-130.48 134.78,-292.11 230.83,-493.32l-0.91 -0.39 1494.68 -3461.31c59.01,-332.53 -49.01,-377.27 -177.65,-430.43l-59.74 -25.14c-50.12,-21.11 -93.65,-51.3 -129.51,-87.81l-1069.16 2475.93 -1.21 -0.52c-2.1,4.89 -4.29,9.75 -6.6,14.59 -66.82,139.87 -144.05,306.66 -228.37,492.15 -80.11,176.24 -146.31,325.16 -202.14,453.57 -88.02,201.93 -323.08,294.27 -525.01,206.25 -201.93,-88.02 -294.27,-323.08 -206.25,-525.01 71.21,-163.77 140.35,-320.08 205.28,-462.93 59.32,-130.5 134.8,-292.17 230.82,-493.33l-0.9 -0.39 1494.67 -3461.31c59.01,-332.54 -49.02,-377.28 -177.66,-430.44 -7.12,-2.94 -11.56,-4.75 -59.73,-25.13 -12.4,-5.22 -24.39,-11 -35.97,-17.3l-966.41 2237.97 -1.21 -0.52c-2.1,4.89 -4.29,9.75 -6.6,14.59 -66.76,139.77 -143.99,306.56 -228.36,492.14 -80.07,176.14 -146.28,325.1 -202.14,453.58 -88.02,201.93 -323.08,294.27 -525.01,206.25 -201.93,-88.02 -294.27,-323.08 -206.25,-525.01 71.17,-163.69 140.28,-319.97 205.28,-462.94 59.28,-130.38 134.76,-292.05 230.82,-493.32l-0.91 -0.39 1347.54 -3120.59c193.59,-448.3 333.65,-777.53 371.05,-984.38 11.57,-63.97 11.4,-98.08 -3.61,-106.11 -39.33,-21.03 -109.99,-1.02 -211.33,70.65 -166.88,118.01 -355.42,342.12 -557.19,696.05 -118.62,208.09 -482.71,955.85 -886.65,1805.5 -460.55,968.72 -958.59,2038.61 -1209.75,2604.3 -88.88,201.06 -323.94,292 -525,203.12 -201.06,-88.88 -292,-323.94 -203.12,-525 92.95,-209.34 211.52,-470.7 344.86,-760.92 129.66,-598.46 231.5,-1259.64 303.85,-1852.23 95.12,-779.15 138.89,-1422.16 127.48,-1640.75 -16.09,-308.11 -63.47,-477.1 -126.48,-559.77 -16.54,-21.71 -41.15,-28.21 -66.95,-28.24 -38.67,-0.05 -77.32,10.94 -111.32,45.93 -75.25,77.43 -146.73,229.75 -208.27,498.97l-757.57 3313.61c-39.62,187.03 -244.11,870.99 -548.32,1585.97 -189.72,445.91 -419.86,911.09 -676.82,1291.91 -156.87,232.49 -411.14,520.16 -691.27,719.06 -194.19,137.86 -406.37,237.78 -622.27,262.98 -264.87,30.92 -517.32,-41.85 -731.92,-268.96 -107.37,-113.63 -200.07,-266.53 -272.49,-466.23 -166.93,-460.3 -304.82,-1074.82 -439.04,-1673.01 -155.28,-692.08 -305.36,-1360.93 -466.64,-1647.78 -15.28,-27.18 11.88,47.17 -19.79,37 -53.27,-17.11 -115.57,-26.87 -174.51,-17.43 -44.67,7.16 -91.04,29.27 -132.67,75.54 -78,86.69 -142.04,243.34 -173.44,504.62l-0.19 2.71c-9.58,113.41 52.47,2079.91 328.34,4062.76 160.7,1155.08 381.77,2306.34 675.2,3029.87 51.84,47.46 91.81,109.21 113.07,181.56 13.27,45 25.64,91.05 37.24,138.03 141.47,254.81 297.69,410.95 469.76,430.65 5.19,0.59 -3.83,-0.56 4.84,0.17 220.05,18.12 383.75,211.2 365.63,431.25 -18.12,220.05 -211.2,383.75 -431.25,365.63l-29.84 -3.29c-86.01,-9.85 -168.86,-31.99 -248.66,-65.41 9.13,657.82 -63.05,1411.58 -188.56,2226.77 -211.32,1372.48 -579.34,2951.39 -959.91,4535.61zm-23162.82 -46310.27c-113.26,-78.2 -141.68,-233.42 -63.48,-346.68 78.2,-113.26 233.42,-141.68 346.68,-63.48 458.74,317.52 880.35,667.23 1239.98,1084.28 364.29,422.47 663.38,911.11 870.93,1500.56 45.84,129.98 -22.36,272.52 -152.34,318.36 -129.98,45.84 -272.52,-22.36 -318.36,-152.34 -185.78,-527.62 -452.62,-963.99 -777.19,-1340.4 -329.26,-381.84 -719.58,-705 -1146.22,-1000.3zm23571.37 1255.18c327.11,-21.14 632.29,-11.42 925.45,28.11 949.89,128.09 1734.03,559.32 2691.2,1259.55 738.32,540.12 950.92,976.55 750.8,1363.7 -170.17,329.21 -652.35,492.9 -1362.93,577.13 -1205.19,142.88 -1992.83,216.84 -2855.87,13.14 -850.62,-200.79 -1728.01,-666.66 -3100.89,-1600.22 -1665.87,1046.63 -2897.52,2090.05 -3823,3233.11 -11.36,16.36 -23.75,31.61 -37.01,45.74l-1.59 1.97c-802.24,1002.48 -1376.2,2090.63 -1808.36,3333.41 -169.77,694.61 -174.71,1341.84 -98.59,1922.64 77.95,594.82 240.88,1124.79 400.4,1566.8 274.25,759.88 199.58,1193.4 -32.83,1451.98 -252.92,281.39 -606.47,294.49 -926.39,285.12 -316.16,-9.26 -603.17,-24.12 -838.76,-304.11 -195.35,-232.15 -278.61,-614.42 -170.51,-1300.82 226.02,-1435.07 505.82,-2700.61 900.58,-3846.5 3.24,-10.88 6.91,-21.52 10.99,-31.93 129.87,-374.22 272.11,-735.67 428.89,-1086.09l-2003.29 530.71c-131.75,306.68 -343.39,580.32 -614.04,803.6 -452.07,372.96 -1071.09,603.66 -1749.84,603.66 -11.18,0 -22.34,-0.06 -33.49,-0.19 -608.75,23.34 -1100.8,226.96 -1503.57,556.37 -428.65,350.56 -765.15,846.82 -1038.16,1424.5 -126.86,268.44 -233.93,515.03 -343.62,767.71 -625.92,1441.71 -1330.02,3063.45 -3128.56,3994.28 -771.87,399.48 -1623.9,571.65 -2637.82,588.67 -984.04,16.52 -2110.18,-112.25 -3464.53,-318.56 -1977.24,-301.16 -3724.98,1988.39 -5201.92,3923.21l-90.92 119.09c-38,49.75 -85.33,120.53 -142.2,205.6 -627.95,939.22 -2209.7,3305.05 -5147.71,1233.59l3.9 -5.55c-49.3,23.03 -98.67,44.92 -148.1,65.53 -1222.01,509.49 -2428.67,308.83 -3359.41,-1508.06 -785.38,-1533.12 -588.25,-2299.65 447.96,-2839.71 -198.01,-447.52 -401.28,-926.69 -525.1,-1443.05 -140.9,-587.58 -176.14,-1208.75 15.73,-1857.84 632.42,-2139.43 5867.08,-2355.48 9132.22,-2490.22l352.38 -14.64c1917.27,-80.83 2518.16,-626.66 3731.31,-1802.31 -282.68,-212.02 -562.98,-431.46 -836.95,-655.7 -1179.3,-965.21 -2251.24,-2027.27 -2908.12,-2977.89 -417.81,-604.65 -668.94,-1192.88 -705.46,-1668.89 -24.28,-316.6 41.85,-595.47 209.17,-818.06 115.13,-153.15 270.82,-270.54 469.67,-345.23 -520.62,-305.27 -1040.49,-630.41 -1543.41,-966.53 -1442.7,-964.19 -2752.43,-2023.18 -3552.39,-2968.5 -479.18,-566.25 -780.88,-1117.62 -856.75,-1577.88 -53.46,-324.31 -2.07,-613.57 166.44,-850.58 164.08,-230.77 426.01,-390.32 795.17,-458.75 551.66,-102.26 1397.73,4.39 2585.47,407.62l712.59 241.93c-1409.07,-1676.95 -2777.33,-4381.02 -3417.46,-6384.36 -228.21,-714.23 -368.1,-1348.64 -389.91,-1828.61 -29.27,-644.22 152.84,-1078.52 598.75,-1202.16 309.11,-85.71 710.98,29.07 1215.86,397.08 499.59,364.16 1167.36,842 1885.03,1355.56 2634.89,1885.47 5972.14,4273.67 8669.14,6632.36 -271.15,-817.38 -252.29,-1537.9 -0.35,-2202.85 559.02,-1475.38 2252.42,-2569.51 4452.38,-3820.57 512.41,-291.39 934.22,-412.38 1233.59,-413.3 180.87,-0.56 333.62,40.25 453.74,114.84 161.72,100.42 258.85,248.33 287.22,433.3 23.16,150.98 -7.99,318.48 -97.11,491.94l-0.65 1.23 0.65 0.33c-301.95,587.62 -626.58,1120.89 -932.99,1624.22 -961.36,1579.22 -1727.87,2838.37 -765.5,4402.24 281.66,457.7 490.91,792.47 686.01,1104.58 2270.13,3631.71 2884.65,4616.14 1215.78,8777.75 292.4,-65.45 602.55,-191.5 946.19,-447.38 134.99,-100.52 263.76,-224.89 391.08,-347.85 144.8,-139.84 288,-278.16 459.51,-404.66 235.77,-173.91 497.74,-308.49 780.13,-399.62 278,-89.71 571.6,-136.53 875.09,-136.53 678.75,0 1297.77,230.7 1749.84,603.66 204.72,168.89 375.67,366.61 503.84,585.63l2434.95 282.35c36.38,4.15 71.05,13.1 103.47,26.09 311.5,-568.51 670.51,-1109.17 1087.77,-1630.58l2.27 -2.81c271.16,-419.92 509.03,-813.58 716.83,-1188.52 -489.5,-2131.44 -641.8,-3448.79 -482.92,-4604.21 164.31,-1194.89 648.09,-2165.73 1426.48,-3637.58 440.08,-832.16 857.4,-1345.03 1307.22,-1394.09 514.57,-56.12 917.29,403.67 1223.38,1539.96 420.62,1561.42 584.56,2768.51 283.01,4031.23 -163.36,684.07 -462.62,1372.48 -931.4,2130.41 1106.19,-734.04 2407,-1461.42 3943.3,-2215.05 289.05,-1631.97 568.07,-2585.21 1019.53,-3337.21 458.74,-764.1 1060.73,-1276.15 2002.82,-2038.47 555.68,-449.66 1009.06,-680.46 1363.59,-572.58 417.5,127.03 582.05,583.5 453.77,1488.11 -166.89,1176.85 -391.78,2011.38 -951.26,2753.99 -549.27,729.06 -1401.71,1333.31 -2823.31,2051.09 -28.41,14.33 -57.72,24.93 -87.37,32.01 -34.5,39.32 -77.35,72.47 -127.53,96.47 -310.39,148.52 -611.06,295.72 -902.69,441.9zm819.19 818.73c-753.91,-101.67 -1638.25,39.86 -2892.22,452.37 1039.51,681.88 1743.42,1036.74 2402.94,1192.41 735.1,173.5 1462.07,103.85 2580.85,-28.78 447.39,-53.03 722.58,-101.15 747.31,-148.99 5.2,-10.07 -160.08,-95.92 -513.3,-354.32 -853.02,-624.04 -1537.23,-1006.39 -2325.58,-1112.69zm133.69 -2201.08c1188.64,-614.69 1904.81,-1128.78 2350.52,-1720.38 459.32,-609.67 650.12,-1338.34 798.14,-2382.11 61.6,-434.43 117.01,-612.76 105.59,-616.23 -51.55,-15.68 -278.41,148.1 -629.21,431.96 -877.17,709.79 -1435.09,1182.25 -1821.56,1825.97 -338.61,564.02 -572.04,1292.4 -803.48,2460.79zm-6115.62 3136.58c777.65,-1053.35 1226.53,-1924.37 1428.29,-2769.28 263.2,-1102.13 108.18,-2200.01 -279.89,-3640.59 -181.54,-673.93 -296.77,-960.13 -367.12,-952.46 -135.1,14.73 -369.76,375.47 -685.34,972.21 -738.19,1395.83 -1196.35,2311.9 -1342.12,3371.96 -119.62,869.88 -37.95,1870.63 260.39,3348.53 141.97,-331.53 259.15,-653.08 354.34,-971.41 298.22,-997.3 384.2,-1973.74 347.19,-3138.05 -6.9,-220.05 165.89,-404.04 385.94,-410.94 220.05,-6.9 404.04,165.89 410.94,385.94 39.8,1251.82 -54.01,2306.17 -378.45,3391.17 -41.02,137.17 -85.68,274.65 -134.17,412.92zm-3907.65 10259.61c-97.6,-270.42 -196.45,-571.61 -279.89,-900.3 -53.18,287.52 -103.36,582.49 -151.1,885.59 -66.49,422.2 -58.26,606.24 -7.61,666.44 10.41,12.38 123.98,16 251.26,19.73 138.65,4.06 285.06,5.96 310.75,-22.62 46.22,-51.42 28.91,-226.8 -123.41,-648.84zm-8596.31 -5633.05c1707.24,-4118.81 1168.7,-4981.3 -994.79,-8442.42 -233.06,-372.84 -482.6,-772.06 -689.15,-1107.7 -1217.72,-1978.81 -337.93,-3424.03 765.5,-5236.62 274.66,-451.18 564.33,-927.04 834.09,-1438.33 -171.77,33.81 -406.78,126.41 -703.52,295.15 -2055.85,1169.1 -3632.07,2175.06 -4099.26,3408.07 -377.8,997.12 -34.32,2216.93 1368.3,3914.57 363.9,376.12 700.41,747.4 1003.74,1111.52 10.46,11.16 20.15,22.78 29.08,34.77 91.63,110.56 180.25,220.47 265.47,329.61 1199.69,1536.47 1688.6,3430.94 1567.4,5295.26 -44.32,681.75 -170.36,1359.89 -372.94,2015.36 356.79,-130.82 690.94,-161.92 1026.08,-179.24z"/></g></svg>