<svg xmlns="http://www.w3.org/2000/svg" width="60" height="60" fill="#83888f" viewBox="0 0 100 125"><path d="M85.96,14.38H69.42c-0.02,0-0.04-0.01-0.06-0.01s-0.04,0.01-0.06,0.01H22.99c-0.39,0-0.71,0.32-0.71,0.71v7.19h-7.19  c-0.39,0-0.71,0.32-0.71,0.71v62.96c0,0.39,0.32,0.71,0.71,0.71h62.96c0.39,0,0.71-0.32,0.71-0.71v-7.19h7.2  c0.39,0,0.71-0.32,0.71-0.71V31.68v-0.01V15.09C86.67,14.7,86.35,14.38,85.96,14.38z M55.7,31.67c1.02-0.28,1.96-0.56,2.84-0.86  c0.07-0.02,0.14-0.05,0.21-0.07c0.35-0.12,0.7-0.25,1.03-0.38c0.3-0.12,0.59-0.24,0.87-0.37c0.05-0.02,0.1-0.04,0.15-0.07  c2.95-1.32,4.84-3.02,6.27-5.7c0.06-0.1,0.11-0.21,0.16-0.32c0.09-0.18,0.19-0.36,0.28-0.55c0.01-0.02,0.02-0.04,0.03-0.06  c0-0.01,0-0.01,0-0.02c0.06-0.14,0.12-0.28,0.18-0.42c0.05-0.12,0.1-0.23,0.15-0.35c0.07-0.16,0.13-0.32,0.19-0.49  c0.12-0.32,0.25-0.64,0.37-0.99c0.01-0.02,0.01-0.03,0.02-0.05c0.3-0.87,0.6-1.85,0.9-2.97c1.86,6.91,3.92,9.98,9.03,12.13  c0.03,0.01,0.07,0.03,0.1,0.04c0.18,0.08,0.37,0.15,0.56,0.22c0.25,0.1,0.5,0.19,0.77,0.29c0.09,0.03,0.18,0.07,0.27,0.1  c0.4,0.14,0.83,0.27,1.28,0.41c0.07,0.02,0.13,0.04,0.2,0.06c0.45,0.14,0.93,0.27,1.44,0.41c-4.62,1.25-7.52,2.58-9.59,4.86  c0,0,0,0,0,0c-0.18,0.2-0.36,0.41-0.53,0.63c-0.01,0.01-0.02,0.03-0.03,0.04c-0.25,0.32-0.48,0.66-0.71,1.02  c-0.09,0.15-0.18,0.29-0.27,0.44c-0.07,0.12-0.14,0.25-0.21,0.38c-0.11,0.21-0.23,0.42-0.33,0.65c-0.05,0.1-0.1,0.21-0.15,0.31  c-0.15,0.33-0.3,0.67-0.44,1.02c0,0.01-0.01,0.02-0.01,0.03c-0.15,0.38-0.3,0.77-0.44,1.18c-0.05,0.13-0.09,0.28-0.14,0.41  c-0.08,0.25-0.17,0.5-0.25,0.77c-0.07,0.23-0.14,0.47-0.21,0.71c-0.02,0.07-0.04,0.15-0.06,0.22c-0.09,0.32-0.19,0.64-0.28,0.98  C67.02,36.64,64.39,34.01,55.7,31.67z M77.34,28.08c-1.95-1.07-3.3-2.42-4.37-4.37h4.37V28.08z M85.25,15.8v14.97  c-0.93-0.23-1.8-0.45-2.6-0.67c-0.37-0.1-0.72-0.21-1.05-0.31c-0.05-0.01-0.1-0.03-0.14-0.04c-1.04-0.33-1.92-0.65-2.69-0.99V23  c0-0.39-0.32-0.71-0.71-0.71H72.3c-0.69-1.59-1.32-3.6-2.03-6.49H85.25z M23.7,15.8h44.76c-0.25,1.04-0.5,2.02-0.76,2.91  c-0.03,0.12-0.07,0.22-0.1,0.34c-0.07,0.25-0.15,0.49-0.23,0.73c-0.3,0.95-0.61,1.77-0.93,2.51H23.7V15.8z M77.34,85.24H15.8V23.7  h7.14c0.02,0,0.03,0.01,0.05,0.01h42.75c-1.78,3.23-4.35,4.9-10.1,6.5c-0.2,0.06-0.4,0.11-0.61,0.17c-0.21,0.06-0.42,0.11-0.63,0.17  c-0.57,0.15-1.16,0.29-1.79,0.44c-0.32,0.08-0.55,0.36-0.55,0.69c0,0.33,0.23,0.61,0.55,0.69C64.03,35.05,65.98,37,68.67,48.42  c0.08,0.32,0.36,0.55,0.69,0.55c0,0,0,0,0,0s0,0,0,0c0.33,0,0.61-0.23,0.69-0.55c1.7-7.21,3.16-10.84,7.28-13.13v42.76V85.24z   M78.76,77.34V34.6c1.54-0.67,3.47-1.28,6.21-1.96c0.09-0.02,0.19-0.05,0.28-0.07v44.77H78.76z"/><path d="M40.88,70.67c-7.48-1.76-8.75-3.04-10.52-10.52c-0.08-0.32-0.36-0.55-0.69-0.55s-0.61,0.23-0.69,0.55  c-1.77,7.49-3.05,8.77-10.52,10.52c-0.32,0.08-0.55,0.36-0.55,0.69c0,0.33,0.23,0.61,0.55,0.69c7.49,1.77,8.77,3.05,10.52,10.52  c0.08,0.32,0.36,0.55,0.69,0.55h0c0.33,0,0.61-0.23,0.69-0.55c1.77-7.49,3.05-8.77,10.52-10.52c0.32-0.08,0.55-0.36,0.55-0.69  S41.2,70.75,40.88,70.67z M29.67,79.61c-1.46-4.95-3.29-6.78-8.25-8.24c4.95-1.46,6.78-3.29,8.25-8.25  c1.47,4.96,3.29,6.79,8.24,8.25C32.96,72.82,31.14,74.65,29.67,79.61z"/></svg>