<svg xmlns="http://www.w3.org/2000/svg" width="60" height="60" fill="#83888f" viewBox="0 0 70 87.5"><g><path d="M66.25,3C45.44259,3,24.55741,3,3.75,3C3.33002,3,3,3.34003,3,3.75c0,20.80741,0,41.69259,0,62.5   C3,66.66003,3.33002,67,3.75,67c20.80741,0,41.69259,0,62.5,0c0.41003,0,0.75-0.33997,0.75-0.75c0-20.80741,0-41.69259,0-62.5   C67,3.34003,66.66003,3,66.25,3z M58.88,49.87l-3.69995-6.39996c-0.13-0.23004-0.38-0.38-0.65002-0.38h-3.15997V35.75H65.5v14.12   H58.88z M35.75,49.87V35.75h14.12006v7.34003h-3.17004c-0.76723,0-0.58874,0.54628-4.33997,6.77997H35.75z M4.5,49.87V35.75   h14.12006v7.34003h-3.16003c-0.27002,0-0.52002,0.14996-0.64996,0.38L11.11005,49.87H4.5z M11.10004,20.12l3.71002,6.41003   c0.12994,0.22998,0.37994,0.38,0.64996,0.38h3.16003V34.25H4.5V20.12H11.10004z M12.41003,19.38   c0.05794-0.10056,3.71301-6.44443,3.47998-6.03998c3.01866,0,4.48569,0,6.96002,0c0.05794,0.10056,3.71301,6.44443,3.47998,6.03998   c-0.05801,0.10052-3.71178,6.43168-3.47998,6.03003c-0.22645,0-7.28957,0-6.96002,0   C15.832,25.30951,12.17824,18.97835,12.41003,19.38z M34.25,20.12v14.13H20.12006v-7.33997h3.16998   c0.26001,0,0.51001-0.15002,0.64996-0.38L27.64001,20.12H34.25z M57.58002,19.37c-0.05794,0.10056-3.71301,6.4445-3.47998,6.04004   c-0.22645,0-7.28957,0-6.96002,0c-0.05794-0.10056-3.71301-6.4445-3.47998-6.04004   c0.05801-0.10052,3.71178-6.43162,3.47998-6.02997c0.22645,0,7.28957,0,6.96002,0   C54.15805,13.44055,57.81182,19.77165,57.58002,19.37z M65.5,20.12v14.13H51.37006v-7.33997h3.15997   c0.27002,0,0.52002-0.15002,0.65002-0.38L58.89001,20.12H65.5z M27.63,49.87l-3.69-6.39996   c-0.13995-0.23004-0.38995-0.38-0.64996-0.38h-3.16998V35.75H34.25v14.12H27.63z M35.75,20.12h6.60004l3.71002,6.41003   c0.12994,0.22998,0.37994,0.38,0.63995,0.38h3.17004V34.25H35.75V20.12z M46.70001,11.84003   c-0.26001,0-0.51001,0.14996-0.63995,0.38L42.36005,18.62H35.75V4.5h14.12006v7.34003H46.70001z M12.41003,50.63   c0.05794-0.10056,3.71301-6.44444,3.47998-6.03998c0.14849,0,7.41529,0,6.96002,0c0.05794,0.10056,3.71301,6.44444,3.47998,6.03998   c-0.05801,0.10052-3.71178,6.43168-3.47998,6.03003c-0.14852,0-7.41488,0-6.96002,0   C15.832,56.55951,12.17824,50.22835,12.41003,50.63z M23.29004,58.16003c0.26001,0,0.51001-0.15002,0.64996-0.38L27.64001,51.37   H34.25V65.5H20.12006v-7.33997H23.29004z M43.66003,50.63c0.05794-0.10056,3.71301-6.44444,3.47998-6.03998   c0.14849,0,7.41529,0,6.96002,0c0.05794,0.10056,3.71301,6.44444,3.47998,6.03998   c-0.05801,0.10052-3.71178,6.43168-3.47998,6.03003c-0.14852,0-7.41488,0-6.96002,0   C47.082,56.55951,43.42824,50.22835,43.66003,50.63z M65.5,18.62h-6.62l-3.69995-6.39996c-0.13-0.23004-0.38-0.38-0.65002-0.38   h-3.15997V4.5H65.5V18.62z M34.25,18.62h-6.62l-3.69-6.39996c-0.13995-0.23004-0.38995-0.38-0.64996-0.38h-3.16998V4.5H34.25V18.62   z M18.62006,4.5v7.34003h-3.16003c-0.27002,0-0.52002,0.14996-0.64996,0.38L11.11005,18.62H4.5V4.5H18.62006z M4.5,51.37h6.60004   l3.71002,6.41003c0.12994,0.22998,0.37994,0.38,0.64996,0.38h3.16003V65.5H4.5V51.37z M35.75,51.37h6.60004l3.71002,6.41003   c0.12994,0.22998,0.37994,0.38,0.63995,0.38h3.17004V65.5H35.75V51.37z M51.37006,65.5v-7.33997h3.15997   c0.27002,0,0.52002-0.15002,0.65002-0.38L58.89001,51.37H65.5V65.5H51.37006z"/></g></svg>