<svg xmlns="http://www.w3.org/2000/svg" xmlns:xlink="http://www.w3.org/1999/xlink" version="1.1" x="0px" y="0px" viewBox="0 0 50 62.5" enable-background="new 0 0 50 50" xml:space="preserve"><g><path d="M25.4,27.6c-5.1,1.1-7.2,4.3-7.2,6.5v10.7c0,0.1,0.1,0.2,0.2,0.2h13.1c0.1,0,0.2-0.1,0.2-0.2v-12   C32,29.2,29.3,26.8,25.4,27.6z"/><path d="M33.9,26.6c-1.1-1.8-0.4-0.4-7-15.4c0.1,0,0.2-0.1,0.2-0.3v-0.4c0,0,0-0.1-0.1-0.1h0c0.3,0,0.5-0.2,0.5-0.5V8.1   c0-0.3-0.2-0.5-0.5-0.5h-0.6V7.3h3.1c0.4,0,0.6-0.4,0.4-0.8l-2.8-4.1c-0.5-0.8-1.4-1.2-2.3-1.2C15.7,1,17.1,1,16.4,1v0.2l-1.3,0.2   v2l1.3,0.2v0.2c0,0,0.4,0,1.4,0l0,0l-1.5,6.5l0.3,0.3l2.8-4.7l1.3-0.3l2,1.2v0.8h-0.3c-0.3,0-0.5,0.2-0.5,0.5V10   c0,0.2,0.1,0.4,0.3,0.4c-0.1,0-0.1,0.1-0.1,0.2V11c0,0.1,0.1,0.2,0.2,0.3L21,12.8c-0.2,0.2-0.2,0.6,0,0.8c0.5,0.7,0.5,1.9,0.1,2.9   c-0.1,0.2,0,0.5,0.1,0.7c0.6,0.7,0.6,2,0.1,3c-0.1,0.2-0.1,0.4,0,0.6c0.4,0.8,0.4,2.3-0.4,2.9c-4,2.1-5.7,5.7-5.7,8.2v14.6   c0,1.4,1.1,2.5,2.5,2.5h14.5c1.4,0,2.5-1.1,2.5-2.5V31.4C35,29.4,34.6,27.8,33.9,26.6z M32.8,44.8c0,0.7-0.5,1.3-1.2,1.3H18.4   c-0.7,0-1.3-0.6-1.3-1.3V34.1c0-2.7,2.5-6.3,8-7.5c4.3-0.9,7.9,1.7,7.6,6.2V44.8z"/></g><text x="0" y="65" fill="#000000" font-size="5px" font-weight="bold" font-family="'Helvetica Neue', Helvetica, Arial-Unicode, Arial, Sans-serif">Created by Vectors Market</text><text x="0" y="70" fill="#000000" font-size="5px" font-weight="bold" font-family="'Helvetica Neue', Helvetica, Arial-Unicode, Arial, Sans-serif">from the Noun Project</text></svg>