<svg xmlns="http://www.w3.org/2000/svg" width="60" height="60" fill="#0A2443" viewBox="0 0 69 86.25"><g><path d="M21.22165,21.70679h-5.76269c-0.55273,0-1,0.44775-1,1v11.26025H10.9199c-0.55273,0-1,0.44775-1,1v7.4165   c0,0.55225,0.44727,1,1,1h9.07812c0.55273,0,1-0.44775,1-1v-7.4165c0-0.55225-0.44727-1-1-1h-3.53906V23.70679h4.7627v3.18506   c0,0.55225,0.44727,1,1,1H34.7197c0.55273,0,1-0.44775,1-1v-4.0376h4.04199v11.11279h-3.53906c-0.55273,0-1,0.44775-1,1v7.4165   c0,0.55225,0.44727,1,1,1h9.07813c0.55273,0,1-0.44775,1-1v-7.4165c0-0.55225-0.44727-1-1-1h-3.53906V21.85425   c0-0.55225-0.44727-1-1-1H35.7197v-2.29102c0-0.55225-0.44727-1-1-1H22.22165c-0.55273,0-1,0.44775-1,1V21.70679z    M18.99802,41.38354H11.9199v-5.4165h7.07812V41.38354z M44.30075,41.38354h-7.07813v-5.4165h7.07813V41.38354z M23.22165,19.56323   H33.7197v6.32861H23.22165V19.56323z"/><path d="M66.17381,60.27222c0-14.58876,0-32.16778,0-45.65137c0-0.36063,0.06251,0.03622-4.14161-10.54248   c-0.15234-0.37939-0.51953-0.62842-0.92871-0.62842s-0.77637,0.24902-0.92871,0.62842   c-4.19763,10.56225-4.1416,10.18286-4.1416,10.54248c0,13.48454,0,31.05697,0,45.65137c0,2.7959,2.27441,5.07031,5.07031,5.07031   S66.17381,63.06812,66.17381,60.27222z M58.03318,15.62085h6.14063V55.1853h-6.14063V15.62085z M61.10349,7.14136l2.59277,6.47949   h-5.18555L61.10349,7.14136z M58.03318,60.27222V57.1853h6.14063v3.08691c0,1.69287-1.37696,3.07031-3.07032,3.07031   S58.03318,61.96509,58.03318,60.27222z"/><path d="M2.82615,15.99976v50.55029c0,0.55225,0.44727,1,1,1h49.25c0.55273,0,1-0.44775,1-1V2.44995c0-0.55225-0.44727-1-1-1   h-35.7002c-0.19848,0-0.51764,0.1033-0.70703,0.29297l-13.5498,13.5498C2.93822,15.47361,2.82615,15.78706,2.82615,15.99976z    M52.07615,65.55005h-47.25V16.99976h12.5498c0.55273,0,1-0.44775,1-1V3.44995h33.7002V65.55005z M16.37595,4.86401v10.13574   H6.24021L16.37595,4.86401z"/><path d="M31.25095,59.26392H10.60056c-0.55273,0-1,0.44775-1,1s0.44727,1,1,1h20.65039c0.55273,0,1-0.44775,1-1   S31.80368,59.26392,31.25095,59.26392z"/><path d="M45.30075,51.59888h-34.7002c-0.55273,0-1,0.44775-1,1s0.44727,1,1,1h34.7002c0.55273,0,1-0.44775,1-1   S45.85349,51.59888,45.30075,51.59888z"/></g></svg>